{"glyphs":{"0":{"ha":851,"x_min":35,"x_max":804,"o":"m 542 804 q 354 700 446 846 q 240 371 267 563 q 286 97 214 169 q 319 75 300 82 q 443 110 381 51 q 546 272 506 168 q 608 486 586 375 q 614 689 631 597 q 542 804 597 781 m 683 821 q 774 682 744 771 q 802 496 804 593 q 769 299 800 399 q 685 120 738 199 q 554 -3 633 42 q 386 -40 475 -49 q 193 39 292 -31 q 67 229 100 104 q 64 483 35 354 q 153 726 93 613 q 307 894 213 839 q 494 914 401 950 q 544 895 514 906 q 586 879 574 885 q 617 865 599 874 q 651 847 636 857 q 683 821 665 836 z "},"1":{"ha":547,"x_min":32,"x_max":471,"o":"m 468 868 l 471 -40 l 300 -8 l 300 736 l 169 608 l 32 660 l 296 919 l 333 907 l 468 868 z "},"2":{"ha":797,"x_min":42,"x_max":769,"o":"m 674 679 q 706 594 704 640 q 683 499 708 547 q 622 401 658 450 q 531 304 585 353 q 428 216 478 256 q 325 139 379 176 l 644 139 l 769 0 l 167 0 l 42 139 q 340 379 281 318 q 496 549 464 504 q 513 735 578 661 q 451 762 489 761 q 377 747 413 763 q 299 701 342 731 q 232 652 256 672 q 185 611 208 632 l 72 751 q 166 830 97 782 q 319 911 235 878 q 453 904 403 944 q 674 679 574 803 z "},"3":{"ha":789,"x_min":40,"x_max":761,"o":"m 651 679 q 667 558 694 619 q 558 449 640 497 q 697 331 674 356 q 690 154 761 264 q 492 1 618 44 q 231 28 365 -42 q 40 222 132 94 l 99 261 q 360 131 214 121 q 521 213 463 138 q 533 376 581 292 q 500 419 521 399 q 313 379 415 383 l 242 508 q 494 614 429 519 q 501 736 538 678 q 375 789 463 799 q 194 701 289 781 l 99 825 q 113 833 103 828 q 188 876 157 861 q 271 913 218 892 q 369 929 324 933 q 447 897 414 925 q 651 679 533 824 z "},"4":{"ha":794,"x_min":21,"x_max":718,"o":"m 146 236 l 21 375 l 236 817 l 418 765 l 239 375 l 524 375 l 524 925 l 715 868 l 718 -40 l 524 0 l 524 236 l 146 236 z "},"5":{"ha":850,"x_min":49,"x_max":793,"o":"m 49 224 l 78 285 q 124 247 82 282 q 200 188 165 213 q 299 140 235 164 q 432 117 364 117 q 522 140 482 117 q 584 197 563 163 q 619 271 606 232 q 631 340 633 310 q 621 386 628 371 q 532 382 607 406 q 378 333 457 358 q 278 326 299 308 q 223 379 247 351 q 169 447 199 407 q 126 503 139 488 q 122 534 122 507 q 122 606 121 561 q 125 692 124 651 q 128 788 126 732 q 132 867 131 843 l 135 865 l 133 868 l 588 868 l 713 729 l 313 729 q 294 508 288 554 q 383 517 321 506 q 497 538 446 529 q 556 539 547 546 q 778 318 728 394 q 792 256 790 299 q 777 163 793 214 q 731 66 761 113 q 639 -11 700 19 q 499 -42 578 -42 q 344 -8 424 -42 q 203 75 264 26 q 104 162 143 124 q 49 224 65 200 z "},"6":{"ha":760,"x_min":54,"x_max":721,"o":"m 475 933 l 622 810 q 311 526 418 724 q 481 526 449 550 q 671 364 640 403 q 699 223 721 300 q 626 81 678 146 q 501 -16 574 17 q 379 -25 429 -49 q 99 176 210 56 q 61 278 68 210 q 77 436 54 347 q 147 616 100 525 q 280 793 194 707 q 475 933 365 879 m 285 124 q 449 147 353 76 q 553 285 526 206 q 507 403 583 375 q 251 376 428 432 q 238 218 229 288 q 285 124 247 149 z "},"7":{"ha":742,"x_min":14,"x_max":700,"o":"m 575 858 l 700 719 l 422 -40 l 228 0 l 488 719 l 139 719 l 14 858 l 575 858 z "},"8":{"ha":756,"x_min":32,"x_max":707,"o":"m 346 526 q 485 653 431 579 q 492 772 540 726 q 346 792 431 831 q 256 694 278 760 q 319 542 226 606 l 346 526 m 283 74 q 340 65 306 64 q 406 84 374 67 q 468 124 438 101 q 514 179 499 146 q 531 246 529 213 q 506 318 532 279 q 425 390 479 357 q 319 328 369 369 q 240 240 268 286 q 221 147 213 193 q 283 74 229 100 m 658 706 q 653 588 696 651 q 492 440 611 524 q 617 343 554 400 q 693 264 679 286 q 702 217 707 247 q 685 151 697 186 q 646 78 674 115 q 585 10 618 40 q 505 -37 553 -19 q 406 -51 457 -54 q 242 25 378 -50 q 90 128 107 100 q 92 328 32 222 q 279 486 151 433 q 93 646 110 593 q 103 723 83 675 q 161 819 122 771 q 267 899 200 867 q 410 928 335 932 q 534 833 433 926 q 658 706 635 740 z "},"9":{"ha":747,"x_min":29,"x_max":696,"o":"m 275 -39 l 128 85 q 439 368 329 168 q 269 368 303 342 q 79 531 110 492 q 51 672 29 594 q 124 813 72 749 q 249 910 176 878 q 371 919 321 943 q 651 718 540 839 q 689 616 682 685 q 673 458 696 547 q 603 278 650 369 q 470 101 556 188 q 275 -39 385 15 m 465 771 q 301 746 397 817 q 196 607 222 688 q 243 490 167 518 q 499 518 324 463 q 511 675 521 606 q 465 771 501 744 z "},"\u0000":{"ha":0,"x_min":0,"x_max":0,"o":""},"\r":{"ha":535,"x_min":0,"x_max":0,"o":""}," ":{"ha":486,"x_min":0,"x_max":0,"o":""},"!":{"ha":375,"x_min":92,"x_max":300,"o":"m 197 -31 q 92 71 126 3 q 133 128 94 93 q 196 168 172 163 q 300 69 267 136 q 197 -31 276 10 m 299 947 l 254 243 l 131 269 l 124 986 l 299 947 z "},"\"":{"ha":672,"x_min":81,"x_max":576,"o":"m 465 796 l 393 803 q 398 963 393 829 q 396 1128 403 1097 q 436 1135 400 1142 q 516 1111 472 1128 q 567 1086 560 1094 q 465 796 576 924 m 153 796 l 81 803 q 85 963 81 829 q 83 1128 90 1097 q 124 1135 88 1142 q 203 1111 160 1128 q 254 1086 247 1094 q 153 796 264 924 z "},"#":{"ha":1107,"x_min":47,"x_max":1058,"o":"m 814 947 l 814 721 l 947 721 l 1058 596 l 814 596 l 814 354 l 947 354 l 1058 229 l 814 229 l 814 -40 l 654 -1 l 654 229 l 458 229 l 458 -40 l 299 -1 l 299 229 l 158 229 l 47 354 l 299 354 l 299 596 l 158 596 l 47 721 l 299 721 l 299 986 l 458 947 l 458 721 l 654 721 l 654 986 l 814 947 m 458 596 l 458 354 l 654 354 l 654 596 l 458 596 z "},"$":{"ha":865,"x_min":121,"x_max":768,"o":"m 696 683 l 658 628 q 538 663 596 653 q 424 669 481 674 q 327 628 368 664 q 269 525 286 592 q 303 522 272 519 q 387 528 333 524 q 492 538 440 533 q 588 542 544 543 q 644 531 632 540 q 739 414 710 475 q 760 301 768 353 q 722 204 753 249 q 637 131 690 160 q 519 96 583 103 l 522 -122 l 383 -82 l 383 107 q 313 137 350 117 q 257 169 275 157 q 191 217 239 182 q 136 258 143 253 l 171 310 q 236 280 197 294 q 338 253 275 265 q 458 246 401 240 q 569 291 514 251 q 653 406 624 331 q 626 407 656 413 q 563 394 611 404 q 292 369 344 346 q 281 375 285 372 q 191 460 238 407 q 136 547 144 514 q 160 669 121 613 q 258 756 199 725 q 383 800 318 788 l 383 1006 l 519 949 l 521 779 q 696 683 601 744 z "},"%":{"ha":1188,"x_min":1,"x_max":1186,"o":"m 990 947 l 382 -42 l 226 1 l 743 825 q 475 858 619 800 q 525 752 517 815 q 511 633 533 689 q 446 531 489 576 q 340 476 403 485 q 207 503 278 468 q 96 575 153 532 q 25 658 49 611 q 3 747 1 704 q 23 834 6 790 q 73 910 40 878 q 142 964 106 942 q 222 988 179 986 q 303 972 265 989 l 331 957 q 543 901 442 908 q 718 918 644 893 q 849 993 792 943 l 990 947 m 1111 363 q 1169 278 1153 329 q 1176 176 1186 226 q 1141 76 1167 125 q 1072 -2 1115 26 q 975 -37 1028 -31 q 858 -8 922 -43 q 747 64 804 21 q 676 147 700 100 q 655 236 653 193 q 674 323 657 279 q 724 399 692 367 q 794 453 757 431 q 874 476 831 475 q 954 461 917 478 q 1111 363 1053 411 m 996 361 q 869 342 935 401 q 796 201 803 282 q 849 71 789 119 q 978 90 914 32 q 1048 229 1042 149 q 996 361 1054 310 m 344 872 q 217 853 283 913 q 144 712 151 793 q 197 582 138 631 q 326 601 263 543 q 397 740 390 660 q 344 872 403 821 z "},"&":{"ha":943,"x_min":47,"x_max":932,"o":"m 690 682 q 499 426 711 625 l 604 328 q 749 506 685 415 l 882 376 q 744 199 821 283 q 932 31 858 93 l 847 -40 l 672 124 q 539 17 603 58 q 416 -36 475 -24 q 318 -15 357 -49 q 97 210 183 89 q 153 376 47 278 q 292 489 186 407 q 136 658 156 625 q 152 760 114 693 q 263 881 190 826 q 403 936 336 936 q 552 842 436 936 q 690 682 668 747 m 533 256 l 424 358 q 388 329 410 347 q 355 301 367 311 q 326 275 343 290 q 299 250 308 260 q 280 227 290 240 q 265 203 269 214 q 258 182 261 193 q 258 160 256 171 q 268 138 261 149 q 327 117 286 108 q 420 162 368 126 q 533 256 472 197 m 358 563 q 368 551 360 560 q 501 796 590 743 q 452 806 479 810 q 396 792 425 803 q 346 756 367 781 q 315 703 325 731 q 315 638 304 675 q 358 563 325 600 z "},"'":{"ha":218,"x_min":81,"x_max":264,"o":"m 153 796 l 81 803 q 85 963 81 829 q 83 1128 90 1097 q 124 1135 88 1142 q 203 1111 160 1128 q 254 1086 247 1094 q 153 796 264 924 z "},"(":{"ha":728,"x_min":69,"x_max":658,"o":"m 540 1131 l 658 1001 q 514 869 586 944 q 375 690 442 794 q 277 485 308 586 q 274 276 246 385 q 401 83 301 168 q 628 -78 463 32 l 583 -131 q 460 -51 576 -126 q 261 87 343 24 q 138 204 179 150 q 86 426 69 292 q 168 696 103 560 q 335 951 233 832 q 540 1131 438 1071 z "},")":{"ha":679,"x_min":69,"x_max":600,"o":"m 188 -187 l 69 -58 q 250 135 214 90 q 411 558 435 357 q 315 794 396 675 q 261 870 293 828 q 176 971 229 913 q 79 1057 122 1029 l 117 1128 q 335 922 188 1078 q 551 663 482 765 q 594 536 589 607 q 577 391 600 465 q 515 238 554 317 q 419 83 475 160 q 306 -61 364 6 q 188 -187 249 -128 z "},"*":{"ha":510,"x_min":56,"x_max":468,"o":"m 56 760 l 188 853 l 74 935 l 110 969 l 225 894 l 222 1046 l 293 1035 l 293 928 l 375 986 l 468 910 l 344 819 l 468 740 l 422 685 l 294 776 l 296 606 l 232 622 l 229 735 l 153 679 l 56 760 z "},"+":{"ha":833,"x_min":47,"x_max":746,"o":"m 89 396 l 47 497 l 324 497 l 324 792 l 483 753 l 483 497 l 704 497 l 746 396 l 483 396 l 483 88 l 324 126 l 324 396 l 89 396 z "},",":{"ha":365,"x_min":92,"x_max":301,"o":"m 181 -204 l 124 -167 q 154 -6 158 -56 q 92 71 111 32 q 133 128 94 93 q 196 168 172 163 q 267 116 233 150 q 300 54 301 82 q 251 -83 292 3 q 181 -204 211 -169 z "},"-":{"ha":658,"x_min":42,"x_max":617,"o":"m 85 385 l 42 497 l 574 497 l 617 385 l 85 385 z "},".":{"ha":329,"x_min":92,"x_max":300,"o":"m 197 -31 q 92 71 126 3 q 133 128 94 93 q 196 168 172 163 q 300 69 267 136 q 197 -31 276 10 z "},"/":{"ha":606,"x_min":42,"x_max":592,"o":"m 592 935 l 222 -40 l 42 0 l 414 992 l 592 935 z "},":":{"ha":342,"x_min":92,"x_max":300,"o":"m 197 467 q 92 568 126 500 q 133 625 94 590 q 196 665 172 660 q 300 567 267 633 q 197 467 276 507 m 197 -31 q 92 71 126 3 q 133 128 94 93 q 196 168 172 163 q 300 69 267 136 q 197 -31 276 10 z "},";":{"ha":425,"x_min":92,"x_max":301,"o":"m 181 -204 l 124 -167 q 154 -6 158 -56 q 92 71 111 32 q 133 128 94 93 q 196 168 172 163 q 267 116 233 150 q 300 54 301 82 q 251 -83 292 3 q 181 -204 211 -169 m 197 467 q 92 568 126 500 q 133 625 94 590 q 196 665 172 660 q 300 567 267 633 q 197 467 276 507 z "},"<":{"ha":693,"x_min":60,"x_max":638,"o":"m 60 474 l 503 808 l 638 722 l 269 439 l 585 193 l 508 104 l 60 474 z "},"=":{"ha":933,"x_min":164,"x_max":793,"o":"m 206 300 l 164 401 l 751 401 l 793 300 l 206 300 m 206 524 l 164 625 l 751 625 l 793 524 l 206 524 z "},">":{"ha":693,"x_min":60,"x_max":638,"o":"m 113 193 l 428 439 l 60 722 l 194 808 l 638 474 l 189 104 l 113 193 z "},"?":{"ha":660,"x_min":40,"x_max":611,"o":"m 332 -31 q 226 71 261 3 q 268 128 229 93 q 331 168 307 163 q 435 69 401 136 q 332 -31 411 10 m 149 754 l 40 871 q 195 967 86 932 q 358 969 304 1003 q 508 838 425 929 q 604 707 590 746 q 610 667 611 689 q 605 626 610 646 q 588 581 600 606 q 564 535 576 556 q 531 486 551 514 q 495 439 511 458 q 453 390 479 419 q 412 344 428 361 q 369 298 396 326 q 331 256 343 269 l 200 368 q 204 372 201 369 q 233 400 219 388 q 276 444 246 413 q 330 503 307 475 q 382 569 353 532 q 428 640 411 607 q 458 708 446 674 q 465 770 469 742 q 440 819 461 799 q 346 847 403 853 q 234 813 289 840 q 149 754 179 786 z "},"@":{"ha":1464,"x_min":78,"x_max":1415,"o":"m 608 135 q 769 151 665 94 q 894 254 872 208 q 915 432 913 340 q 899 543 917 524 q 822 563 864 565 q 738 533 779 560 q 660 468 697 506 q 597 382 622 431 q 561 288 572 333 q 561 201 550 243 q 608 135 572 160 m 1271 671 q 1376 319 1415 526 q 1251 76 1349 174 q 1093 15 1164 -11 q 1069 28 1081 19 q 972 133 1018 65 q 880 48 935 85 q 759 -4 825 11 q 638 15 693 -19 q 457 147 571 56 q 406 231 418 179 q 408 340 394 283 q 454 456 422 397 q 534 562 486 515 q 638 640 582 608 q 756 673 693 672 q 878 642 818 674 q 913 622 889 635 q 949 603 938 610 q 979 583 961 596 q 1014 557 997 571 q 1047 525 1031 543 q 1053 376 1067 506 q 1049 236 1040 247 q 1138 233 1088 186 q 1204 397 1194 288 q 1089 697 1218 568 q 1054 729 1072 714 q 679 810 888 865 q 393 621 508 765 q 288 286 267 463 q 571 -78 313 64 q 578 -82 575 -81 q 741 -117 649 -126 q 901 -35 833 -107 l 1057 -167 q 901 -266 1001 -240 q 714 -277 800 -292 q 585 -231 628 -262 q 388 -72 503 -168 q 226 72 274 25 q 112 247 146 153 q 89 431 78 342 q 143 607 100 519 q 252 765 186 694 q 402 889 318 836 q 573 967 486 942 q 749 984 660 993 q 910 928 838 975 q 1006 865 947 903 q 1092 810 1065 828 q 1156 767 1118 793 q 1219 718 1193 740 q 1271 671 1246 696 z "},"A":{"ha":913,"x_min":14,"x_max":913,"o":"m 542 868 l 540 864 l 913 -40 l 733 0 l 636 254 l 308 232 l 208 -40 l 14 0 l 350 925 l 542 868 m 472 681 l 353 353 l 592 369 l 472 681 z "},"B":{"ha":964,"x_min":97,"x_max":918,"o":"m 289 800 l 290 488 q 475 515 397 488 q 589 581 553 542 q 642 665 625 621 q 653 746 658 710 q 633 799 649 782 q 549 834 607 826 q 426 831 492 842 q 289 800 361 821 m 290 418 l 292 72 q 654 157 539 47 q 708 319 729 229 q 639 418 694 381 q 290 418 496 357 m 292 -1 l 97 42 l 97 929 q 377 964 213 961 q 575 942 542 967 q 691 844 618 914 q 806 726 764 775 q 824 654 824 697 q 793 555 824 611 q 711 460 763 499 q 894 314 824 394 q 913 235 918 286 q 869 128 907 183 q 756 29 832 72 q 566 -26 681 -14 q 292 -1 451 -37 z "},"C":{"ha":981,"x_min":68,"x_max":979,"o":"m 881 732 q 678 831 771 790 q 520 824 604 863 q 378 700 436 785 q 288 515 319 615 q 285 313 256 415 q 410 147 315 210 q 515 108 460 114 q 624 124 569 103 q 719 169 678 144 q 811 232 761 194 l 979 108 q 820 8 906 46 q 638 -36 735 -29 q 460 7 542 -43 q 196 203 322 88 q 108 319 139 256 q 72 445 76 382 q 81 575 68 508 q 126 700 93 642 q 199 811 158 758 q 293 901 240 864 q 400 962 346 938 q 512 985 454 986 q 621 963 569 983 q 949 807 829 867 l 881 732 z "},"D":{"ha":1064,"x_min":97,"x_max":999,"o":"m 292 1 l 290 1 l 97 42 l 97 925 l 99 924 l 99 925 q 344 947 158 944 q 586 921 531 950 q 968 549 732 819 q 990 485 982 532 q 990 371 999 438 q 957 236 982 304 q 869 104 932 168 q 717 6 807 40 q 515 -23 633 -24 q 292 1 397 -22 m 711 703 q 609 765 663 743 q 494 791 556 788 q 393 792 432 794 q 289 781 354 789 l 292 85 q 475 99 388 72 q 625 181 563 126 q 731 306 688 235 q 787 450 774 378 q 782 590 800 522 q 711 703 764 658 z "},"E":{"ha":878,"x_min":97,"x_max":857,"o":"m 278 0 l 275 3 l 97 40 l 97 926 l 690 926 l 801 801 l 289 801 l 289 535 l 635 535 l 746 410 l 290 410 l 290 125 l 746 125 l 857 0 l 278 0 z "},"F":{"ha":808,"x_min":97,"x_max":801,"o":"m 746 368 l 290 368 l 292 -40 l 97 0 l 97 925 l 99 924 l 97 926 l 690 926 l 801 801 l 289 801 l 289 493 l 635 493 l 746 368 z "},"G":{"ha":1129,"x_min":67,"x_max":1150,"o":"m 625 344 l 514 469 l 838 469 l 1029 413 q 1032 65 1032 106 q 1055 -89 1032 -44 q 1150 -154 1078 -133 q 960 -123 1050 -181 q 864 42 871 -65 l 860 104 q 769 34 810 61 q 677 -14 729 7 q 570 -30 625 -35 q 458 7 515 -25 q 221 167 294 100 q 119 296 157 226 q 74 432 82 365 q 77 568 67 499 q 119 697 88 638 q 193 811 151 757 q 288 901 235 865 q 397 962 342 938 q 510 985 451 986 q 619 963 568 983 q 943 811 868 849 l 883 738 q 688 817 863 747 q 574 831 626 842 q 470 788 521 819 q 383 704 419 757 q 319 592 347 651 q 284 467 292 533 q 284 340 276 400 q 325 228 292 281 q 414 143 358 175 q 510 115 461 115 q 603 135 560 115 q 687 189 646 156 q 763 258 728 222 q 828 328 797 294 q 842 344 838 339 l 625 344 z "},"H":{"ha":1031,"x_min":97,"x_max":933,"o":"m 289 869 l 290 481 l 739 506 l 739 925 l 933 869 l 933 -40 l 739 0 l 739 388 l 290 363 l 292 -40 l 97 0 l 97 925 l 289 869 z "},"I":{"ha":403,"x_min":97,"x_max":306,"o":"m 303 868 l 306 -40 l 97 0 l 97 925 l 303 868 z "},"J":{"ha":490,"x_min":-243,"x_max":393,"o":"m 393 869 l 393 21 q 350 -97 393 -31 q 225 -215 307 -162 q 53 -267 143 -267 q -243 -146 -101 -267 l -208 -121 q -46 -154 -118 -153 q 72 -134 26 -156 q 147 -72 117 -112 q 188 16 176 -31 q 200 115 200 63 l 200 926 l 393 869 z "},"K":{"ha":944,"x_min":97,"x_max":931,"o":"m 293 868 l 294 425 l 690 925 l 871 885 l 567 501 l 931 -40 l 750 0 l 486 400 l 294 160 l 296 -40 l 101 0 l 101 175 l 97 176 l 101 182 l 101 925 l 293 868 z "},"L":{"ha":843,"x_min":97,"x_max":829,"o":"m 289 869 l 290 125 l 718 125 l 829 0 l 292 0 l 97 40 l 97 926 l 289 869 z "},"M":{"ha":1210,"x_min":97,"x_max":1113,"o":"m 289 869 l 581 163 l 918 925 l 1110 869 l 1113 -40 l 918 0 l 918 468 l 689 -40 l 508 0 l 510 3 l 508 1 l 289 547 l 292 -40 l 97 0 l 97 925 l 289 869 z "},"N":{"ha":1031,"x_min":97,"x_max":933,"o":"m 933 869 l 933 -40 l 739 0 l 289 636 l 292 -40 l 97 0 l 97 925 l 289 869 l 739 240 l 739 925 l 933 869 z "},"O":{"ha":1115,"x_min":68,"x_max":1046,"o":"m 724 794 q 449 785 585 886 q 289 544 339 701 q 300 243 235 369 q 394 142 332 179 q 669 161 535 57 q 826 404 779 246 q 807 704 878 579 q 724 794 776 760 m 940 726 q 1019 605 993 675 q 1045 462 1046 535 q 1022 314 1044 389 q 959 174 999 239 q 864 59 919 110 q 744 -18 808 8 q 606 -40 681 -44 q 458 6 531 -36 q 419 28 447 13 q 378 49 390 43 q 343 70 367 56 q 303 97 319 85 q 265 126 288 108 q 218 164 242 143 q 168 211 194 185 q 92 328 117 260 q 70 468 68 396 q 94 615 72 540 q 156 755 117 689 q 250 873 196 821 q 365 955 304 925 q 494 985 425 985 q 631 949 564 985 q 940 726 811 851 z "},"P":{"ha":901,"x_min":97,"x_max":851,"o":"m 97 0 l 97 929 q 380 975 224 964 q 576 958 536 986 q 707 832 618 921 q 831 703 796 743 q 842 619 851 678 q 793 495 832 560 q 685 376 754 431 q 517 303 615 321 q 290 324 418 286 l 292 -40 l 97 0 m 636 803 q 289 832 563 885 l 290 389 q 468 409 390 378 q 586 494 546 440 q 647 610 626 549 q 663 725 667 672 q 636 803 658 778 z "},"Q":{"ha":1115,"x_min":68,"x_max":1054,"o":"m 940 726 q 1040 517 1025 643 q 1010 276 1054 390 q 874 71 965 161 q 674 -36 783 -19 q 671 -78 671 -64 q 669 -110 671 -89 q 681 -278 661 -236 q 800 -328 708 -335 q 660 -340 725 -356 q 553 -268 596 -324 q 513 -140 511 -212 q 519 -22 513 -87 q 458 6 496 -14 q 419 28 447 13 q 378 49 390 43 q 343 70 367 56 q 303 97 319 85 q 265 126 288 108 q 218 164 242 143 q 168 211 194 185 q 92 328 117 260 q 70 468 68 396 q 94 615 72 540 q 156 755 117 689 q 250 873 196 821 q 365 955 304 925 q 494 985 425 985 q 631 949 564 985 q 940 726 811 851 m 724 794 q 520 823 615 860 q 357 686 425 786 q 271 465 289 586 q 400 497 369 499 q 465 467 422 496 q 544 407 508 438 q 623 338 581 376 q 672 294 665 300 q 694 182 697 274 q 818 376 776 258 q 838 613 860 494 q 724 794 817 732 m 481 354 q 422 374 456 369 q 345 361 388 378 q 276 301 303 344 q 394 142 307 193 q 531 106 461 101 q 528 267 538 207 q 481 354 519 328 z "},"R":{"ha":943,"x_min":97,"x_max":954,"o":"m 663 289 q 599 357 650 313 q 290 346 464 307 l 292 -40 l 97 0 l 97 929 q 380 975 224 964 q 576 958 536 986 q 707 832 618 921 q 831 703 796 743 q 823 558 867 658 q 674 393 779 458 q 833 317 821 331 q 859 256 851 290 q 867 199 867 222 q 864 132 867 175 q 861 74 861 89 q 859 31 861 60 q 857 -11 857 3 q 861 -47 857 -25 q 875 -81 865 -68 q 904 -107 885 -93 q 954 -131 924 -121 q 772 -95 844 -153 q 692 74 699 -37 q 690 125 692 82 q 685 188 688 168 q 678 238 683 207 q 663 289 672 269 m 639 801 q 289 824 557 879 l 290 435 q 466 463 388 433 q 586 540 544 493 q 650 638 628 586 q 668 733 672 689 q 639 801 664 778 z "},"S":{"ha":1008,"x_min":49,"x_max":979,"o":"m 811 732 q 698 768 753 754 q 574 784 643 782 q 453 767 506 786 q 357 692 400 747 q 300 549 314 638 q 406 540 297 533 q 617 554 514 546 q 758 542 719 563 q 951 315 896 419 q 928 171 979 265 q 739 -3 863 53 q 261 71 521 -103 q 49 258 156 142 l 90 279 q 220 213 171 236 q 344 165 269 189 q 476 139 419 140 q 693 203 608 136 q 789 386 778 271 q 689 383 790 399 q 485 354 588 367 q 329 374 382 342 q 156 549 274 418 q 117 647 118 594 q 151 754 115 700 q 240 851 188 808 q 365 922 293 894 q 507 950 436 950 q 575 927 525 950 q 713 858 625 904 q 829 799 801 813 l 811 732 z "},"T":{"ha":899,"x_min":0,"x_max":899,"o":"m 111 801 l 0 926 l 788 926 l 899 801 l 564 801 l 567 -40 l 372 0 l 372 801 l 111 801 z "},"U":{"ha":1001,"x_min":90,"x_max":904,"o":"m 711 926 l 904 869 l 904 219 q 782 49 904 140 q 522 -42 660 -42 q 319 42 440 -42 q 97 238 199 125 q 94 260 96 239 q 92 314 93 281 q 91 392 92 347 q 90 485 90 436 q 90 585 90 533 q 91 685 90 638 q 92 778 92 733 q 92 854 92 822 q 93 906 93 886 l 93 926 q 141 911 93 925 q 236 883 189 897 l 285 869 q 286 164 279 172 q 433 101 343 103 q 601 147 522 99 q 711 272 681 196 l 711 926 z "},"V":{"ha":899,"x_min":0,"x_max":913,"o":"m 371 17 l 372 19 l 0 925 l 193 885 l 451 238 l 704 925 l 913 885 l 576 -40 l 371 17 z "},"W":{"ha":1539,"x_min":0,"x_max":1576,"o":"m 371 17 l 372 19 l 0 925 l 193 885 l 449 246 l 676 925 l 885 885 l 1140 246 l 1368 925 l 1576 885 l 1268 -40 l 1063 17 l 1064 19 l 804 646 l 576 -40 l 371 17 z "},"X":{"ha":986,"x_min":42,"x_max":958,"o":"m 246 886 l 478 585 l 732 925 l 926 885 l 592 436 l 958 -40 l 764 0 l 513 331 l 235 -40 l 42 0 l 399 479 l 58 926 l 246 886 z "},"Y":{"ha":821,"x_min":0,"x_max":833,"o":"m 174 886 l 413 510 l 640 925 l 833 885 l 533 339 l 536 -40 l 342 0 l 342 382 l 0 926 l 174 886 z "},"Z":{"ha":1160,"x_min":72,"x_max":1081,"o":"m 183 801 l 72 926 l 906 926 l 1017 801 l 381 125 l 969 125 l 1081 0 l 225 0 l 115 122 l 113 124 l 114 125 l 738 801 l 183 801 z "},"[":{"ha":643,"x_min":118,"x_max":558,"o":"m 229 0 l 118 125 l 118 983 l 119 982 l 118 985 l 392 985 l 503 860 l 296 860 l 299 125 l 447 125 l 558 0 l 229 0 z "},"\\":{"ha":833,"x_min":126,"x_max":732,"o":"m 307 931 l 732 -40 l 551 0 l 126 986 l 307 931 z "},"]":{"ha":724,"x_min":118,"x_max":558,"o":"m 447 985 l 558 860 l 558 1 l 557 1 l 558 0 l 285 0 l 174 125 l 381 125 l 378 860 l 229 860 l 118 985 l 447 985 z "},"^":{"ha":586,"x_min":36,"x_max":590,"o":"m 36 956 l 333 1240 l 590 901 l 544 846 l 364 1108 l 143 847 l 36 956 z "},"_":{"ha":860,"x_min":47,"x_max":829,"o":"m 89 0 l 47 101 l 788 101 l 829 0 l 89 0 z "},"`":{"ha":469,"x_min":207,"x_max":506,"o":"m 506 821 l 474 764 q 225 939 363 822 q 251 1013 207 953 q 314 1069 296 1072 q 417 935 351 1017 q 506 821 483 853 z "},"a":{"ha":772,"x_min":63,"x_max":694,"o":"m 147 488 l 72 614 q 288 661 169 639 q 438 682 407 683 q 560 591 468 681 q 683 454 651 501 q 694 342 694 438 q 691 125 694 247 q 689 -40 688 3 l 517 0 l 518 71 q 335 -42 406 -42 q 165 85 268 -40 q 63 264 63 210 q 121 343 63 307 q 263 399 179 379 q 413 431 347 419 q 524 446 478 442 l 525 483 q 454 556 526 550 q 174 496 388 560 l 172 496 l 171 494 l 169 494 l 168 494 l 167 493 l 165 493 l 164 493 l 163 492 l 161 492 l 160 492 l 158 490 l 157 490 l 156 490 l 154 490 l 153 489 l 151 489 l 150 489 l 149 488 l 147 488 m 217 139 q 264 114 229 119 q 369 133 299 108 q 521 218 439 157 l 522 340 q 217 139 156 233 z "},"b":{"ha":844,"x_min":88,"x_max":789,"o":"m 261 344 l 261 58 q 547 168 442 26 q 622 394 624 268 q 558 538 621 507 q 321 417 469 583 q 261 344 292 385 m 261 946 l 261 594 q 380 671 332 658 q 503 656 428 683 q 696 522 590 621 q 769 406 750 472 q 776 274 789 339 q 727 145 764 208 q 639 37 690 82 q 522 -31 588 -8 q 394 -40 457 -53 q 88 72 217 -6 l 88 985 l 261 946 z "},"c":{"ha":743,"x_min":58,"x_max":706,"o":"m 663 569 l 613 497 q 564 515 592 504 q 521 530 536 525 q 488 540 506 535 q 458 548 469 546 q 436 550 446 550 q 283 433 346 546 q 238 215 224 325 q 335 93 250 106 q 599 207 433 79 l 625 176 q 679 114 653 146 l 706 83 q 610 18 651 43 q 526 -23 569 -7 q 442 -38 483 -39 q 358 -21 401 -37 q 133 140 239 25 q 65 305 71 210 q 98 482 58 400 q 215 622 138 564 q 385 679 293 679 q 663 569 428 679 z "},"d":{"ha":815,"x_min":61,"x_max":732,"o":"m 285 71 q 550 125 394 15 l 550 515 q 438 547 510 539 q 326 490 381 553 q 244 343 272 426 q 224 178 217 260 q 285 71 232 97 m 550 986 l 724 947 q 724 1 732 10 q 652 -15 717 0 q 569 -32 588 -29 q 495 -40 551 -35 q 406 -40 439 -46 q 325 -22 374 -35 q 232 17 276 -8 q 110 122 153 60 q 64 250 67 185 q 79 383 61 315 q 137 506 97 450 q 222 606 176 563 q 317 667 267 649 q 406 674 367 686 q 444 658 424 668 q 477 639 464 647 q 515 614 490 631 q 550 590 539 597 l 550 986 z "},"e":{"ha":768,"x_min":57,"x_max":733,"o":"m 229 276 l 544 492 q 374 539 444 556 q 267 452 304 522 q 229 276 229 382 m 261 143 q 349 85 300 96 q 451 98 397 74 q 540 147 504 122 q 625 211 576 171 l 653 183 q 706 125 679 154 l 733 97 q 529 -22 613 8 q 364 -21 446 -51 q 139 140 244 25 q 67 305 76 210 q 91 482 57 400 q 197 622 125 564 q 353 679 268 679 q 517 608 408 679 q 699 468 626 536 q 588 383 697 464 q 369 222 479 301 l 261 143 z "},"f":{"ha":553,"x_min":32,"x_max":628,"o":"m 74 567 l 32 664 l 176 664 l 176 785 q 231 883 176 826 q 359 970 286 939 q 474 978 432 1001 q 628 868 557 932 l 597 831 q 478 872 526 869 q 401 839 431 874 q 358 760 371 804 q 344 664 346 717 l 486 664 l 528 567 l 344 567 l 351 -40 l 178 -1 q 176 567 176 244 l 74 567 z "},"g":{"ha":824,"x_min":76,"x_max":803,"o":"m 242 26 q 438 48 250 8 q 639 75 626 88 q 717 -47 699 17 q 713 -164 735 -111 q 647 -260 690 -217 q 543 -329 604 -304 q 419 -354 482 -354 q 208 -292 314 -354 q 79 -186 101 -231 q 81 -174 76 -182 q 96 -156 85 -167 q 120 -132 107 -144 q 156 -98 133 -119 q 197 -57 178 -76 q 89 113 182 -35 q 85 128 86 122 q 92 138 83 133 q 111 147 101 143 q 140 154 121 150 q 176 161 158 158 q 219 170 193 164 q 267 183 244 176 q 171 260 242 199 q 106 338 128 296 q 83 419 83 381 q 96 496 83 457 q 135 565 108 535 q 191 622 161 596 q 256 662 221 649 q 322 679 292 675 q 381 669 353 683 q 514 600 475 624 l 761 600 l 803 503 l 614 503 q 389 79 778 213 q 307 54 358 69 q 242 26 242 33 m 461 542 q 331 528 403 585 q 245 388 260 471 q 290 249 231 304 q 422 263 347 210 q 512 397 496 317 q 461 542 528 476 m 242 -117 l 235 -110 l 172 -186 q 373 -218 274 -231 q 545 -156 472 -206 q 617 -53 618 -107 q 535 -73 617 -43 q 371 -125 454 -103 q 242 -117 288 -147 z "},"h":{"ha":829,"x_min":88,"x_max":765,"o":"m 261 947 l 261 561 q 485 678 390 685 q 641 567 529 675 q 760 421 753 460 q 765 -40 765 385 l 593 -1 q 586 503 601 475 q 501 531 560 551 q 378 459 442 511 q 261 342 315 407 l 261 -40 l 88 -1 l 88 986 l 261 947 z "},"i":{"ha":383,"x_min":88,"x_max":296,"o":"m 193 749 q 88 850 122 782 q 129 907 90 872 q 192 947 168 942 q 296 849 263 915 q 193 749 272 789 m 276 625 l 276 -40 l 103 -1 l 103 664 l 276 625 z "},"j":{"ha":350,"x_min":-244,"x_max":286,"o":"m 183 749 q 78 850 113 782 q 119 907 81 872 q 182 947 158 942 q 286 849 253 915 q 183 749 263 789 m 268 625 l 268 -104 q 217 -201 268 -146 q 94 -294 165 -257 q -24 -322 24 -332 q -244 -233 -57 -315 l -219 -183 q -77 -218 -136 -221 q 20 -179 -18 -215 q 76 -99 58 -143 q 93 -11 93 -56 l 94 664 l 268 625 z "},"k":{"ha":785,"x_min":88,"x_max":722,"o":"m 261 947 l 261 418 l 524 665 l 683 626 l 429 388 l 722 22 l 625 -42 l 354 317 l 261 229 l 261 -40 l 88 -1 l 88 986 l 261 947 z "},"l":{"ha":335,"x_min":88,"x_max":261,"o":"m 261 947 l 261 -40 l 88 -1 l 88 986 l 261 947 z "},"m":{"ha":1229,"x_min":88,"x_max":1165,"o":"m 261 625 l 261 588 q 443 678 360 683 q 529 628 469 676 q 643 522 589 581 q 885 678 774 685 q 1041 567 929 675 q 1160 421 1153 460 q 1165 -40 1165 385 l 993 -1 q 986 504 1001 476 q 938 536 969 535 q 870 515 907 538 q 796 459 833 493 q 721 382 758 425 q 724 -40 724 306 l 551 -1 q 544 504 560 476 q 492 536 524 535 q 419 510 461 538 q 338 445 378 483 q 261 360 299 407 l 261 -40 l 88 -1 l 88 664 l 261 625 z "},"n":{"ha":829,"x_min":88,"x_max":765,"o":"m 268 625 l 268 568 q 485 678 392 683 q 641 567 529 675 q 760 421 753 460 q 765 -40 765 385 l 593 -1 q 586 503 601 475 q 503 531 561 550 q 384 464 446 513 q 268 350 322 415 l 268 -40 l 88 -1 l 88 664 l 268 625 z "},"o":{"ha":819,"x_min":61,"x_max":760,"o":"m 529 524 q 339 504 438 586 q 229 319 257 435 q 276 121 199 188 q 297 106 286 113 q 412 92 353 75 q 515 165 471 108 q 583 287 558 222 q 596 419 608 351 q 529 524 583 486 m 668 513 q 731 426 708 476 q 756 322 753 375 q 747 215 760 269 q 707 114 733 161 q 641 30 681 67 q 554 -26 601 -7 q 449 -40 507 -44 q 332 -4 392 -36 q 179 101 254 38 q 90 217 119 153 q 63 343 61 282 q 87 465 65 404 q 149 571 108 526 q 239 647 190 615 q 344 679 288 678 q 453 656 400 681 q 668 513 588 585 z "},"p":{"ha":803,"x_min":68,"x_max":743,"o":"m 492 174 q 549 277 528 222 q 573 381 571 332 q 565 473 575 429 q 525 544 554 517 q 458 581 496 571 q 364 572 419 590 q 246 508 308 554 l 243 115 q 307 93 268 99 q 399 106 346 88 q 492 174 453 124 m 399 -35 q 318 0 367 -26 q 246 43 269 26 l 246 -353 l 72 -314 q 72 629 68 610 q 212 665 160 654 q 331 678 264 675 q 458 662 397 682 q 582 600 518 642 q 704 469 665 544 q 738 320 743 393 q 701 176 733 247 q 618 53 668 104 q 509 -22 568 3 q 399 -35 450 -47 z "},"q":{"ha":839,"x_min":44,"x_max":749,"o":"m 575 279 l 575 524 q 274 460 378 585 q 206 250 200 372 q 275 103 211 140 q 500 190 364 50 q 575 279 538 229 m 575 -308 l 575 43 q 456 -33 504 -21 q 333 -18 408 -46 q 140 115 246 17 q 60 260 76 174 q 75 425 44 346 q 158 569 106 504 q 288 663 211 635 q 435 663 364 690 q 749 510 599 600 l 749 -347 l 575 -308 z "},"r":{"ha":685,"x_min":89,"x_max":689,"o":"m 263 625 l 263 522 q 435 682 364 682 q 551 647 469 682 q 689 574 633 611 l 593 435 q 444 505 507 499 q 343 480 381 511 q 263 379 306 449 l 263 -40 l 89 -1 l 89 664 l 263 625 z "},"s":{"ha":722,"x_min":28,"x_max":703,"o":"m 578 618 l 563 543 q 385 568 428 574 q 278 502 317 560 q 250 392 239 444 q 314 394 253 379 q 447 426 375 410 q 540 431 519 442 q 669 299 636 381 q 677 142 703 217 q 572 14 651 68 q 382 -40 493 -40 q 212 10 290 -40 q 28 163 133 61 l 53 210 q 253 115 147 139 q 449 133 358 90 q 571 292 540 176 q 558 296 572 297 q 482 278 543 294 q 236 247 289 226 l 224 254 q 100 382 147 313 q 72 482 65 429 q 107 578 78 535 q 194 651 136 622 q 322 679 253 679 q 381 671 343 679 q 490 642 419 663 q 578 618 560 622 z "},"t":{"ha":588,"x_min":14,"x_max":560,"o":"m 56 567 l 14 664 l 128 664 l 128 814 l 299 775 l 299 664 l 468 664 l 510 567 l 299 567 l 299 390 q 299 344 299 375 q 298 269 299 307 q 302 199 297 232 q 314 138 307 165 q 338 93 321 110 q 378 71 354 76 q 438 78 401 65 q 522 122 475 92 l 560 79 q 425 -24 479 6 q 310 -16 383 -47 q 183 72 238 15 q 128 169 128 128 l 128 567 l 56 567 z "},"u":{"ha":815,"x_min":64,"x_max":728,"o":"m 554 663 l 728 624 l 728 -42 l 554 -3 l 554 67 q 349 -40 443 -47 q 190 63 304 -37 q 69 201 76 163 q 64 663 64 238 l 236 624 q 243 117 229 146 q 327 92 271 78 q 452 171 383 106 q 554 314 521 236 l 554 663 z "},"v":{"ha":719,"x_min":11,"x_max":719,"o":"m 185 625 l 363 193 l 546 664 l 719 625 l 461 -40 l 460 -40 l 288 -1 l 286 -1 l 11 664 l 185 625 z "},"w":{"ha":1207,"x_min":11,"x_max":1199,"o":"m 185 625 l 358 204 l 518 664 l 692 625 l 865 204 l 1025 664 l 1199 625 l 968 -40 l 967 -40 l 793 -1 l 619 417 l 461 -40 l 460 -40 l 288 -1 l 286 -1 l 11 664 l 185 625 z "},"x":{"ha":696,"x_min":32,"x_max":692,"o":"m 206 625 l 336 444 l 483 664 l 657 625 l 440 303 l 692 -40 l 518 -1 l 371 199 l 211 -40 l 38 -1 l 267 342 l 32 664 l 206 625 z "},"y":{"ha":769,"x_min":81,"x_max":686,"o":"m 513 664 l 686 625 l 686 -86 q 615 -239 686 -168 q 459 -340 544 -310 q 326 -349 374 -369 q 272 -319 308 -340 q 180 -266 235 -299 q 97 -217 125 -233 l 133 -162 q 244 -225 217 -211 q 429 -220 346 -275 q 513 -4 513 -165 l 513 47 q 339 -40 414 -46 q 195 62 294 -37 q 89 201 96 161 q 81 667 81 257 l 253 628 q 263 121 244 147 q 380 117 304 71 q 513 261 456 164 l 513 664 z "},"z":{"ha":679,"x_min":14,"x_max":665,"o":"m 621 561 l 385 261 l 560 178 q 649 72 632 142 q 632 -73 665 1 q 542 -214 599 -147 q 410 -318 486 -281 q 267 -344 333 -356 q 149 -290 224 -337 q 17 -185 74 -242 l 49 -151 q 126 -196 94 -182 q 276 -208 210 -225 q 386 -138 342 -190 q 453 -27 431 -86 q 473 86 476 32 q 438 163 469 140 q 204 269 386 197 l 203 269 l 193 274 l 418 563 l 56 563 l 14 664 l 579 664 l 621 563 l 614 563 l 621 561 z "},"{":{"ha":685,"x_min":104,"x_max":613,"o":"m 546 -21 l 613 -78 q 562 -99 593 -86 q 468 -127 531 -111 q 383 -132 406 -143 q 211 -11 292 -85 q 197 78 194 4 q 207 233 199 153 q 207 392 215 314 q 153 467 203 419 q 104 515 104 514 q 129 540 104 519 q 181 592 154 561 q 207 653 207 624 q 225 944 207 797 q 260 1101 243 1090 q 354 1144 296 1125 q 453 1169 413 1163 l 493 1176 l 596 1060 q 444 1006 513 1039 q 412 981 425 997 q 390 935 399 964 q 376 883 382 906 q 369 817 371 861 q 367 752 368 774 q 367 678 367 731 q 368 610 368 626 q 345 558 368 579 q 298 528 322 538 q 274 515 274 518 q 297 503 274 514 q 344 472 319 493 q 368 421 368 450 q 362 265 368 390 q 360 73 356 140 q 390 -14 365 6 q 457 -37 418 -36 q 521 -31 496 -39 l 546 -21 z "},"|":{"ha":382,"x_min":106,"x_max":278,"o":"m 278 988 l 278 -153 l 106 -75 l 106 1065 l 278 988 z "},"}":{"ha":869,"x_min":103,"x_max":611,"o":"m 169 1040 l 103 1097 q 153 1118 122 1106 q 247 1147 185 1131 q 332 1151 310 1163 q 504 1031 424 1104 q 519 941 521 1015 q 508 786 517 867 q 508 628 500 706 q 562 553 513 600 q 611 504 611 506 q 586 479 611 500 q 535 427 561 458 q 508 367 508 396 q 490 76 508 222 q 456 -82 472 -71 q 361 -124 419 -106 q 263 -150 303 -143 l 222 -157 l 119 -40 q 271 14 203 -19 q 303 39 290 22 q 325 85 317 56 q 339 136 333 114 q 346 202 344 158 q 348 267 347 246 q 348 341 349 289 q 347 410 347 393 q 370 461 347 440 q 417 492 393 482 q 442 504 442 501 q 419 516 442 506 q 372 548 396 526 q 347 599 347 569 q 353 754 347 629 q 355 947 360 879 q 325 1033 350 1014 q 258 1057 297 1056 q 194 1050 219 1058 l 169 1040 z "},"~":{"ha":814,"x_min":46,"x_max":775,"o":"m 282 615 q 352 567 311 615 q 426 472 393 519 q 471 425 460 425 q 542 463 492 425 q 633 539 593 500 l 672 576 l 775 450 q 723 406 754 432 q 624 335 692 379 q 525 290 556 290 q 458 333 500 290 q 383 419 417 376 q 340 461 349 461 q 277 427 321 461 q 199 358 233 393 l 164 325 l 46 450 q 282 615 238 615 z "}," ":{"ha":0,"x_min":0,"x_max":0,"o":""},"¡":{"ha":590,"x_min":226,"x_max":435,"o":"m 329 756 q 435 654 400 722 q 393 597 432 632 q 331 557 354 563 q 226 656 260 589 q 329 756 250 715 m 228 -222 l 272 482 l 396 456 l 403 -261 l 228 -222 z "},"¢":{"ha":757,"x_min":58,"x_max":672,"o":"m 669 506 l 624 440 q 601 457 617 446 q 432 563 464 558 q 426 563 429 563 q 317 504 372 561 q 232 373 263 447 q 217 217 201 299 q 307 89 232 135 q 428 99 353 61 q 568 207 504 138 l 594 181 q 647 125 621 153 l 672 97 q 601 38 629 60 q 541 -5 574 15 q 482 -31 508 -25 q 424 -35 456 -37 q 358 -21 393 -33 q 317 -1 322 -6 l 235 -207 l 138 -104 l 211 67 q 133 140 169 100 q 65 305 71 210 q 98 482 58 400 q 215 622 138 564 q 385 679 293 679 q 461 646 401 679 l 553 868 l 644 769 l 569 581 q 669 506 621 549 z "},"£":{"ha":1003,"x_min":72,"x_max":968,"o":"m 454 1 q 380 -34 451 1 q 271 -67 308 -69 q 145 -10 218 -64 q 72 88 72 44 q 122 163 72 104 q 183 213 172 222 q 289 128 229 169 l 331 383 q 244 390 294 385 l 194 479 q 343 460 263 464 l 360 565 q 434 727 374 649 q 557 843 494 806 q 646 865 619 881 q 731 802 688 839 q 815 725 774 765 q 863 679 857 685 q 885 609 886 651 q 848 513 883 567 q 756 421 813 458 q 515 375 689 375 l 461 47 q 814 93 640 -1 l 968 7 q 813 -60 869 -42 q 697 -78 756 -78 q 583 -46 675 -78 q 454 1 490 -14 m 539 515 l 531 468 q 672 515 626 482 q 740 592 718 547 q 761 674 763 638 q 740 726 760 710 q 625 701 692 768 q 539 515 558 635 z "},"¤":{"ha":833,"x_min":79,"x_max":772,"o":"m 86 163 l 229 297 q 178 394 189 340 q 180 497 167 447 q 224 589 193 546 l 79 717 l 129 768 l 264 633 q 461 672 365 719 q 522 639 511 646 l 679 786 l 772 710 l 626 565 q 677 410 685 501 q 608 251 669 319 l 740 136 l 694 81 l 565 213 q 365 203 471 149 q 326 224 344 213 l 183 82 l 86 163 m 503 572 q 376 553 442 613 q 303 412 310 493 q 356 282 296 331 q 485 301 421 243 q 555 440 549 360 q 503 572 561 521 z "},"¥":{"ha":854,"x_min":0,"x_max":821,"o":"m 174 886 l 413 510 l 640 925 l 821 885 l 572 433 l 703 433 l 744 332 l 519 332 l 519 253 l 717 253 l 758 151 l 521 151 l 522 -40 l 342 0 l 342 151 l 171 151 l 129 253 l 342 253 l 342 332 l 157 332 l 115 433 l 308 433 l 0 926 l 174 886 z "},"¦":{"ha":382,"x_min":106,"x_max":278,"o":"m 278 342 l 278 -153 l 106 -75 l 106 419 l 278 342 m 278 988 l 278 493 l 106 571 l 106 1065 l 278 988 z "},"§":{"ha":735,"x_min":163,"x_max":686,"o":"m 356 282 q 485 301 421 243 q 555 440 549 360 q 503 572 561 521 q 376 553 442 613 q 303 412 310 493 q 356 282 296 331 m 475 664 l 476 664 q 618 574 563 619 q 676 469 665 533 q 665 344 686 404 q 594 238 643 285 q 485 181 546 190 q 594 90 586 117 q 600 36 599 67 q 584 -28 601 6 q 542 -88 567 -61 q 469 -131 517 -115 q 360 -144 421 -147 q 299 -119 343 -143 q 213 -60 254 -94 l 236 -28 q 378 -44 308 -78 q 449 61 449 -10 q 367 201 449 132 l 365 203 q 254 275 308 232 q 178 391 194 324 q 185 517 163 458 q 253 622 207 575 q 354 683 299 669 q 218 792 228 761 q 213 846 214 815 q 228 910 211 876 q 271 970 246 943 q 344 1013 296 997 q 453 1026 392 1029 q 590 933 482 1024 l 558 894 q 404 911 481 949 q 336 821 342 882 q 446 678 333 739 l 461 672 l 475 664 z "},"¨":{"ha":474,"x_min":25,"x_max":450,"o":"m 361 767 q 271 854 303 793 q 306 904 272 874 q 361 939 340 935 q 450 853 425 910 q 361 767 432 803 m 115 767 q 25 854 57 793 q 60 904 26 874 q 115 939 94 935 q 204 853 179 910 q 115 767 186 803 z "},"©":{"ha":1225,"x_min":107,"x_max":1122,"o":"m 821 814 q 582 873 697 886 q 391 769 467 860 q 279 572 315 679 q 279 352 243 465 q 424 176 315 239 q 570 128 496 135 q 706 146 644 122 q 821 215 768 169 q 909 319 874 260 q 960 448 944 379 q 969 582 976 517 q 924 709 963 647 q 821 814 886 771 m 1008 760 q 1094 644 1065 711 q 1122 506 1122 576 q 1097 364 1121 436 q 1031 229 1074 292 q 928 118 988 167 q 800 44 868 69 q 651 22 732 18 q 492 65 571 26 q 358 138 403 108 q 217 250 314 167 q 134 362 161 297 q 108 495 107 426 q 132 635 110 564 q 194 770 154 707 q 292 883 235 833 q 413 962 349 933 q 551 990 476 990 q 696 956 625 990 q 871 863 804 904 q 1008 760 938 821 m 794 654 l 764 608 q 631 650 647 650 q 555 609 593 649 q 496 518 517 569 q 485 410 475 467 q 547 321 496 353 q 638 327 578 301 q 754 396 699 353 l 772 376 q 808 336 790 357 l 825 317 q 740 259 775 278 q 662 233 704 240 q 583 244 619 226 q 428 356 501 274 q 379 470 383 404 q 403 593 375 536 q 485 690 431 650 q 601 731 539 731 q 794 654 635 731 z "},"ª":{"ha":621,"x_min":115,"x_max":561,"o":"m 243 631 q 348 672 281 608 q 424 789 415 736 q 415 903 442 883 q 360 900 394 918 q 297 845 326 882 q 242 765 267 808 q 218 685 218 721 q 243 631 218 649 m 553 539 l 431 563 q 417 610 421 581 q 376 567 394 581 q 328 548 358 553 q 261 564 297 543 q 143 649 186 600 q 118 733 115 681 q 149 836 121 786 q 222 928 178 886 q 319 979 265 969 q 428 961 374 989 q 451 949 436 957 q 474 935 465 940 q 494 923 482 931 q 516 906 506 915 q 538 886 526 897 q 536 664 561 860 q 538 593 533 633 q 553 539 543 553 z "},"«":{"ha":938,"x_min":14,"x_max":854,"o":"m 425 396 l 726 679 l 854 585 l 601 364 l 844 165 l 779 93 l 425 396 m 14 396 l 315 679 l 443 585 l 190 364 l 433 165 l 368 93 l 14 396 z "},"¬":{"ha":786,"x_min":42,"x_max":714,"o":"m 85 385 l 42 497 l 671 497 l 714 385 l 578 163 l 433 217 l 531 385 l 85 385 z "},"­":{"ha":658,"x_min":42,"x_max":617,"o":"m 85 385 l 42 497 l 574 497 l 617 385 l 85 385 z "},"®":{"ha":633,"x_min":14,"x_max":606,"o":"m 533 867 q 595 758 585 824 q 578 634 606 693 q 501 526 551 575 q 383 466 451 476 q 240 488 314 456 q 165 526 190 510 q 82 588 139 542 q 24 692 33 628 q 40 815 14 757 q 114 924 67 874 q 226 989 161 975 q 357 976 290 1003 q 533 867 468 924 m 428 899 q 301 925 364 935 q 197 865 239 915 q 133 758 154 815 q 129 639 113 700 q 201 546 146 578 q 322 527 263 515 q 424 587 382 539 q 489 691 467 635 q 497 806 511 747 q 428 899 482 865 m 364 626 l 333 682 q 260 685 297 678 l 260 603 l 193 619 l 193 832 q 281 847 232 843 q 342 843 329 851 q 363 826 343 842 q 399 798 383 811 q 419 776 414 785 q 420 742 431 767 q 383 701 410 718 l 432 613 l 364 626 m 357 794 q 260 794 335 813 l 260 713 q 333 726 304 710 q 363 762 361 742 q 357 794 365 782 z "},"¯":{"ha":524,"x_min":50,"x_max":485,"o":"m 81 754 l 50 835 l 453 835 l 485 754 l 81 754 z "},"°":{"ha":643,"x_min":168,"x_max":632,"o":"m 468 885 q 355 868 413 921 q 291 743 297 815 q 338 626 285 671 q 453 644 396 592 q 515 767 510 696 q 468 885 519 839 m 571 886 q 622 796 611 851 q 613 688 632 740 q 556 592 594 636 q 463 539 518 549 q 346 557 408 529 q 247 621 293 583 q 185 705 203 657 q 177 797 168 753 q 210 884 186 842 q 271 951 233 926 q 349 986 308 976 q 431 974 389 996 q 571 886 519 929 z "},"±":{"ha":833,"x_min":47,"x_max":746,"o":"m 89 510 l 47 611 l 324 611 l 324 906 l 483 867 l 483 611 l 704 611 l 746 510 l 483 510 l 483 201 l 324 240 l 324 510 l 89 510 m 103 21 l 60 133 l 689 133 l 732 21 l 103 21 z "},"²":{"ha":456,"x_min":14,"x_max":442,"o":"m 376 860 q 279 679 425 800 l 213 625 l 361 625 l 442 539 l 106 539 l 25 625 q 189 747 138 707 q 269 896 314 846 q 179 874 247 919 q 90 796 111 828 l 14 882 q 126 968 43 915 q 240 994 210 1021 q 376 860 322 925 z "},"³":{"ha":403,"x_min":14,"x_max":411,"o":"m 338 868 q 342 817 351 849 q 300 758 332 785 q 369 714 353 728 q 368 618 411 681 q 244 536 322 554 q 114 563 169 518 q 14 676 60 606 l 50 699 q 193 615 107 608 q 275 665 253 621 q 264 736 293 703 q 156 711 218 713 l 114 790 q 211 816 172 796 q 256 860 250 836 q 247 906 263 883 q 183 908 224 933 q 83 825 142 883 l 18 906 q 45 929 29 917 q 86 959 61 942 q 135 985 111 976 q 183 997 158 994 q 225 985 208 1000 q 338 868 294 928 z "},"´":{"ha":369,"x_min":200,"x_max":499,"o":"m 232 764 l 200 821 q 288 935 222 853 q 392 1069 354 1017 q 454 1013 410 1072 q 481 939 499 953 q 232 764 343 822 z "},"µ":{"ha":863,"x_min":50,"x_max":772,"o":"m 124 -158 l 124 301 l 122 657 q 124 656 122 656 l 124 657 l 283 618 l 283 140 q 288 111 286 113 q 375 86 315 72 q 507 165 435 100 q 613 308 579 231 l 613 657 l 772 618 l 772 -47 l 613 -8 l 613 61 q 407 -46 501 -53 q 283 28 372 -44 l 283 -196 q 50 -354 283 -374 q 110 -289 97 -336 q 124 -158 124 -242 z "},"¶":{"ha":961,"x_min":47,"x_max":876,"o":"m 874 872 l 876 -40 l 696 0 l 696 839 q 567 842 621 843 l 569 -40 l 389 0 l 389 324 q 293 334 338 322 q 231 364 249 346 q 65 586 103 478 q 84 700 47 638 q 201 815 121 763 q 385 901 282 867 q 620 930 489 935 q 874 872 751 925 z "},"·":{"ha":329,"x_min":92,"x_max":300,"o":"m 197 292 q 92 393 126 325 q 133 450 94 415 q 196 490 172 485 q 300 392 267 458 q 197 292 276 332 z "},"¸":{"ha":418,"x_min":114,"x_max":421,"o":"m 167 -158 l 208 76 l 321 50 l 275 -112 q 302 -108 286 -111 q 327 -102 318 -104 q 349 -99 336 -100 q 368 -97 361 -97 q 382 -97 375 -96 q 394 -100 389 -97 q 401 -107 399 -103 q 418 -165 415 -128 q 413 -239 421 -201 q 378 -306 404 -276 q 313 -340 353 -336 q 276 -340 300 -342 q 205 -325 251 -337 q 114 -292 158 -312 l 129 -267 q 156 -271 138 -268 q 181 -274 174 -274 q 202 -274 188 -275 q 235 -269 217 -274 q 283 -222 264 -264 q 282 -164 303 -181 q 249 -160 278 -161 q 194 -158 221 -158 l 167 -158 z "},"¹":{"ha":260,"x_min":13,"x_max":242,"o":"m 242 963 l 242 526 l 142 546 l 142 868 l 106 832 l 13 871 l 142 990 l 242 963 z "},"º":{"ha":628,"x_min":172,"x_max":596,"o":"m 449 888 q 344 868 400 922 q 281 744 289 814 q 324 635 274 674 q 390 631 357 619 q 445 678 422 643 q 481 751 468 713 q 485 829 493 790 q 449 888 478 868 m 546 889 q 588 806 581 858 q 577 702 596 753 q 524 608 558 651 q 438 553 489 564 q 332 567 388 542 q 238 629 282 593 q 188 695 203 657 q 176 770 172 733 q 194 845 179 807 q 235 913 210 883 q 290 963 261 942 q 352 986 319 983 q 413 975 385 989 q 546 889 508 922 z "},"»":{"ha":938,"x_min":83,"x_max":924,"o":"m 93 165 l 336 364 l 83 585 l 211 679 l 513 396 l 158 93 l 93 165 m 504 165 l 747 364 l 494 585 l 622 679 l 924 396 l 569 93 l 504 165 z "},"¼":{"ha":1154,"x_min":14,"x_max":1133,"o":"m 921 944 l 347 -42 l 222 1 l 793 990 l 921 944 m 781 115 l 683 221 l 682 221 l 682 222 l 683 222 l 824 454 l 950 424 l 831 222 l 992 222 l 992 531 l 1132 490 l 1133 -42 l 992 -10 l 992 115 l 781 115 m 332 951 l 335 421 l 194 451 l 194 840 l 129 768 l 14 808 l 194 992 l 332 951 z "},"½":{"ha":1272,"x_min":14,"x_max":1258,"o":"m 1176 400 q 1056 174 1236 326 q 971 106 1035 156 l 1157 106 l 1258 -1 l 838 -1 l 738 106 q 942 258 878 208 q 1043 444 1099 383 q 973 441 1024 465 q 878 379 922 417 q 819 319 833 342 l 724 428 q 863 534 758 468 q 1007 568 968 600 q 1176 400 1115 472 m 921 944 l 347 -42 l 222 1 l 793 990 l 921 944 m 332 951 l 335 421 l 194 451 l 194 840 l 129 768 l 14 808 l 194 992 l 332 951 z "},"¾":{"ha":1168,"x_min":28,"x_max":1147,"o":"m 935 944 l 361 -42 l 236 1 l 807 990 l 935 944 m 794 115 l 697 221 l 696 221 l 696 222 l 697 222 l 838 454 l 964 424 l 844 222 l 1006 222 l 1006 531 l 1146 490 l 1147 -42 l 1006 -10 l 1006 115 l 794 115 m 418 850 q 422 790 435 828 q 371 719 410 751 q 456 664 435 681 q 457 554 504 625 q 322 456 410 485 q 149 483 222 424 q 28 621 88 531 l 72 646 q 239 547 139 540 q 338 601 307 551 q 328 692 367 647 q 199 661 268 663 l 149 757 q 265 787 218 763 q 319 840 313 811 q 308 894 326 868 q 232 897 281 926 q 111 799 183 868 l 33 894 q 76 931 50 911 q 142 976 101 951 q 217 1003 183 1000 q 281 989 250 1007 q 418 850 367 921 z "},"¿":{"ha":550,"x_min":78,"x_max":649,"o":"m 357 663 q 463 561 428 629 q 421 504 460 539 q 358 464 382 469 q 254 563 288 496 q 357 663 278 622 m 540 -122 l 649 -239 q 494 -335 603 -300 q 331 -337 385 -371 q 181 -206 264 -297 q 85 -75 99 -114 q 78 -35 78 -57 q 84 6 79 -14 q 101 51 89 26 q 125 97 113 76 q 158 146 138 118 q 194 193 178 174 q 235 242 210 213 q 277 288 261 271 q 319 334 293 306 q 358 376 346 363 l 489 264 q 485 260 488 263 q 456 232 469 244 q 413 188 443 219 q 359 128 382 157 q 307 63 336 100 q 260 -8 278 25 q 231 -76 243 -42 q 224 -138 219 -110 q 249 -187 228 -167 q 343 -215 286 -221 q 455 -181 400 -208 q 540 -122 510 -154 z "},"À":{"ha":913,"x_min":14,"x_max":913,"o":"m 542 868 l 540 864 l 913 -40 l 733 0 l 636 254 l 308 232 l 208 -40 l 14 0 l 350 925 l 542 868 m 472 681 l 353 353 l 592 369 l 472 681 m 510 1044 l 478 988 q 229 1163 367 1046 q 256 1236 211 1176 q 318 1293 300 1296 q 422 1158 356 1240 q 510 1044 488 1076 z "},"Á":{"ha":913,"x_min":14,"x_max":913,"o":"m 542 868 l 540 864 l 913 -40 l 733 0 l 636 254 l 308 232 l 208 -40 l 14 0 l 350 925 l 542 868 m 472 681 l 353 353 l 592 369 l 472 681 m 350 985 l 318 1042 q 406 1156 340 1074 q 510 1290 472 1238 q 572 1233 528 1293 q 599 1160 617 1174 q 350 985 461 1043 z "},"Â":{"ha":913,"x_min":14,"x_max":913,"o":"m 542 868 l 540 864 l 913 -40 l 733 0 l 636 254 l 308 232 l 208 -40 l 14 0 l 350 925 l 542 868 m 472 681 l 353 353 l 592 369 l 472 681 m 253 985 q 219 1014 244 986 q 192 1047 193 1042 q 319 1160 192 1053 q 451 1267 446 1268 q 576 1169 461 1264 q 690 1068 692 1075 q 640 1020 690 1061 q 585 982 590 979 q 539 1018 576 982 q 461 1095 501 1054 q 419 1138 421 1136 q 339 1062 418 1136 q 253 985 260 988 z "},"Ã":{"ha":913,"x_min":14,"x_max":913,"o":"m 542 868 l 540 864 l 913 -40 l 733 0 l 636 254 l 308 232 l 208 -40 l 14 0 l 350 925 l 542 868 m 472 681 l 353 353 l 592 369 l 472 681 m 321 1239 q 407 1174 340 1236 q 488 1111 474 1111 q 561 1173 506 1111 q 619 1235 617 1235 q 674 1184 626 1233 q 722 1128 721 1135 q 692 1090 724 1122 q 613 1024 660 1057 q 535 992 565 992 q 442 1053 514 992 q 361 1114 369 1114 q 282 1054 336 1113 q 224 994 228 996 q 173 1053 214 997 q 132 1121 132 1110 q 215 1187 135 1132 q 321 1239 296 1242 z "},"Ä":{"ha":913,"x_min":14,"x_max":913,"o":"m 542 868 l 540 864 l 913 -40 l 733 0 l 636 254 l 308 232 l 208 -40 l 14 0 l 350 925 l 542 868 m 472 681 l 353 353 l 592 369 l 472 681 m 563 988 q 472 1075 504 1014 q 508 1125 474 1094 q 563 1160 542 1156 q 651 1074 626 1131 q 563 988 633 1024 m 317 988 q 226 1075 258 1014 q 262 1125 228 1094 q 317 1160 296 1156 q 406 1074 381 1131 q 317 988 388 1024 z "},"Å":{"ha":913,"x_min":14,"x_max":913,"o":"m 542 868 l 540 864 l 913 -40 l 733 0 l 636 254 l 308 232 l 208 -40 l 14 0 l 350 925 l 542 868 m 472 681 l 353 353 l 592 369 l 472 681 m 482 1236 q 403 1225 443 1260 q 361 1143 364 1190 q 399 1067 358 1096 q 447 1063 424 1056 q 487 1094 471 1071 q 511 1143 503 1117 q 512 1196 519 1169 q 482 1236 504 1222 m 567 1250 q 605 1182 597 1224 q 599 1101 613 1140 q 556 1028 585 1061 q 485 988 528 996 q 396 1001 443 981 q 322 1049 350 1025 q 271 1126 282 1081 q 276 1209 260 1171 q 320 1281 292 1247 q 387 1322 349 1314 q 461 1315 425 1331 q 567 1250 528 1281 z "},"Æ":{"ha":1429,"x_min":32,"x_max":1408,"o":"m 493 376 l 649 386 l 649 607 l 493 376 m 1297 125 l 1408 0 l 829 0 l 826 3 l 649 40 l 649 268 l 410 253 l 213 -40 l 32 0 l 647 925 l 649 925 l 649 926 l 1242 926 l 1353 801 l 840 801 l 840 535 l 1186 535 l 1297 410 l 842 410 l 842 125 l 1297 125 z "},"Ç":{"ha":997,"x_min":96,"x_max":1007,"o":"m 606 -33 l 583 -112 q 610 -108 594 -111 q 635 -102 626 -104 q 657 -99 644 -100 q 676 -97 669 -97 q 690 -97 683 -96 q 702 -100 697 -97 q 710 -107 707 -103 q 726 -165 724 -128 q 721 -239 729 -201 q 687 -306 713 -276 q 621 -340 661 -336 q 584 -340 608 -342 q 513 -325 560 -337 q 422 -292 467 -312 l 438 -267 q 464 -271 446 -268 q 489 -274 482 -274 q 510 -274 496 -275 q 543 -269 525 -274 q 592 -222 572 -264 q 590 -164 611 -181 q 558 -160 586 -161 q 503 -158 529 -158 l 475 -158 l 503 -1 l 488 7 q 224 203 350 88 q 135 319 167 256 q 100 445 104 382 q 108 575 96 508 q 153 700 121 642 q 227 811 186 758 q 321 901 268 864 q 428 962 374 938 q 540 985 482 986 q 649 963 597 983 q 976 807 857 867 l 908 732 q 706 831 799 790 q 548 824 632 863 q 406 700 464 785 q 315 515 347 615 q 313 313 283 415 q 438 147 343 210 q 542 108 488 114 q 651 124 597 103 q 747 169 706 144 q 839 232 789 194 l 1007 108 q 813 -6 919 35 q 606 -33 706 -47 z "},"È":{"ha":899,"x_min":118,"x_max":878,"o":"m 299 0 l 296 3 l 118 40 l 118 926 l 711 926 l 822 801 l 310 801 l 310 535 l 656 535 l 767 410 l 311 410 l 311 125 l 767 125 l 878 0 l 299 0 m 510 1044 l 478 988 q 229 1163 367 1046 q 256 1236 211 1176 q 318 1293 300 1296 q 422 1158 356 1240 q 510 1044 488 1076 z "},"É":{"ha":899,"x_min":118,"x_max":878,"o":"m 299 0 l 296 3 l 118 40 l 118 926 l 711 926 l 822 801 l 310 801 l 310 535 l 656 535 l 767 410 l 311 410 l 311 125 l 767 125 l 878 0 l 299 0 m 399 985 l 367 1042 q 455 1156 389 1074 q 558 1290 521 1238 q 621 1233 576 1293 q 647 1160 665 1174 q 399 985 510 1043 z "},"Ê":{"ha":899,"x_min":118,"x_max":878,"o":"m 299 0 l 296 3 l 118 40 l 118 926 l 711 926 l 822 801 l 310 801 l 310 535 l 656 535 l 767 410 l 311 410 l 311 125 l 767 125 l 878 0 l 299 0 m 256 989 q 222 1018 247 990 q 194 1051 196 1046 q 322 1165 194 1057 q 454 1271 449 1272 q 579 1174 464 1268 q 693 1072 694 1079 q 643 1024 693 1065 q 588 986 593 983 q 542 1022 579 986 q 464 1099 504 1058 q 422 1142 424 1140 q 342 1066 421 1140 q 256 989 263 992 z "},"Ë":{"ha":899,"x_min":118,"x_max":878,"o":"m 299 0 l 296 3 l 118 40 l 118 926 l 711 926 l 822 801 l 310 801 l 310 535 l 656 535 l 767 410 l 311 410 l 311 125 l 767 125 l 878 0 l 299 0 m 572 988 q 482 1075 514 1014 q 517 1125 483 1094 q 572 1160 551 1156 q 661 1074 636 1131 q 572 988 643 1024 m 326 988 q 236 1075 268 1014 q 272 1125 238 1094 q 326 1160 306 1156 q 415 1074 390 1131 q 326 988 397 1024 z "},"Ì":{"ha":417,"x_min":17,"x_max":326,"o":"m 324 868 l 326 -40 l 118 0 l 118 925 l 324 868 m 315 1039 l 283 982 q 35 1157 172 1040 q 61 1231 17 1171 q 124 1288 106 1290 q 227 1153 161 1235 q 315 1039 293 1071 z "},"Í":{"ha":417,"x_min":94,"x_max":393,"o":"m 324 868 l 326 -40 l 118 0 l 118 925 l 324 868 m 126 985 l 94 1042 q 183 1156 117 1074 q 286 1290 249 1238 q 349 1233 304 1293 q 375 1160 393 1174 q 126 985 238 1043 z "},"Î":{"ha":417,"x_min":-42,"x_max":458,"o":"m 324 868 l 326 -40 l 118 0 l 118 925 l 324 868 m 19 986 q -15 1015 11 988 q -42 1049 -40 1043 q 85 1162 -42 1054 q 218 1268 213 1269 q 343 1171 228 1265 q 457 1069 458 1076 q 407 1022 457 1063 q 351 983 357 981 q 306 1019 343 983 q 228 1097 268 1056 q 186 1139 188 1138 q 106 1063 185 1138 q 19 986 26 989 z "},"Ï":{"ha":417,"x_min":-11,"x_max":414,"o":"m 324 868 l 326 -40 l 118 0 l 118 925 l 324 868 m 325 988 q 235 1075 267 1014 q 270 1125 236 1094 q 325 1160 304 1156 q 414 1074 389 1131 q 325 988 396 1024 m 79 988 q -11 1075 21 1014 q 24 1125 -10 1094 q 79 1160 58 1156 q 168 1074 143 1131 q 79 988 150 1024 z "},"Ð":{"ha":1124,"x_min":-32,"x_max":1019,"o":"m 311 432 l 313 85 q 496 99 408 72 q 646 181 583 126 q 751 306 708 235 q 808 450 794 378 q 803 590 821 522 q 732 703 785 658 q 630 765 683 743 q 515 791 576 788 q 414 792 453 794 q 310 781 375 789 l 311 526 l 374 538 l 467 461 l 311 432 m 119 924 l 119 925 q 365 947 179 944 q 607 921 551 950 q 989 549 753 819 q 1011 485 1003 532 q 1011 371 1019 438 q 978 236 1003 304 q 890 104 953 168 q 738 6 828 40 q 536 -23 654 -24 q 313 1 418 -22 l 311 1 l 118 42 l 118 396 l 65 386 l -32 467 l 118 493 l 118 925 l 119 924 z "},"Ñ":{"ha":1058,"x_min":118,"x_max":954,"o":"m 954 869 l 954 -40 l 760 0 l 310 636 l 313 -40 l 118 0 l 118 925 l 310 869 l 760 240 l 760 925 l 954 869 m 410 1231 q 496 1165 429 1228 q 576 1103 563 1103 q 650 1165 594 1103 q 708 1226 706 1226 q 763 1176 715 1225 q 811 1119 810 1126 q 781 1081 813 1114 q 701 1016 749 1049 q 624 983 654 983 q 531 1044 603 983 q 450 1106 458 1106 q 371 1046 425 1104 q 313 986 317 988 q 262 1045 303 989 q 221 1113 221 1101 q 304 1178 224 1124 q 410 1231 385 1233 z "},"Ò":{"ha":1143,"x_min":82,"x_max":1060,"o":"m 738 794 q 463 785 599 886 q 303 544 353 701 q 314 243 249 369 q 408 142 346 179 q 683 161 549 57 q 840 404 793 246 q 821 704 892 579 q 738 794 790 760 m 954 726 q 1033 605 1007 675 q 1059 462 1060 535 q 1035 314 1058 389 q 973 174 1013 239 q 878 59 933 110 q 758 -18 822 8 q 619 -40 694 -44 q 472 6 544 -36 q 433 28 461 13 q 392 49 404 43 q 357 70 381 56 q 317 97 333 85 q 278 126 301 108 q 232 164 256 143 q 182 211 208 185 q 106 328 131 260 q 84 468 82 396 q 108 615 86 540 q 170 755 131 689 q 264 873 210 821 q 378 955 318 925 q 508 985 439 985 q 644 949 578 985 q 954 726 825 851 m 732 1082 l 700 1025 q 451 1200 589 1083 q 478 1274 433 1214 q 540 1331 522 1333 q 644 1196 578 1278 q 732 1082 710 1114 z "},"Ó":{"ha":1143,"x_min":82,"x_max":1060,"o":"m 738 794 q 463 785 599 886 q 303 544 353 701 q 314 243 249 369 q 408 142 346 179 q 683 161 549 57 q 840 404 793 246 q 821 704 892 579 q 738 794 790 760 m 954 726 q 1033 605 1007 675 q 1059 462 1060 535 q 1035 314 1058 389 q 973 174 1013 239 q 878 59 933 110 q 758 -18 822 8 q 619 -40 694 -44 q 472 6 544 -36 q 433 28 461 13 q 392 49 404 43 q 357 70 381 56 q 317 97 333 85 q 278 126 301 108 q 232 164 256 143 q 182 211 208 185 q 106 328 131 260 q 84 468 82 396 q 108 615 86 540 q 170 755 131 689 q 264 873 210 821 q 378 955 318 925 q 508 985 439 985 q 644 949 578 985 q 954 726 825 851 m 646 1033 l 614 1090 q 702 1204 636 1122 q 806 1339 768 1286 q 868 1282 824 1342 q 894 1208 913 1222 q 646 1033 757 1092 z "},"Ô":{"ha":1143,"x_min":82,"x_max":1060,"o":"m 738 794 q 463 785 599 886 q 303 544 353 701 q 314 243 249 369 q 408 142 346 179 q 683 161 549 57 q 840 404 793 246 q 821 704 892 579 q 738 794 790 760 m 954 726 q 1033 605 1007 675 q 1059 462 1060 535 q 1035 314 1058 389 q 973 174 1013 239 q 878 59 933 110 q 758 -18 822 8 q 619 -40 694 -44 q 472 6 544 -36 q 433 28 461 13 q 392 49 404 43 q 357 70 381 56 q 317 97 333 85 q 278 126 301 108 q 232 164 256 143 q 182 211 208 185 q 106 328 131 260 q 84 468 82 396 q 108 615 86 540 q 170 755 131 689 q 264 873 210 821 q 378 955 318 925 q 508 985 439 985 q 644 949 578 985 q 954 726 825 851 m 421 1031 q 387 1060 413 1032 q 360 1093 361 1088 q 487 1206 360 1099 q 619 1313 614 1314 q 744 1215 629 1310 q 858 1114 860 1121 q 808 1066 858 1107 q 753 1028 758 1025 q 707 1064 744 1028 q 629 1141 669 1100 q 588 1183 589 1182 q 507 1108 586 1182 q 421 1031 428 1033 z "},"Õ":{"ha":1143,"x_min":82,"x_max":1060,"o":"m 738 794 q 463 785 599 886 q 303 544 353 701 q 314 243 249 369 q 408 142 346 179 q 683 161 549 57 q 840 404 793 246 q 821 704 892 579 q 738 794 790 760 m 954 726 q 1033 605 1007 675 q 1059 462 1060 535 q 1035 314 1058 389 q 973 174 1013 239 q 878 59 933 110 q 758 -18 822 8 q 619 -40 694 -44 q 472 6 544 -36 q 433 28 461 13 q 392 49 404 43 q 357 70 381 56 q 317 97 333 85 q 278 126 301 108 q 232 164 256 143 q 182 211 208 185 q 106 328 131 260 q 84 468 82 396 q 108 615 86 540 q 170 755 131 689 q 264 873 210 821 q 378 955 318 925 q 508 985 439 985 q 644 949 578 985 q 954 726 825 851 m 500 1275 q 586 1210 519 1272 q 667 1147 653 1147 q 740 1209 685 1147 q 799 1271 796 1271 q 853 1220 806 1269 q 901 1164 900 1171 q 871 1126 903 1158 q 792 1060 839 1093 q 714 1028 744 1028 q 621 1089 693 1028 q 540 1150 549 1150 q 461 1090 515 1149 q 403 1031 407 1032 q 352 1090 393 1033 q 311 1157 311 1146 q 394 1223 314 1168 q 500 1275 475 1278 z "},"Ö":{"ha":1143,"x_min":82,"x_max":1060,"o":"m 738 794 q 463 785 599 886 q 303 544 353 701 q 314 243 249 369 q 408 142 346 179 q 683 161 549 57 q 840 404 793 246 q 821 704 892 579 q 738 794 790 760 m 954 726 q 1033 605 1007 675 q 1059 462 1060 535 q 1035 314 1058 389 q 973 174 1013 239 q 878 59 933 110 q 758 -18 822 8 q 619 -40 694 -44 q 472 6 544 -36 q 433 28 461 13 q 392 49 404 43 q 357 70 381 56 q 317 97 333 85 q 278 126 301 108 q 232 164 256 143 q 182 211 208 185 q 106 328 131 260 q 84 468 82 396 q 108 615 86 540 q 170 755 131 689 q 264 873 210 821 q 378 955 318 925 q 508 985 439 985 q 644 949 578 985 q 954 726 825 851 m 739 1038 q 649 1125 681 1064 q 684 1175 650 1144 q 739 1210 718 1206 q 828 1124 803 1181 q 739 1038 810 1074 m 493 1038 q 403 1125 435 1064 q 438 1175 404 1144 q 493 1210 472 1206 q 582 1124 557 1181 q 493 1038 564 1074 z "},"×":{"ha":769,"x_min":86,"x_max":669,"o":"m 615 203 l 403 406 l 215 197 l 96 278 l 301 503 l 86 710 l 142 757 l 351 557 l 554 776 l 669 700 l 453 460 l 665 258 l 615 203 z "},"Ø":{"ha":1143,"x_min":82,"x_max":1060,"o":"m 833 679 l 417 138 q 551 107 483 101 q 672 153 618 113 q 770 255 725 193 q 836 391 815 317 q 860 540 857 465 q 833 679 864 614 m 744 790 l 738 794 q 598 836 665 843 q 472 790 531 829 q 369 682 413 751 q 301 538 325 613 q 279 381 276 463 q 315 239 282 300 l 744 790 m 979 868 l 906 772 q 930 749 914 764 q 954 726 946 733 q 1033 605 1007 675 q 1059 462 1060 535 q 1035 314 1058 389 q 973 174 1013 239 q 878 59 933 110 q 758 -18 822 8 q 619 -40 694 -44 q 472 6 544 -36 q 363 67 375 60 l 281 -40 l 161 40 l 247 151 q 182 211 208 185 q 106 328 131 260 q 84 468 82 396 q 108 615 86 540 q 170 755 131 689 q 264 873 210 821 q 378 955 318 925 q 508 985 439 985 q 644 949 578 985 q 796 857 742 896 l 864 944 l 979 868 z "},"Ù":{"ha":925,"x_min":63,"x_max":876,"o":"m 497 1043 l 465 986 q 217 1161 354 1044 q 243 1235 199 1175 q 306 1292 288 1294 q 409 1157 343 1239 q 497 1043 475 1075 m 683 926 l 876 869 l 876 219 q 754 49 876 140 q 494 -42 632 -42 q 292 42 413 -42 q 69 238 171 125 q 67 260 68 239 q 65 314 65 281 q 63 392 64 347 q 63 485 63 436 q 63 585 63 533 q 63 685 63 638 q 64 778 64 733 q 65 854 64 822 q 65 906 65 886 l 65 926 q 113 911 65 925 q 208 883 161 897 l 257 869 q 258 164 251 172 q 405 101 315 103 q 574 147 494 99 q 683 272 653 196 l 683 926 z "},"Ú":{"ha":925,"x_min":63,"x_max":876,"o":"m 396 990 l 364 1047 q 452 1161 386 1079 q 556 1296 518 1243 q 618 1239 574 1299 q 644 1165 663 1179 q 396 990 507 1049 m 683 926 l 876 869 l 876 219 q 754 49 876 140 q 494 -42 632 -42 q 292 42 413 -42 q 69 238 171 125 q 67 260 68 239 q 65 314 65 281 q 63 392 64 347 q 63 485 63 436 q 63 585 63 533 q 63 685 63 638 q 64 778 64 733 q 65 854 64 822 q 65 906 65 886 l 65 926 q 113 911 65 925 q 208 883 161 897 l 257 869 q 258 164 251 172 q 405 101 315 103 q 574 147 494 99 q 683 272 653 196 l 683 926 z "},"Û":{"ha":925,"x_min":63,"x_max":876,"o":"m 254 992 q 220 1021 246 993 q 193 1054 194 1049 q 320 1167 193 1060 q 453 1274 447 1275 q 578 1176 463 1271 q 692 1075 693 1082 q 642 1027 692 1068 q 586 989 592 986 q 540 1025 578 989 q 463 1102 503 1061 q 421 1144 422 1143 q 340 1069 419 1143 q 254 992 261 994 m 683 926 l 876 869 l 876 219 q 754 49 876 140 q 494 -42 632 -42 q 292 42 413 -42 q 69 238 171 125 q 67 260 68 239 q 65 314 65 281 q 63 392 64 347 q 63 485 63 436 q 63 585 63 533 q 63 685 63 638 q 64 778 64 733 q 65 854 64 822 q 65 906 65 886 l 65 926 q 113 911 65 925 q 208 883 161 897 l 257 869 q 258 164 251 172 q 405 101 315 103 q 574 147 494 99 q 683 272 653 196 l 683 926 z "},"Ü":{"ha":925,"x_min":63,"x_max":876,"o":"m 564 989 q 474 1076 506 1015 q 509 1126 475 1096 q 564 1161 543 1157 q 653 1075 628 1132 q 564 989 635 1025 m 318 989 q 228 1076 260 1015 q 263 1126 229 1096 q 318 1161 297 1157 q 407 1075 382 1132 q 318 989 389 1025 m 683 926 l 876 869 l 876 219 q 754 49 876 140 q 494 -42 632 -42 q 292 42 413 -42 q 69 238 171 125 q 67 260 68 239 q 65 314 65 281 q 63 392 64 347 q 63 485 63 436 q 63 585 63 533 q 63 685 63 638 q 64 778 64 733 q 65 854 64 822 q 65 906 65 886 l 65 926 q 113 911 65 925 q 208 883 161 897 l 257 869 q 258 164 251 172 q 405 101 315 103 q 574 147 494 99 q 683 272 653 196 l 683 926 z "},"Ý":{"ha":821,"x_min":0,"x_max":833,"o":"m 174 886 l 413 510 l 640 925 l 833 885 l 533 339 l 536 -40 l 342 0 l 342 382 l 0 926 l 174 886 m 331 986 l 299 1043 q 387 1157 321 1075 q 490 1292 453 1239 q 553 1235 508 1294 q 579 1161 597 1175 q 331 986 442 1044 z "},"Þ":{"ha":785,"x_min":88,"x_max":750,"o":"m 261 947 l 261 796 q 585 754 433 853 q 698 646 657 707 q 744 526 739 585 q 736 407 750 467 q 688 299 722 347 q 611 216 653 251 q 520 166 569 181 q 426 163 471 151 q 261 222 379 174 l 261 -40 l 88 -1 l 88 986 l 261 947 m 522 390 q 579 513 565 453 q 582 615 593 572 q 540 685 571 658 q 465 714 508 711 q 367 688 422 717 q 261 601 313 660 l 261 299 q 522 390 425 251 z "},"ß":{"ha":814,"x_min":106,"x_max":796,"o":"m 382 504 q 427 553 396 519 q 471 602 458 588 q 504 643 483 617 q 530 685 525 669 q 538 723 535 701 q 531 762 542 744 q 500 797 521 779 q 440 821 478 817 q 367 812 403 825 q 305 759 331 799 q 279 660 279 719 l 282 -40 l 106 0 q 106 713 107 567 q 135 832 106 781 q 209 908 165 883 q 301 944 253 932 q 388 953 350 956 q 442 940 425 950 q 593 819 504 900 q 697 692 682 739 q 558 442 725 608 q 610 410 576 431 q 671 374 644 390 q 710 349 697 358 q 787 224 778 294 q 760 96 796 153 q 657 -1 724 39 q 519 -40 590 -40 q 315 103 467 -40 l 343 154 q 451 112 399 115 q 538 136 504 108 q 589 203 571 164 q 595 290 607 242 q 543 374 583 338 q 481 424 519 394 q 415 475 442 454 q 382 504 389 496 z "},"à":{"ha":806,"x_min":82,"x_max":714,"o":"m 167 488 l 92 614 q 308 661 189 639 q 457 682 426 683 q 579 591 488 681 q 703 454 671 501 q 714 342 714 438 q 710 125 714 247 q 708 -40 707 3 l 536 0 l 538 71 q 354 -42 425 -42 q 185 85 288 -40 q 82 264 82 210 q 140 343 82 307 q 283 399 199 379 q 432 431 367 419 q 543 446 497 442 l 544 483 q 474 556 546 550 q 193 496 407 560 l 192 496 l 190 494 l 189 494 l 188 494 l 186 493 l 185 493 l 183 493 l 182 492 l 181 492 l 179 492 l 178 490 l 176 490 l 175 490 l 174 490 l 172 489 l 171 489 l 169 489 l 168 488 l 167 488 m 236 139 q 283 114 249 119 q 388 133 318 108 q 540 218 458 157 l 542 340 q 236 139 175 233 m 515 821 l 483 764 q 235 939 372 822 q 261 1013 217 953 q 324 1069 306 1072 q 427 935 361 1017 q 515 821 493 853 z "},"á":{"ha":806,"x_min":82,"x_max":714,"o":"m 167 488 l 92 614 q 308 661 189 639 q 457 682 426 683 q 579 591 488 681 q 703 454 671 501 q 714 342 714 438 q 710 125 714 247 q 708 -40 707 3 l 536 0 l 538 71 q 354 -42 425 -42 q 185 85 288 -40 q 82 264 82 210 q 140 343 82 307 q 283 399 199 379 q 432 431 367 419 q 543 446 497 442 l 544 483 q 474 556 546 550 q 193 496 407 560 l 192 496 l 190 494 l 189 494 l 188 494 l 186 493 l 185 493 l 183 493 l 182 492 l 181 492 l 179 492 l 178 490 l 176 490 l 175 490 l 174 490 l 172 489 l 171 489 l 169 489 l 168 488 l 167 488 m 236 139 q 283 114 249 119 q 388 133 318 108 q 540 218 458 157 l 542 340 q 236 139 175 233 m 397 764 l 365 821 q 453 935 388 853 q 557 1069 519 1017 q 619 1013 575 1072 q 646 939 664 953 q 397 764 508 822 z "},"â":{"ha":806,"x_min":82,"x_max":714,"o":"m 167 488 l 92 614 q 308 661 189 639 q 457 682 426 683 q 579 591 488 681 q 703 454 671 501 q 714 342 714 438 q 710 125 714 247 q 708 -40 707 3 l 536 0 l 538 71 q 354 -42 425 -42 q 185 85 288 -40 q 82 264 82 210 q 140 343 82 307 q 283 399 199 379 q 432 431 367 419 q 543 446 497 442 l 544 483 q 474 556 546 550 q 193 496 407 560 l 192 496 l 190 494 l 189 494 l 188 494 l 186 493 l 185 493 l 183 493 l 182 492 l 181 492 l 179 492 l 178 490 l 176 490 l 175 490 l 174 490 l 172 489 l 171 489 l 169 489 l 168 488 l 167 488 m 236 139 q 283 114 249 119 q 388 133 318 108 q 540 218 458 157 l 542 340 q 236 139 175 233 m 253 765 q 219 794 244 767 q 192 828 193 822 q 319 941 192 833 q 451 1047 446 1049 q 576 950 461 1044 q 690 849 692 856 q 640 801 690 842 q 585 763 590 760 q 539 799 576 763 q 461 876 501 835 q 419 918 421 917 q 339 842 418 917 q 253 765 260 768 z "},"ã":{"ha":806,"x_min":82,"x_max":721,"o":"m 167 488 l 92 614 q 308 661 189 639 q 457 682 426 683 q 579 591 488 681 q 703 454 671 501 q 714 342 714 438 q 710 125 714 247 q 708 -40 707 3 l 536 0 l 538 71 q 354 -42 425 -42 q 185 85 288 -40 q 82 264 82 210 q 140 343 82 307 q 283 399 199 379 q 432 431 367 419 q 543 446 497 442 l 544 483 q 474 556 546 550 q 193 496 407 560 l 192 496 l 190 494 l 189 494 l 188 494 l 186 493 l 185 493 l 183 493 l 182 492 l 181 492 l 179 492 l 178 490 l 176 490 l 175 490 l 174 490 l 172 489 l 171 489 l 169 489 l 168 488 l 167 488 m 236 139 q 283 114 249 119 q 388 133 318 108 q 540 218 458 157 l 542 340 q 236 139 175 233 m 318 996 q 404 931 338 993 q 485 868 471 868 q 558 930 503 868 q 617 992 614 992 q 671 941 624 990 q 719 885 718 892 q 689 847 721 879 q 610 781 657 814 q 532 749 563 749 q 439 810 511 749 q 358 871 367 871 q 279 811 333 869 q 221 751 225 753 q 170 810 211 754 q 129 878 129 867 q 213 944 132 889 q 318 996 293 999 z "},"ä":{"ha":806,"x_min":82,"x_max":714,"o":"m 167 488 l 92 614 q 308 661 189 639 q 457 682 426 683 q 579 591 488 681 q 703 454 671 501 q 714 342 714 438 q 710 125 714 247 q 708 -40 707 3 l 536 0 l 538 71 q 354 -42 425 -42 q 185 85 288 -40 q 82 264 82 210 q 140 343 82 307 q 283 399 199 379 q 432 431 367 419 q 543 446 497 442 l 544 483 q 474 556 546 550 q 193 496 407 560 l 192 496 l 190 494 l 189 494 l 188 494 l 186 493 l 185 493 l 183 493 l 182 492 l 181 492 l 179 492 l 178 490 l 176 490 l 175 490 l 174 490 l 172 489 l 171 489 l 169 489 l 168 488 l 167 488 m 236 139 q 283 114 249 119 q 388 133 318 108 q 540 218 458 157 l 542 340 q 236 139 175 233 m 556 767 q 465 854 497 793 q 501 904 467 874 q 556 939 535 935 q 644 853 619 910 q 556 767 626 803 m 310 767 q 219 854 251 793 q 255 904 221 874 q 310 939 289 935 q 399 853 374 910 q 310 767 381 803 z "},"å":{"ha":806,"x_min":82,"x_max":714,"o":"m 167 488 l 92 614 q 308 661 189 639 q 457 682 426 683 q 579 591 488 681 q 703 454 671 501 q 714 342 714 438 q 710 125 714 247 q 708 -40 707 3 l 536 0 l 538 71 q 354 -42 425 -42 q 185 85 288 -40 q 82 264 82 210 q 140 343 82 307 q 283 399 199 379 q 432 431 367 419 q 543 446 497 442 l 544 483 q 474 556 546 550 q 193 496 407 560 l 192 496 l 190 494 l 189 494 l 188 494 l 186 493 l 185 493 l 183 493 l 182 492 l 181 492 l 179 492 l 178 490 l 176 490 l 175 490 l 174 490 l 172 489 l 171 489 l 169 489 l 168 488 l 167 488 m 236 139 q 283 114 249 119 q 388 133 318 108 q 540 218 458 157 l 542 340 q 236 139 175 233 m 465 1007 q 387 996 426 1031 q 344 914 347 961 q 382 838 342 867 q 431 834 407 826 q 470 865 454 842 q 494 914 486 888 q 495 967 503 940 q 465 1007 488 993 m 550 1021 q 588 953 581 994 q 582 872 596 911 q 540 799 568 832 q 469 759 511 767 q 379 772 426 751 q 306 819 333 796 q 254 897 265 851 q 259 980 243 942 q 303 1051 275 1018 q 370 1093 332 1085 q 444 1086 408 1101 q 550 1021 511 1051 z "},"æ":{"ha":1278,"x_min":82,"x_max":1236,"o":"m 167 488 l 92 614 q 308 661 189 639 q 457 682 426 683 q 626 542 499 678 q 856 679 717 679 q 1020 608 911 679 q 1201 468 1129 536 q 1088 383 1200 464 q 864 222 975 301 l 751 144 q 788 108 761 131 q 836 82 815 86 q 973 110 893 71 q 1128 211 1053 149 l 1156 183 q 1208 125 1182 154 l 1236 97 q 1032 -22 1115 8 q 867 -21 949 -51 q 708 76 793 7 q 708 -40 706 4 l 550 0 l 551 86 q 354 -42 431 -42 q 185 85 288 -40 q 82 264 82 210 q 151 349 82 310 q 310 407 219 388 q 468 437 400 426 q 557 447 536 447 l 558 483 q 546 531 558 513 q 503 552 533 549 q 444 555 474 556 q 362 542 415 554 q 271 519 308 529 q 167 488 233 508 m 236 139 q 554 229 307 36 l 556 344 q 288 260 360 301 q 236 139 190 206 m 899 572 q 781 494 835 572 q 714 321 726 417 l 714 276 l 1058 497 q 899 572 950 572 z "},"ç":{"ha":743,"x_min":58,"x_max":706,"o":"m 431 -37 l 410 -111 q 437 -106 421 -110 q 462 -101 453 -103 q 483 -97 471 -99 q 503 -95 496 -96 q 517 -95 510 -94 q 528 -99 524 -96 q 536 -106 533 -101 q 553 -163 550 -126 q 547 -237 556 -200 q 513 -305 539 -275 q 447 -339 488 -335 q 410 -338 435 -340 q 340 -324 386 -336 q 249 -290 293 -311 l 264 -265 q 290 -269 272 -267 q 315 -273 308 -272 q 337 -273 322 -274 q 369 -268 351 -272 q 418 -221 399 -262 q 417 -162 438 -179 q 384 -158 413 -160 q 328 -157 356 -157 l 301 -157 l 328 -7 q 133 140 217 47 q 65 305 71 210 q 98 482 58 400 q 215 622 138 564 q 385 679 293 679 q 663 569 428 679 l 613 497 q 564 515 592 504 q 521 530 536 525 q 488 540 506 535 q 458 548 469 546 q 436 550 446 550 q 283 433 346 546 q 238 215 224 325 q 335 93 250 106 q 599 207 433 79 l 625 176 q 679 114 653 146 l 706 83 q 555 -12 618 18 q 431 -37 492 -42 z "},"è":{"ha":782,"x_min":64,"x_max":740,"o":"m 236 276 l 551 492 q 381 539 451 556 q 274 452 311 522 q 236 276 236 382 m 268 143 q 356 85 307 96 q 458 98 404 74 q 547 147 511 122 q 632 211 583 171 l 658 183 q 714 125 686 154 l 740 97 q 536 -22 619 8 q 371 -21 453 -51 q 146 140 251 25 q 74 305 83 210 q 98 482 64 400 q 203 622 132 564 q 360 679 275 679 q 524 608 415 679 q 706 468 633 536 q 595 383 704 464 q 378 222 486 301 l 268 143 m 464 821 l 432 764 q 183 939 321 822 q 210 1013 165 953 q 272 1069 254 1072 q 376 935 310 1017 q 464 821 442 853 z "},"é":{"ha":775,"x_min":57,"x_max":733,"o":"m 229 276 l 544 492 q 374 539 444 556 q 267 452 304 522 q 229 276 229 382 m 261 143 q 349 85 300 96 q 451 98 397 74 q 540 147 504 122 q 625 211 576 171 l 653 183 q 706 125 679 154 l 733 97 q 529 -22 613 8 q 364 -21 446 -51 q 139 140 244 25 q 67 305 76 210 q 91 482 57 400 q 197 622 125 564 q 353 679 268 679 q 517 608 408 679 q 699 468 626 536 q 588 383 697 464 q 369 222 479 301 l 261 143 m 338 764 l 306 821 q 394 935 328 853 q 497 1069 460 1017 q 560 1013 515 1072 q 586 939 604 953 q 338 764 449 822 z "},"ê":{"ha":775,"x_min":57,"x_max":733,"o":"m 229 276 l 544 492 q 374 539 444 556 q 267 452 304 522 q 229 276 229 382 m 261 143 q 349 85 300 96 q 451 98 397 74 q 540 147 504 122 q 625 211 576 171 l 653 183 q 706 125 679 154 l 733 97 q 529 -22 613 8 q 364 -21 446 -51 q 139 140 244 25 q 67 305 76 210 q 91 482 57 400 q 197 622 125 564 q 353 679 268 679 q 517 608 408 679 q 699 468 626 536 q 588 383 697 464 q 369 222 479 301 l 261 143 m 204 765 q 170 794 196 767 q 143 828 144 822 q 270 941 143 833 q 403 1047 397 1049 q 528 950 413 1044 q 642 849 643 856 q 592 801 642 842 q 536 763 542 760 q 490 799 528 763 q 413 876 453 835 q 371 918 372 917 q 290 842 369 917 q 204 765 211 768 z "},"ë":{"ha":775,"x_min":57,"x_max":733,"o":"m 229 276 l 544 492 q 374 539 444 556 q 267 452 304 522 q 229 276 229 382 m 261 143 q 349 85 300 96 q 451 98 397 74 q 540 147 504 122 q 625 211 576 171 l 653 183 q 706 125 679 154 l 733 97 q 529 -22 613 8 q 364 -21 446 -51 q 139 140 244 25 q 67 305 76 210 q 91 482 57 400 q 197 622 125 564 q 353 679 268 679 q 517 608 408 679 q 699 468 626 536 q 588 383 697 464 q 369 222 479 301 l 261 143 m 517 767 q 426 854 458 793 q 462 904 428 874 q 517 939 496 935 q 606 853 581 910 q 517 767 588 803 m 271 767 q 181 854 213 793 q 216 904 182 874 q 271 939 250 935 q 360 853 335 910 q 271 767 342 803 z "},"ì":{"ha":335,"x_min":-11,"x_max":288,"o":"m 247 625 l 247 -40 l 88 -1 l 88 664 l 247 625 m 288 821 l 256 764 q 7 939 144 822 q 33 1013 -11 953 q 96 1069 78 1072 q 199 935 133 1017 q 288 821 265 853 z "},"í":{"ha":335,"x_min":36,"x_max":335,"o":"m 247 625 l 247 -40 l 88 -1 l 88 664 l 247 625 m 68 764 l 36 821 q 124 935 58 853 q 228 1069 190 1017 q 290 1013 246 1072 q 317 939 335 953 q 68 764 179 822 z "},"î":{"ha":335,"x_min":-72,"x_max":428,"o":"m 247 625 l 247 -40 l 88 -1 l 88 664 l 247 625 m -11 765 q -45 794 -19 767 q -72 828 -71 822 q 55 941 -72 833 q 188 1047 182 1049 q 313 950 197 1044 q 426 849 428 856 q 376 801 426 842 q 321 763 326 760 q 275 799 313 763 q 197 876 238 835 q 156 918 157 917 q 75 842 154 917 q -11 765 -4 768 z "},"ï":{"ha":335,"x_min":-49,"x_max":376,"o":"m 247 625 l 247 -40 l 88 -1 l 88 664 l 247 625 m 288 767 q 197 854 229 793 q 233 904 199 874 q 288 939 267 935 q 376 853 351 910 q 288 767 358 803 m 42 767 q -49 854 -17 793 q -13 904 -47 874 q 42 939 21 935 q 131 853 106 910 q 42 767 113 803 z "},"ð":{"ha":839,"x_min":76,"x_max":781,"o":"m 336 892 l 468 986 q 596 858 542 932 l 688 889 l 781 813 l 656 769 q 749 526 721 656 q 767 279 778 396 q 681 49 753 138 q 486 -39 608 -39 q 267 55 385 -39 q 106 236 150 149 q 133 393 76 292 q 276 567 190 494 q 408 624 363 639 q 568 539 464 604 q 494 715 544 629 l 404 685 l 307 765 l 429 804 q 336 892 379 858 m 589 340 q 585 447 592 392 q 338 418 432 518 q 269 240 269 347 q 335 104 271 139 q 339 101 338 103 q 506 121 431 57 q 589 340 581 185 z "},"ñ":{"ha":829,"x_min":88,"x_max":765,"o":"m 213 738 q 162 797 203 740 q 121 864 121 853 q 204 930 124 875 q 310 982 285 985 q 396 917 329 979 q 476 854 463 854 q 550 916 494 854 q 608 978 606 978 q 663 927 615 976 q 711 871 710 878 q 681 833 713 865 q 601 767 649 800 q 524 735 554 735 q 431 796 503 735 q 350 857 358 857 q 271 797 325 856 q 213 738 217 739 m 268 625 l 268 568 q 485 678 392 683 q 641 567 529 675 q 760 421 753 460 q 765 -40 765 385 l 593 -1 q 586 503 601 475 q 503 531 561 550 q 384 464 446 513 q 268 350 322 415 l 268 -40 l 88 -1 l 88 664 l 268 625 z "},"ò":{"ha":819,"x_min":61,"x_max":760,"o":"m 529 524 q 339 504 438 586 q 229 319 257 435 q 276 121 199 188 q 297 106 286 113 q 412 92 353 75 q 515 165 471 108 q 583 287 558 222 q 596 419 608 351 q 529 524 583 486 m 668 513 q 731 426 708 476 q 756 322 753 375 q 747 215 760 269 q 707 114 733 161 q 641 30 681 67 q 554 -26 601 -7 q 449 -40 507 -44 q 332 -4 392 -36 q 179 101 254 38 q 90 217 119 153 q 63 343 61 282 q 87 465 65 404 q 149 571 108 526 q 239 647 190 615 q 344 679 288 678 q 453 656 400 681 q 668 513 588 585 m 561 821 l 529 764 q 281 939 418 822 q 307 1013 263 953 q 369 1069 351 1072 q 473 935 407 1017 q 561 821 539 853 z "},"ó":{"ha":819,"x_min":61,"x_max":760,"o":"m 529 524 q 339 504 438 586 q 229 319 257 435 q 276 121 199 188 q 297 106 286 113 q 412 92 353 75 q 515 165 471 108 q 583 287 558 222 q 596 419 608 351 q 529 524 583 486 m 668 513 q 731 426 708 476 q 756 322 753 375 q 747 215 760 269 q 707 114 733 161 q 641 30 681 67 q 554 -26 601 -7 q 449 -40 507 -44 q 332 -4 392 -36 q 179 101 254 38 q 90 217 119 153 q 63 343 61 282 q 87 465 65 404 q 149 571 108 526 q 239 647 190 615 q 344 679 288 678 q 453 656 400 681 q 668 513 588 585 m 422 764 l 390 821 q 478 935 413 853 q 582 1069 544 1017 q 644 1013 600 1072 q 671 939 689 953 q 422 764 533 822 z "},"ô":{"ha":819,"x_min":61,"x_max":760,"o":"m 529 524 q 339 504 438 586 q 229 319 257 435 q 276 121 199 188 q 297 106 286 113 q 412 92 353 75 q 515 165 471 108 q 583 287 558 222 q 596 419 608 351 q 529 524 583 486 m 668 513 q 731 426 708 476 q 756 322 753 375 q 747 215 760 269 q 707 114 733 161 q 641 30 681 67 q 554 -26 601 -7 q 449 -40 507 -44 q 332 -4 392 -36 q 179 101 254 38 q 90 217 119 153 q 63 343 61 282 q 87 465 65 404 q 149 571 108 526 q 239 647 190 615 q 344 679 288 678 q 453 656 400 681 q 668 513 588 585 m 261 765 q 227 794 253 767 q 200 828 201 822 q 327 941 200 833 q 460 1047 454 1049 q 585 950 469 1044 q 699 849 700 856 q 649 801 699 842 q 593 763 599 760 q 547 799 585 763 q 469 876 510 835 q 428 918 429 917 q 347 842 426 917 q 261 765 268 768 z "},"õ":{"ha":819,"x_min":61,"x_max":760,"o":"m 529 524 q 339 504 438 586 q 229 319 257 435 q 276 121 199 188 q 297 106 286 113 q 412 92 353 75 q 515 165 471 108 q 583 287 558 222 q 596 419 608 351 q 529 524 583 486 m 668 513 q 731 426 708 476 q 756 322 753 375 q 747 215 760 269 q 707 114 733 161 q 641 30 681 67 q 554 -26 601 -7 q 449 -40 507 -44 q 332 -4 392 -36 q 179 101 254 38 q 90 217 119 153 q 63 343 61 282 q 87 465 65 404 q 149 571 108 526 q 239 647 190 615 q 344 679 288 678 q 453 656 400 681 q 668 513 588 585 m 324 996 q 410 931 343 993 q 490 868 476 868 q 564 930 508 868 q 622 992 619 992 q 676 941 629 990 q 725 885 724 892 q 694 847 726 879 q 615 781 663 814 q 538 749 568 749 q 444 810 517 749 q 364 871 372 871 q 285 811 339 869 q 226 751 231 753 q 176 810 217 754 q 135 878 135 867 q 218 944 138 889 q 324 996 299 999 z "},"ö":{"ha":819,"x_min":61,"x_max":760,"o":"m 529 524 q 339 504 438 586 q 229 319 257 435 q 276 121 199 188 q 297 106 286 113 q 412 92 353 75 q 515 165 471 108 q 583 287 558 222 q 596 419 608 351 q 529 524 583 486 m 668 513 q 731 426 708 476 q 756 322 753 375 q 747 215 760 269 q 707 114 733 161 q 641 30 681 67 q 554 -26 601 -7 q 449 -40 507 -44 q 332 -4 392 -36 q 179 101 254 38 q 90 217 119 153 q 63 343 61 282 q 87 465 65 404 q 149 571 108 526 q 239 647 190 615 q 344 679 288 678 q 453 656 400 681 q 668 513 588 585 m 560 767 q 469 854 501 793 q 505 904 471 874 q 560 939 539 935 q 649 853 624 910 q 560 767 631 803 m 314 767 q 224 854 256 793 q 259 904 225 874 q 314 939 293 935 q 403 853 378 910 q 314 767 385 803 z "},"÷":{"ha":833,"x_min":42,"x_max":714,"o":"m 383 117 q 278 218 313 150 q 319 275 281 240 q 382 315 358 310 q 486 217 453 283 q 383 117 463 157 m 375 567 q 269 668 304 600 q 311 725 272 690 q 374 765 350 760 q 478 667 444 733 q 375 567 454 607 m 85 385 l 42 497 l 671 497 l 714 385 l 85 385 z "},"ø":{"ha":819,"x_min":58,"x_max":760,"o":"m 593 433 l 306 101 q 456 113 378 63 q 574 258 533 163 q 593 433 614 353 m 224 222 l 501 539 q 361 521 432 568 q 251 387 290 474 q 224 222 213 300 m 664 517 l 668 513 q 731 426 708 476 q 756 322 753 375 q 747 215 760 269 q 707 114 733 161 q 641 30 681 67 q 554 -26 601 -7 q 449 -40 507 -44 q 332 -4 392 -36 q 254 42 283 22 l 183 -40 l 64 40 l 146 133 q 78 248 99 185 q 65 369 58 311 q 96 484 72 426 q 160 583 119 542 q 247 651 200 624 q 349 679 294 679 q 453 656 403 679 q 553 599 513 624 l 632 689 l 747 613 l 664 517 z "},"ù":{"ha":822,"x_min":85,"x_max":749,"o":"m 503 821 l 471 764 q 222 939 360 822 q 249 1013 204 953 q 311 1069 293 1072 q 415 935 349 1017 q 503 821 481 853 m 575 663 l 749 624 l 749 -42 l 575 -3 l 575 67 q 369 -40 464 -47 q 211 63 325 -37 q 90 201 97 163 q 85 663 85 238 l 257 624 q 264 117 250 146 q 348 92 292 78 q 473 171 404 106 q 575 314 542 236 l 575 663 z "},"ú":{"ha":822,"x_min":85,"x_max":749,"o":"m 322 764 l 290 821 q 378 935 313 853 q 482 1069 444 1017 q 544 1013 500 1072 q 571 939 589 953 q 322 764 433 822 m 575 663 l 749 624 l 749 -42 l 575 -3 l 575 67 q 369 -40 464 -47 q 211 63 325 -37 q 90 201 97 163 q 85 663 85 238 l 257 624 q 264 117 250 146 q 348 92 292 78 q 473 171 404 106 q 575 314 542 236 l 575 663 z "},"û":{"ha":822,"x_min":85,"x_max":749,"o":"m 219 765 q 185 794 211 767 q 158 828 160 822 q 285 941 158 833 q 418 1047 413 1049 q 543 950 428 1044 q 657 849 658 856 q 607 801 657 842 q 551 763 557 760 q 506 799 543 763 q 428 876 468 835 q 386 918 388 917 q 306 842 385 917 q 219 765 226 768 m 575 663 l 749 624 l 749 -42 l 575 -3 l 575 67 q 369 -40 464 -47 q 211 63 325 -37 q 90 201 97 163 q 85 663 85 238 l 257 624 q 264 117 250 146 q 348 92 292 78 q 473 171 404 106 q 575 314 542 236 l 575 663 z "},"ü":{"ha":822,"x_min":85,"x_max":749,"o":"m 525 767 q 435 854 467 793 q 470 904 436 874 q 525 939 504 935 q 614 853 589 910 q 525 767 596 803 m 279 767 q 189 854 221 793 q 224 904 190 874 q 279 939 258 935 q 368 853 343 910 q 279 767 350 803 m 575 663 l 749 624 l 749 -42 l 575 -3 l 575 67 q 369 -40 464 -47 q 211 63 325 -37 q 90 201 97 163 q 85 663 85 238 l 257 624 q 264 117 250 146 q 348 92 292 78 q 473 171 404 106 q 575 314 542 236 l 575 663 z "},"ý":{"ha":769,"x_min":81,"x_max":686,"o":"m 300 764 l 268 821 q 356 935 290 853 q 460 1069 422 1017 q 522 1013 478 1072 q 549 939 567 953 q 300 764 411 822 m 513 664 l 686 625 l 686 -86 q 615 -239 686 -168 q 459 -340 544 -310 q 326 -349 374 -369 q 272 -319 308 -340 q 180 -266 235 -299 q 97 -217 125 -233 l 133 -162 q 244 -225 217 -211 q 429 -220 346 -275 q 513 -4 513 -165 l 513 47 q 339 -40 414 -46 q 195 62 294 -37 q 89 201 96 161 q 81 667 81 257 l 253 628 q 263 121 244 147 q 380 117 304 71 q 513 261 456 164 l 513 664 z "},"þ":{"ha":731,"x_min":88,"x_max":725,"o":"m 261 919 l 261 606 q 564 574 419 667 q 686 444 647 518 q 720 301 725 371 q 683 163 715 231 q 600 48 650 96 q 491 -24 550 0 q 381 -33 432 -47 q 261 18 349 -25 l 261 -354 l 88 -315 l 88 958 l 261 919 m 504 204 q 561 317 544 258 q 572 421 578 375 q 539 496 565 467 q 473 530 513 525 q 377 501 433 535 q 261 397 321 468 l 261 94 q 504 204 394 61 z "},"ÿ":{"ha":769,"x_min":81,"x_max":686,"o":"m 500 767 q 410 854 442 793 q 445 904 411 874 q 500 939 479 935 q 589 853 564 910 q 500 767 571 803 m 254 767 q 164 854 196 793 q 199 904 165 874 q 254 939 233 935 q 343 853 318 910 q 254 767 325 803 m 513 664 l 686 625 l 686 -86 q 615 -239 686 -168 q 459 -340 544 -310 q 326 -349 374 -369 q 272 -319 308 -340 q 180 -266 235 -299 q 97 -217 125 -233 l 133 -162 q 244 -225 217 -211 q 429 -220 346 -275 q 513 -4 513 -165 l 513 47 q 339 -40 414 -46 q 195 62 294 -37 q 89 201 96 161 q 81 667 81 257 l 253 628 q 263 121 244 147 q 380 117 304 71 q 513 261 456 164 l 513 664 z "},"Ā":{"ha":913,"x_min":14,"x_max":913,"o":"m 542 868 l 540 864 l 913 -40 l 733 0 l 636 254 l 308 232 l 208 -40 l 14 0 l 350 925 l 542 868 m 472 681 l 353 353 l 592 369 l 472 681 m 244 986 l 214 1067 l 617 1067 l 649 986 l 244 986 z "},"ā":{"ha":806,"x_min":82,"x_max":714,"o":"m 167 488 l 92 614 q 308 661 189 639 q 457 682 426 683 q 579 591 488 681 q 703 454 671 501 q 714 342 714 438 q 710 125 714 247 q 708 -40 707 3 l 536 0 l 538 71 q 354 -42 425 -42 q 185 85 288 -40 q 82 264 82 210 q 140 343 82 307 q 283 399 199 379 q 432 431 367 419 q 543 446 497 442 l 544 483 q 474 556 546 550 q 193 496 407 560 l 192 496 l 190 494 l 189 494 l 188 494 l 186 493 l 185 493 l 183 493 l 182 492 l 181 492 l 179 492 l 178 490 l 176 490 l 175 490 l 174 490 l 172 489 l 171 489 l 169 489 l 168 488 l 167 488 m 236 139 q 283 114 249 119 q 388 133 318 108 q 540 218 458 157 l 542 340 q 236 139 175 233 m 222 754 l 192 835 l 594 835 l 626 754 l 222 754 z "},"Ă":{"ha":913,"x_min":14,"x_max":913,"o":"m 542 868 l 540 864 l 913 -40 l 733 0 l 636 254 l 308 232 l 208 -40 l 14 0 l 350 925 l 542 868 m 472 681 l 353 353 l 592 369 l 472 681 m 208 1174 l 246 1217 q 272 1181 256 1203 q 326 1124 289 1160 q 388 1088 364 1089 q 464 1122 415 1086 q 547 1193 513 1157 l 582 1229 l 679 1143 q 661 1126 672 1136 q 617 1088 650 1115 q 554 1041 585 1061 q 485 1004 524 1021 q 417 988 446 988 q 335 1034 388 988 q 246 1128 283 1081 l 208 1174 z "},"ă":{"ha":806,"x_min":82,"x_max":714,"o":"m 167 488 l 92 614 q 308 661 189 639 q 457 682 426 683 q 579 591 488 681 q 703 454 671 501 q 714 342 714 438 q 710 125 714 247 q 708 -40 707 3 l 536 0 l 538 71 q 354 -42 425 -42 q 185 85 288 -40 q 82 264 82 210 q 140 343 82 307 q 283 399 199 379 q 432 431 367 419 q 543 446 497 442 l 544 483 q 474 556 546 550 q 193 496 407 560 l 192 496 l 190 494 l 189 494 l 188 494 l 186 493 l 185 493 l 183 493 l 182 492 l 181 492 l 179 492 l 178 490 l 176 490 l 175 490 l 174 490 l 172 489 l 171 489 l 169 489 l 168 488 l 167 488 m 236 139 q 283 114 249 119 q 388 133 318 108 q 540 218 458 157 l 542 340 q 236 139 175 233 m 199 943 l 236 986 q 263 951 246 972 q 317 894 279 929 q 378 857 354 858 q 454 891 406 856 q 538 963 503 926 l 572 999 l 669 913 q 651 895 663 906 q 608 858 640 885 q 544 810 575 831 q 475 774 514 790 q 407 757 436 757 q 326 803 378 757 q 236 897 274 850 l 199 943 z "},"Ą":{"ha":913,"x_min":14,"x_max":997,"o":"m 528 868 l 526 864 l 899 -40 q 729 -190 757 -128 q 747 -239 713 -225 q 903 -175 796 -258 l 926 -199 q 974 -247 950 -222 l 997 -271 q 873 -340 910 -326 q 792 -340 836 -353 q 706 -294 758 -331 q 625 -224 654 -258 q 599 -187 604 -199 q 599 -151 593 -176 q 638 -92 606 -126 q 733 0 669 -57 l 636 254 l 294 232 l 194 -40 l 14 0 l 350 925 l 528 868 m 465 699 l 339 353 l 592 369 l 465 699 z "},"ą":{"ha":806,"x_min":82,"x_max":838,"o":"m 540 218 l 542 340 q 236 139 175 233 q 283 114 249 119 q 388 133 318 108 q 540 218 458 157 m 167 488 l 92 614 q 308 661 189 639 q 457 682 426 683 q 579 591 488 681 q 703 454 671 501 q 714 342 714 438 q 710 125 714 247 q 708 -40 707 3 q 631 -111 657 -86 q 582 -166 606 -136 q 560 -212 558 -196 q 588 -239 563 -229 q 743 -175 636 -258 l 767 -199 q 814 -247 790 -222 l 838 -271 q 713 -340 750 -326 q 632 -340 676 -353 q 547 -294 599 -331 q 465 -224 494 -258 q 450 -206 461 -218 q 435 -189 439 -193 q 427 -172 432 -185 q 426 -151 422 -160 q 435 -128 429 -143 q 456 -96 440 -112 q 494 -56 471 -79 q 549 -3 517 -32 l 536 0 l 538 71 q 354 -42 425 -42 q 185 85 288 -40 q 82 264 82 210 q 140 343 82 307 q 283 399 199 379 q 432 431 367 419 q 543 446 497 442 l 544 483 q 474 556 546 550 q 193 496 407 560 l 192 496 l 190 494 l 189 494 l 188 494 l 186 493 l 185 493 l 183 493 l 182 492 l 181 492 l 179 492 l 178 490 l 176 490 l 175 490 l 174 490 l 172 489 l 171 489 l 169 489 l 168 488 l 167 488 z "},"Ć":{"ha":997,"x_min":96,"x_max":1007,"o":"m 908 732 q 706 831 799 790 q 548 824 632 863 q 406 700 464 785 q 315 515 347 615 q 313 313 283 415 q 438 147 343 210 q 542 108 488 114 q 651 124 597 103 q 747 169 706 144 q 839 232 789 194 l 1007 108 q 848 8 933 46 q 666 -36 763 -29 q 488 7 569 -43 q 224 203 350 88 q 135 319 167 256 q 100 445 104 382 q 108 575 96 508 q 153 700 121 642 q 227 811 186 758 q 321 901 268 864 q 428 962 374 938 q 540 985 482 986 q 649 963 597 983 q 976 807 857 867 l 908 732 m 581 1043 l 549 1100 q 637 1214 571 1132 q 740 1349 703 1296 q 803 1292 758 1351 q 829 1218 847 1232 q 581 1043 692 1101 z "},"ć":{"ha":743,"x_min":58,"x_max":706,"o":"m 663 569 l 613 497 q 564 515 592 504 q 521 530 536 525 q 488 540 506 535 q 458 548 469 546 q 436 550 446 550 q 283 433 346 546 q 238 215 224 325 q 335 93 250 106 q 599 207 433 79 l 625 176 q 679 114 653 146 l 706 83 q 610 18 651 43 q 526 -23 569 -7 q 442 -38 483 -39 q 358 -21 401 -37 q 133 140 239 25 q 65 305 71 210 q 98 482 58 400 q 215 622 138 564 q 385 679 293 679 q 663 569 428 679 m 335 764 l 303 821 q 391 935 325 853 q 494 1069 457 1017 q 557 1013 513 1072 q 583 939 601 953 q 335 764 446 822 z "},"Č":{"ha":997,"x_min":96,"x_max":1007,"o":"m 908 732 q 706 831 799 790 q 548 824 632 863 q 406 700 464 785 q 315 515 347 615 q 313 313 283 415 q 438 147 343 210 q 542 108 488 114 q 651 124 597 103 q 747 169 706 144 q 839 232 789 194 l 1007 108 q 848 8 933 46 q 666 -36 763 -29 q 488 7 569 -43 q 224 203 350 88 q 135 319 167 256 q 100 445 104 382 q 108 575 96 508 q 153 700 121 642 q 227 811 186 758 q 321 901 268 864 q 428 962 374 938 q 540 985 482 986 q 649 963 597 983 q 976 807 857 867 l 908 732 m 443 1318 l 581 1156 l 763 1325 l 861 1226 l 651 1074 l 560 1074 l 390 1257 l 443 1318 z "},"č":{"ha":743,"x_min":58,"x_max":706,"o":"m 663 569 l 613 497 q 564 515 592 504 q 521 530 536 525 q 488 540 506 535 q 458 548 469 546 q 436 550 446 550 q 283 433 346 546 q 238 215 224 325 q 335 93 250 106 q 599 207 433 79 l 625 176 q 679 114 653 146 l 706 83 q 610 18 651 43 q 526 -23 569 -7 q 442 -38 483 -39 q 358 -21 401 -37 q 133 140 239 25 q 65 305 71 210 q 98 482 58 400 q 215 622 138 564 q 385 679 293 679 q 663 569 428 679 m 222 971 l 360 808 l 542 978 l 640 879 l 431 726 l 339 726 l 169 910 l 222 971 z "},"Ď":{"ha":1124,"x_min":118,"x_max":1019,"o":"m 313 1 l 311 1 l 118 42 l 118 925 l 119 924 l 119 925 q 365 947 179 944 q 607 921 551 950 q 989 549 753 819 q 1011 485 1003 532 q 1011 371 1019 438 q 978 236 1003 304 q 890 104 953 168 q 738 6 828 40 q 536 -23 654 -24 q 313 1 418 -22 m 732 703 q 630 765 683 743 q 515 791 576 788 q 414 792 453 794 q 310 781 375 789 l 313 85 q 496 99 408 72 q 646 181 583 126 q 751 306 708 235 q 808 450 794 378 q 803 590 821 522 q 732 703 785 658 m 311 1231 l 449 1068 l 631 1238 l 729 1139 l 519 986 l 428 986 l 258 1169 l 311 1231 z "},"ď":{"ha":1036,"x_min":72,"x_max":993,"o":"m 296 71 q 561 125 406 15 l 561 515 q 449 547 521 539 q 338 490 392 553 q 256 343 283 426 q 235 178 228 260 q 296 71 243 97 m 561 986 l 735 947 q 735 1 743 10 q 663 -15 728 0 q 581 -32 599 -29 q 506 -40 563 -35 q 417 -40 450 -46 q 336 -22 385 -35 q 243 17 288 -8 q 121 122 164 60 q 75 250 78 185 q 90 383 72 315 q 148 506 108 450 q 233 606 188 563 q 328 667 278 649 q 417 674 378 686 q 455 658 435 668 q 488 639 475 647 q 526 614 501 631 q 561 590 550 597 l 561 986 m 872 615 l 815 653 q 846 814 850 764 q 783 890 803 851 q 825 947 786 913 q 888 988 864 982 q 959 935 925 969 q 992 874 993 901 q 943 736 983 822 q 872 615 903 650 z "},"Đ":{"ha":1225,"x_min":63,"x_max":1121,"o":"m 413 419 l 414 85 q 597 99 510 72 q 747 181 685 126 q 853 306 810 235 q 909 450 896 378 q 904 590 922 522 q 833 703 886 658 q 731 765 785 743 q 616 791 678 788 q 515 792 554 794 q 411 781 476 789 l 413 532 l 594 532 l 638 419 l 413 419 m 221 924 l 221 925 q 467 947 281 944 q 708 921 653 950 q 1090 549 854 819 q 1113 485 1104 532 q 1113 371 1121 438 q 1079 236 1104 304 q 992 104 1054 168 q 839 6 929 40 q 638 -23 756 -24 q 414 1 519 -22 l 413 1 l 219 42 l 219 419 l 106 419 l 63 532 l 219 532 l 219 925 l 221 924 z "},"đ":{"ha":897,"x_min":72,"x_max":878,"o":"m 561 125 l 561 515 q 449 547 521 539 q 338 490 392 553 q 256 343 283 426 q 235 178 228 260 q 296 71 243 97 q 561 125 406 15 m 878 751 l 736 751 q 735 1 740 7 q 663 -15 728 0 q 581 -32 599 -29 q 506 -40 563 -35 q 417 -40 450 -46 q 336 -22 385 -35 q 243 17 288 -8 q 121 122 164 60 q 75 250 78 185 q 90 383 72 315 q 148 506 108 450 q 233 606 188 563 q 328 667 278 649 q 417 674 378 686 q 455 658 435 668 q 488 639 475 647 q 526 614 501 631 q 561 590 550 597 l 561 751 l 481 751 l 438 864 l 561 864 l 561 986 l 735 947 l 735 864 l 835 864 l 878 751 z "},"Ē":{"ha":899,"x_min":118,"x_max":878,"o":"m 299 0 l 296 3 l 118 40 l 118 926 l 711 926 l 822 801 l 310 801 l 310 535 l 656 535 l 767 410 l 311 410 l 311 125 l 767 125 l 878 0 l 299 0 m 247 986 l 217 1067 l 619 1067 l 651 986 l 247 986 z "},"ē":{"ha":775,"x_min":57,"x_max":733,"o":"m 229 276 l 544 492 q 374 539 444 556 q 267 452 304 522 q 229 276 229 382 m 261 143 q 349 85 300 96 q 451 98 397 74 q 540 147 504 122 q 625 211 576 171 l 653 183 q 706 125 679 154 l 733 97 q 529 -22 613 8 q 364 -21 446 -51 q 139 140 244 25 q 67 305 76 210 q 91 482 57 400 q 197 622 125 564 q 353 679 268 679 q 517 608 408 679 q 699 468 626 536 q 588 383 697 464 q 369 222 479 301 l 261 143 m 188 754 l 157 835 l 560 835 l 592 754 l 188 754 z "},"Ė":{"ha":899,"x_min":118,"x_max":878,"o":"m 299 0 l 296 3 l 118 40 l 118 926 l 711 926 l 822 801 l 310 801 l 310 535 l 656 535 l 767 410 l 311 410 l 311 125 l 767 125 l 878 0 l 299 0 m 471 990 q 365 1092 400 1024 q 407 1149 368 1114 q 469 1189 446 1183 q 574 1090 540 1157 q 471 990 550 1031 z "},"ė":{"ha":775,"x_min":57,"x_max":733,"o":"m 229 276 l 544 492 q 374 539 444 556 q 267 452 304 522 q 229 276 229 382 m 261 143 q 349 85 300 96 q 451 98 397 74 q 540 147 504 122 q 625 211 576 171 l 653 183 q 706 125 679 154 l 733 97 q 529 -22 613 8 q 364 -21 446 -51 q 139 140 244 25 q 67 305 76 210 q 91 482 57 400 q 197 622 125 564 q 353 679 268 679 q 517 608 408 679 q 699 468 626 536 q 588 383 697 464 q 369 222 479 301 l 261 143 m 365 756 q 260 857 294 789 q 301 914 263 879 q 364 954 340 949 q 468 856 435 922 q 365 756 444 796 z "},"Ę":{"ha":899,"x_min":118,"x_max":1000,"o":"m 878 0 l 875 0 q 747 -147 785 -81 q 750 -239 708 -212 q 906 -175 799 -258 l 929 -199 q 976 -247 953 -222 l 1000 -271 q 876 -340 913 -326 q 794 -340 839 -353 q 709 -294 761 -331 q 628 -224 657 -258 q 682 0 558 -137 l 299 0 l 296 3 l 118 40 l 118 926 l 711 926 l 822 801 l 310 801 l 310 535 l 656 535 l 767 410 l 311 410 l 311 125 l 767 125 l 869 8 l 879 4 l 876 1 l 878 0 z "},"ę":{"ha":775,"x_min":57,"x_max":760,"o":"m 229 276 l 544 492 q 374 539 444 556 q 267 452 304 522 q 229 276 229 382 m 636 31 q 506 -132 547 -49 q 510 -239 464 -215 q 665 -175 558 -258 l 689 -199 q 736 -247 713 -222 l 760 -271 q 635 -340 672 -326 q 554 -340 599 -353 q 469 -294 521 -331 q 388 -224 417 -258 q 413 -33 325 -149 q 364 -21 389 -31 q 139 140 244 25 q 67 305 76 210 q 91 482 57 400 q 197 622 125 564 q 353 679 268 679 q 517 608 408 679 q 699 468 626 536 q 588 383 697 464 q 369 222 479 301 l 261 143 q 349 85 300 96 q 451 98 397 74 q 540 147 504 122 q 625 211 576 171 l 653 183 q 706 125 679 154 l 733 97 q 636 31 676 56 z "},"Ě":{"ha":899,"x_min":118,"x_max":878,"o":"m 299 0 l 296 3 l 118 40 l 118 926 l 711 926 l 822 801 l 310 801 l 310 535 l 656 535 l 767 410 l 311 410 l 311 125 l 767 125 l 878 0 l 299 0 m 308 1238 l 446 1075 l 628 1244 l 726 1146 l 517 993 l 425 993 l 256 1176 l 308 1238 z "},"ě":{"ha":775,"x_min":57,"x_max":733,"o":"m 229 276 l 544 492 q 374 539 444 556 q 267 452 304 522 q 229 276 229 382 m 261 143 q 349 85 300 96 q 451 98 397 74 q 540 147 504 122 q 625 211 576 171 l 653 183 q 706 125 679 154 l 733 97 q 529 -22 613 8 q 364 -21 446 -51 q 139 140 244 25 q 67 305 76 210 q 91 482 57 400 q 197 622 125 564 q 353 679 268 679 q 517 608 408 679 q 699 468 626 536 q 588 383 697 464 q 369 222 479 301 l 261 143 m 236 971 l 374 808 l 556 978 l 654 879 l 444 726 l 353 726 l 183 910 l 236 971 z "},"Ğ":{"ha":1143,"x_min":81,"x_max":1164,"o":"m 639 344 l 528 469 l 851 469 l 1043 413 q 1046 65 1046 106 q 1069 -89 1046 -44 q 1164 -154 1092 -133 q 974 -123 1064 -181 q 878 42 885 -65 l 874 104 q 783 34 824 61 q 691 -14 743 7 q 584 -30 639 -35 q 472 7 529 -25 q 235 167 308 100 q 133 296 171 226 q 88 432 96 365 q 91 568 81 499 q 133 697 101 638 q 207 811 165 757 q 302 901 249 865 q 410 962 356 938 q 524 985 465 986 q 633 963 582 983 q 957 811 882 849 l 897 738 q 701 817 876 747 q 588 831 640 842 q 484 788 535 819 q 397 704 433 757 q 333 592 361 651 q 298 467 306 533 q 298 340 290 400 q 339 228 306 281 q 428 143 372 175 q 524 115 475 115 q 617 135 574 115 q 701 189 660 156 q 776 258 742 222 q 842 328 811 294 q 856 344 851 339 l 639 344 m 349 1242 l 386 1285 q 413 1249 396 1271 q 467 1192 429 1228 q 528 1156 504 1157 q 604 1190 556 1154 q 688 1261 653 1225 l 722 1297 l 819 1211 q 801 1194 813 1204 q 758 1156 790 1183 q 694 1109 725 1129 q 625 1072 664 1089 q 557 1056 586 1056 q 476 1102 528 1056 q 386 1194 424 1149 l 349 1242 z "},"ğ":{"ha":844,"x_min":76,"x_max":803,"o":"m 242 26 q 438 48 250 8 q 639 75 626 88 q 717 -47 699 17 q 713 -164 735 -111 q 647 -260 690 -217 q 543 -329 604 -304 q 419 -354 482 -354 q 208 -292 314 -354 q 79 -186 101 -231 q 81 -174 76 -182 q 96 -156 85 -167 q 120 -132 107 -144 q 156 -98 133 -119 q 197 -57 178 -76 q 89 113 182 -35 q 85 128 86 122 q 92 138 83 133 q 111 147 101 143 q 140 154 121 150 q 176 161 158 158 q 219 170 193 164 q 267 183 244 176 q 171 260 242 199 q 106 338 128 296 q 83 419 83 381 q 96 496 83 457 q 135 565 108 535 q 191 622 161 596 q 256 662 221 649 q 322 679 292 675 q 381 669 353 683 q 514 600 475 624 l 761 600 l 803 503 l 614 503 q 389 79 778 213 q 307 54 358 69 q 242 26 242 33 m 461 542 q 331 528 403 585 q 245 388 260 471 q 290 249 231 304 q 422 263 347 210 q 512 397 496 317 q 461 542 528 476 m 242 -117 l 235 -110 l 172 -186 q 373 -218 274 -231 q 545 -156 472 -206 q 617 -53 618 -107 q 535 -73 617 -43 q 371 -125 454 -103 q 242 -117 288 -147 m 154 943 l 192 986 q 218 951 201 972 q 272 894 235 929 q 333 857 310 858 q 410 891 361 856 q 493 963 458 926 l 528 999 l 625 913 q 607 895 618 906 q 563 858 596 885 q 500 810 531 831 q 431 774 469 790 q 363 757 392 757 q 281 803 333 757 q 192 897 229 850 l 154 943 z "},"Ģ":{"ha":1143,"x_min":81,"x_max":1164,"o":"m 639 344 l 528 469 l 851 469 l 1043 413 q 1046 65 1046 106 q 1069 -89 1046 -44 q 1164 -154 1092 -133 q 974 -123 1064 -181 q 878 42 885 -65 l 874 104 q 783 34 824 61 q 691 -14 743 7 q 584 -30 639 -35 q 472 7 529 -25 q 235 167 308 100 q 133 296 171 226 q 88 432 96 365 q 91 568 81 499 q 133 697 101 638 q 207 811 165 757 q 302 901 249 865 q 410 962 356 938 q 524 985 465 986 q 633 963 582 983 q 957 811 882 849 l 897 738 q 701 817 876 747 q 588 831 640 842 q 484 788 535 819 q 397 704 433 757 q 333 592 361 651 q 298 467 306 533 q 298 340 290 400 q 339 228 306 281 q 428 143 372 175 q 524 115 475 115 q 617 135 574 115 q 701 189 660 156 q 776 258 742 222 q 842 328 811 294 q 856 344 851 339 l 639 344 m 588 -450 l 531 -412 q 561 -251 565 -301 q 499 -175 518 -214 q 540 -118 501 -153 q 603 -78 579 -83 q 674 -130 640 -96 q 707 -192 708 -164 q 658 -329 699 -243 q 588 -450 618 -415 z "},"ģ":{"ha":844,"x_min":76,"x_max":803,"o":"m 242 26 q 438 48 250 8 q 639 75 626 88 q 717 -47 699 17 q 713 -164 735 -111 q 647 -260 690 -217 q 543 -329 604 -304 q 419 -354 482 -354 q 208 -292 314 -354 q 79 -186 101 -231 q 81 -174 76 -182 q 96 -156 85 -167 q 120 -132 107 -144 q 156 -98 133 -119 q 197 -57 178 -76 q 89 113 182 -35 q 85 128 86 122 q 92 138 83 133 q 111 147 101 143 q 140 154 121 150 q 176 161 158 158 q 219 170 193 164 q 267 183 244 176 q 171 260 242 199 q 106 338 128 296 q 83 419 83 381 q 96 496 83 457 q 135 565 108 535 q 191 622 161 596 q 256 662 221 649 q 322 679 292 675 q 381 669 353 683 q 514 600 475 624 l 761 600 l 803 503 l 614 503 q 389 79 778 213 q 307 54 358 69 q 242 26 242 33 m 461 542 q 331 528 403 585 q 245 388 260 471 q 290 249 231 304 q 422 263 347 210 q 512 397 496 317 q 461 542 528 476 m 242 -117 l 235 -110 l 172 -186 q 373 -218 274 -231 q 545 -156 472 -206 q 617 -53 618 -107 q 535 -73 617 -43 q 371 -125 454 -103 q 242 -117 288 -147 m 385 1124 l 442 1086 q 411 925 407 975 q 474 849 454 888 q 432 792 471 826 q 369 751 393 757 q 298 803 332 769 q 265 865 264 838 q 314 1003 274 917 q 385 1124 354 1089 z "},"Ī":{"ha":417,"x_min":-15,"x_max":419,"o":"m 324 868 l 326 -40 l 118 0 l 118 925 l 324 868 m 15 988 l -15 1068 l 388 1068 l 419 988 l 15 988 z "},"ī":{"ha":335,"x_min":-61,"x_max":374,"o":"m 247 625 l 247 -40 l 88 -1 l 88 664 l 247 625 m -31 754 l -61 835 l 342 835 l 374 754 l -31 754 z "},"Į":{"ha":417,"x_min":32,"x_max":439,"o":"m 294 -35 l 301 -40 q 197 -103 238 -58 q 158 -184 156 -147 q 189 -239 160 -221 q 344 -175 238 -258 l 368 -199 q 415 -247 392 -222 l 439 -271 q 315 -340 351 -326 q 233 -340 278 -353 q 148 -294 200 -331 q 67 -224 96 -258 q 38 -172 44 -197 q 50 -101 32 -146 q 118 0 68 -56 l 118 925 l 324 868 l 326 -40 l 294 -35 z "},"į":{"ha":383,"x_min":8,"x_max":411,"o":"m 193 749 q 88 850 122 782 q 129 907 90 872 q 192 947 168 942 q 296 849 263 915 q 193 749 272 789 m 261 -36 l 274 -40 q 151 -160 185 -107 q 161 -239 117 -214 q 317 -175 210 -258 l 340 -199 q 388 -247 364 -222 l 411 -271 q 287 -340 324 -326 q 206 -340 250 -353 q 120 -294 172 -331 q 39 -224 68 -258 q 12 -169 15 -196 q 31 -100 8 -142 q 110 -3 53 -58 l 103 -1 l 103 664 l 276 625 l 276 -40 l 261 -36 z "},"İ":{"ha":417,"x_min":100,"x_max":326,"o":"m 324 868 l 326 -40 l 118 0 l 118 925 l 324 868 m 206 988 q 100 1089 135 1021 q 142 1146 103 1111 q 204 1186 181 1181 q 308 1088 275 1154 q 206 988 285 1028 z "},"ı":{"ha":335,"x_min":88,"x_max":247,"o":"m 247 625 l 247 -40 l 88 -1 l 88 664 l 247 625 z "},"Ķ":{"ha":928,"x_min":88,"x_max":921,"o":"m 283 868 l 285 425 l 681 925 l 861 885 l 557 501 l 921 -40 l 740 0 l 476 400 l 285 160 l 286 -40 l 92 0 l 92 175 l 88 176 l 92 182 l 92 925 l 283 868 m 472 -450 l 415 -412 q 446 -251 450 -301 q 383 -175 403 -214 q 425 -118 386 -153 q 488 -78 464 -83 q 559 -130 525 -96 q 592 -192 593 -164 q 543 -329 583 -243 q 472 -450 503 -415 z "},"ķ":{"ha":785,"x_min":88,"x_max":722,"o":"m 261 947 l 261 418 l 524 665 l 683 626 l 429 388 l 722 22 l 625 -42 l 354 317 l 261 229 l 261 -40 l 88 -1 l 88 986 l 261 947 m 400 -443 l 343 -406 q 374 -244 378 -294 q 311 -168 331 -207 q 353 -111 314 -146 q 415 -71 392 -76 q 487 -123 453 -89 q 519 -185 521 -157 q 471 -322 511 -236 q 400 -443 431 -408 z "},"Ĺ":{"ha":931,"x_min":118,"x_max":850,"o":"m 310 869 l 311 125 l 739 125 l 850 0 l 313 0 l 118 40 l 118 926 l 310 869 m 415 981 l 383 1038 q 472 1151 406 1069 q 575 1286 538 1233 q 638 1229 593 1289 q 664 1156 682 1169 q 415 981 526 1039 z "},"ĺ":{"ha":335,"x_min":65,"x_max":364,"o":"m 261 947 l 261 -40 l 88 -1 l 88 986 l 261 947 m 97 1046 l 65 1103 q 153 1217 88 1135 q 257 1351 219 1299 q 319 1294 275 1354 q 346 1221 364 1235 q 97 1046 208 1104 z "},"Ļ":{"ha":931,"x_min":118,"x_max":850,"o":"m 310 869 l 311 125 l 739 125 l 850 0 l 313 0 l 118 40 l 118 926 l 310 869 m 461 -450 l 404 -412 q 435 -251 439 -301 q 372 -175 392 -214 q 414 -118 375 -153 q 476 -78 453 -83 q 548 -130 514 -96 q 581 -192 582 -164 q 532 -329 572 -243 q 461 -450 492 -415 z "},"ļ":{"ha":335,"x_min":65,"x_max":275,"o":"m 261 947 l 261 -40 l 88 -1 l 88 986 l 261 947 m 154 -446 l 97 -408 q 128 -247 132 -297 q 65 -171 85 -210 q 107 -114 68 -149 q 169 -74 146 -79 q 241 -126 207 -92 q 274 -187 275 -160 q 225 -325 265 -239 q 154 -446 185 -411 z "},"Ľ":{"ha":931,"x_min":118,"x_max":850,"o":"m 543 557 l 486 594 q 517 756 521 706 q 454 832 474 793 q 496 889 457 854 q 558 929 535 924 q 630 877 596 911 q 663 815 664 843 q 614 678 654 764 q 543 557 574 592 m 310 869 l 311 125 l 739 125 l 850 0 l 313 0 l 118 40 l 118 926 l 310 869 z "},"ľ":{"ha":532,"x_min":88,"x_max":508,"o":"m 261 947 l 261 -40 l 88 -1 l 88 986 l 261 947 m 388 601 l 331 639 q 361 800 365 750 q 299 876 318 838 q 340 933 301 899 q 403 974 379 968 q 474 922 440 956 q 507 860 508 888 q 458 722 499 808 q 388 601 418 636 z "},"Ł":{"ha":931,"x_min":26,"x_max":849,"o":"m 738 125 l 849 0 l 311 0 l 117 40 l 117 404 l 47 385 l 26 464 l 117 497 l 117 926 l 308 869 l 308 568 l 471 628 l 521 521 l 310 460 l 310 125 l 738 125 z "},"ł":{"ha":486,"x_min":26,"x_max":461,"o":"m 461 551 l 317 508 l 317 -40 l 143 -1 l 143 456 l 47 426 l 26 506 l 143 551 l 143 986 l 317 947 l 317 621 l 411 658 l 461 551 z "},"Ń":{"ha":1058,"x_min":118,"x_max":954,"o":"m 954 869 l 954 -40 l 760 0 l 310 636 l 313 -40 l 118 0 l 118 925 l 310 869 l 760 240 l 760 925 l 954 869 m 492 985 l 460 1042 q 548 1156 482 1074 q 651 1290 614 1238 q 714 1233 669 1293 q 740 1160 758 1174 q 492 985 603 1043 z "},"ń":{"ha":847,"x_min":174,"x_max":851,"o":"m 349 764 l 317 821 q 405 935 339 853 q 508 1069 471 1017 q 571 1013 526 1072 q 597 939 615 953 q 349 764 460 822 m 354 625 l 354 568 q 571 678 478 683 q 727 567 615 675 q 846 421 839 460 q 851 -40 851 385 l 679 -1 q 672 503 688 475 q 590 531 647 550 q 470 464 532 513 q 354 350 408 415 l 354 -40 l 174 -1 l 174 664 l 354 625 z "},"Ņ":{"ha":1058,"x_min":118,"x_max":954,"o":"m 954 869 l 954 -40 l 760 0 l 310 636 l 313 -40 l 118 0 l 118 925 l 310 869 l 760 240 l 760 925 l 954 869 m 531 -450 l 474 -412 q 504 -251 508 -301 q 442 -175 461 -214 q 483 -118 444 -153 q 546 -78 522 -83 q 617 -130 583 -96 q 650 -192 651 -164 q 601 -329 642 -243 q 531 -450 561 -415 z "},"ņ":{"ha":847,"x_min":174,"x_max":851,"o":"m 422 -449 l 365 -411 q 396 -250 400 -300 q 333 -174 353 -212 q 375 -117 336 -151 q 438 -76 414 -82 q 509 -128 475 -94 q 542 -190 543 -162 q 493 -328 533 -242 q 422 -449 453 -414 m 354 625 l 354 568 q 571 678 478 683 q 727 567 615 675 q 846 421 839 460 q 851 -40 851 385 l 679 -1 q 672 503 688 475 q 590 531 647 550 q 470 464 532 513 q 354 350 408 415 l 354 -40 l 174 -1 l 174 664 l 354 625 z "},"Ň":{"ha":1058,"x_min":118,"x_max":954,"o":"m 954 869 l 954 -40 l 760 0 l 310 636 l 313 -40 l 118 0 l 118 925 l 310 869 l 760 240 l 760 925 l 954 869 m 350 1231 l 488 1068 l 669 1238 l 768 1139 l 558 986 l 467 986 l 297 1169 l 350 1231 z "},"ň":{"ha":847,"x_min":174,"x_max":851,"o":"m 471 726 l 379 726 l 210 910 l 263 971 l 400 808 l 582 978 l 681 879 l 471 726 m 354 625 l 354 568 q 571 678 478 683 q 727 567 615 675 q 846 421 839 460 q 851 -40 851 385 l 679 -1 q 672 503 688 475 q 590 531 647 550 q 470 464 532 513 q 354 350 408 415 l 354 -40 l 174 -1 l 174 664 l 354 625 z "},"Ō":{"ha":1143,"x_min":82,"x_max":1060,"o":"m 738 794 q 463 785 599 886 q 303 544 353 701 q 314 243 249 369 q 408 142 346 179 q 683 161 549 57 q 840 404 793 246 q 821 704 892 579 q 738 794 790 760 m 954 726 q 1033 605 1007 675 q 1059 462 1060 535 q 1035 314 1058 389 q 973 174 1013 239 q 878 59 933 110 q 758 -18 822 8 q 619 -40 694 -44 q 472 6 544 -36 q 433 28 461 13 q 392 49 404 43 q 357 70 381 56 q 317 97 333 85 q 278 126 301 108 q 232 164 256 143 q 182 211 208 185 q 106 328 131 260 q 84 468 82 396 q 108 615 86 540 q 170 755 131 689 q 264 873 210 821 q 378 955 318 925 q 508 985 439 985 q 644 949 578 985 q 954 726 825 851 m 414 1076 l 383 1157 l 786 1157 l 818 1076 l 414 1076 z "},"ō":{"ha":819,"x_min":61,"x_max":760,"o":"m 529 524 q 339 504 438 586 q 229 319 257 435 q 276 121 199 188 q 297 106 286 113 q 412 92 353 75 q 515 165 471 108 q 583 287 558 222 q 596 419 608 351 q 529 524 583 486 m 668 513 q 731 426 708 476 q 756 322 753 375 q 747 215 760 269 q 707 114 733 161 q 641 30 681 67 q 554 -26 601 -7 q 449 -40 507 -44 q 332 -4 392 -36 q 179 101 254 38 q 90 217 119 153 q 63 343 61 282 q 87 465 65 404 q 149 571 108 526 q 239 647 190 615 q 344 679 288 678 q 453 656 400 681 q 668 513 588 585 m 250 754 l 219 835 l 622 835 l 654 754 l 250 754 z "},"Ő":{"ha":1143,"x_min":82,"x_max":1060,"o":"m 738 794 q 463 785 599 886 q 303 544 353 701 q 314 243 249 369 q 408 142 346 179 q 683 161 549 57 q 840 404 793 246 q 821 704 892 579 q 738 794 790 760 m 954 726 q 1033 605 1007 675 q 1059 462 1060 535 q 1035 314 1058 389 q 973 174 1013 239 q 878 59 933 110 q 758 -18 822 8 q 619 -40 694 -44 q 472 6 544 -36 q 433 28 461 13 q 392 49 404 43 q 357 70 381 56 q 317 97 333 85 q 278 126 301 108 q 232 164 256 143 q 182 211 208 185 q 106 328 131 260 q 84 468 82 396 q 108 615 86 540 q 170 755 131 689 q 264 873 210 821 q 378 955 318 925 q 508 985 439 985 q 644 949 578 985 q 954 726 825 851 m 761 1054 l 692 1074 q 697 1185 696 1115 q 703 1307 697 1256 q 799 1279 704 1333 q 863 1233 856 1247 q 846 1194 851 1208 q 833 1164 840 1179 q 822 1143 825 1149 q 811 1124 819 1138 q 799 1107 803 1111 q 783 1084 796 1103 q 761 1054 769 1065 m 524 1054 l 454 1074 q 459 1185 458 1115 q 465 1307 460 1256 q 561 1279 467 1333 q 625 1233 618 1247 q 608 1194 614 1208 q 595 1164 603 1179 q 585 1143 588 1149 q 574 1124 582 1138 q 562 1107 565 1111 q 545 1084 558 1103 q 524 1054 532 1065 z "},"ő":{"ha":819,"x_min":61,"x_max":760,"o":"m 529 524 q 339 504 438 586 q 229 319 257 435 q 276 121 199 188 q 297 106 286 113 q 412 92 353 75 q 515 165 471 108 q 583 287 558 222 q 596 419 608 351 q 529 524 583 486 m 668 513 q 731 426 708 476 q 756 322 753 375 q 747 215 760 269 q 707 114 733 161 q 641 30 681 67 q 554 -26 601 -7 q 449 -40 507 -44 q 332 -4 392 -36 q 179 101 254 38 q 90 217 119 153 q 63 343 61 282 q 87 465 65 404 q 149 571 108 526 q 239 647 190 615 q 344 679 288 678 q 453 656 400 681 q 668 513 588 585 m 564 761 l 494 781 q 499 892 499 822 q 506 1014 500 963 q 601 986 507 1040 q 665 940 658 954 q 649 901 654 915 q 635 871 643 886 q 625 850 628 856 q 614 831 622 844 q 602 814 606 818 q 585 791 599 810 q 564 761 572 772 m 326 761 l 257 781 q 262 892 261 822 q 268 1014 263 963 q 364 986 269 1040 q 428 940 421 954 q 411 901 417 915 q 398 871 406 886 q 388 850 390 856 q 376 831 385 844 q 365 814 368 818 q 348 791 361 810 q 326 761 335 772 z "},"Œ":{"ha":1653,"x_min":104,"x_max":1583,"o":"m 1004 0 l 824 40 l 824 68 q 715 -2 772 21 q 592 -20 658 -25 q 461 24 525 -15 q 419 49 450 31 q 376 74 388 67 q 339 99 365 82 q 295 132 313 117 q 251 172 278 147 q 196 226 224 197 q 131 328 154 269 q 106 448 108 386 q 116 576 104 510 q 156 702 128 642 q 219 817 183 763 q 303 909 256 871 q 400 969 350 947 q 507 988 450 992 q 618 953 564 983 q 824 808 746 876 l 824 926 l 1417 926 l 1528 801 l 1001 801 l 1001 535 l 1361 535 l 1472 410 l 1003 410 l 1003 125 l 1472 125 l 1583 0 l 1004 0 m 704 800 q 450 783 574 889 q 307 535 347 697 q 332 235 263 356 q 403 158 360 188 q 653 172 526 74 q 803 410 757 256 q 785 713 854 588 q 704 800 756 765 z "},"œ":{"ha":1374,"x_min":75,"x_max":1294,"o":"m 810 151 q 847 115 819 138 q 894 89 874 93 q 1031 117 951 78 q 1186 218 1111 156 l 1214 189 q 1267 133 1240 161 l 1294 104 q 1090 -15 1174 15 q 925 -14 1007 -44 q 725 121 824 24 q 633 11 689 53 q 503 -40 576 -31 q 346 -4 429 -49 q 193 101 268 38 q 104 217 133 153 q 77 343 75 282 q 101 465 79 404 q 163 571 122 526 q 253 647 204 615 q 358 679 301 678 q 467 656 414 681 q 669 522 600 583 q 774 641 710 596 q 914 686 838 686 q 1078 615 969 686 q 1260 475 1188 543 q 1146 390 1258 471 q 922 231 1033 308 l 810 151 m 547 529 q 343 513 446 594 q 232 329 258 443 q 281 124 201 196 q 314 99 296 110 q 452 90 386 63 q 566 188 518 118 q 625 338 614 258 q 626 389 624 354 q 547 529 619 482 m 957 579 q 833 494 889 579 q 771 308 778 410 q 769 282 771 292 l 1117 504 q 957 579 1008 579 z "},"Ŕ":{"ha":964,"x_min":118,"x_max":975,"o":"m 683 289 q 619 357 671 313 q 311 346 485 307 l 313 -40 l 118 0 l 118 929 q 401 975 244 964 q 597 958 557 986 q 728 832 639 921 q 851 703 817 743 q 844 558 888 658 q 694 393 800 458 q 854 317 842 331 q 880 256 872 290 q 888 199 888 222 q 885 132 888 175 q 882 74 882 89 q 880 31 882 60 q 878 -11 878 3 q 882 -47 878 -25 q 896 -81 886 -68 q 925 -107 906 -93 q 975 -131 944 -121 q 792 -95 865 -153 q 713 74 719 -37 q 710 125 713 82 q 706 188 708 168 q 699 238 704 207 q 683 289 693 269 m 660 801 q 310 824 578 879 l 311 435 q 487 463 408 433 q 607 540 565 493 q 671 638 649 586 q 689 733 693 689 q 660 801 685 778 m 446 1068 l 414 1125 q 502 1239 436 1157 q 606 1374 568 1321 q 668 1317 624 1376 q 694 1243 713 1257 q 446 1068 557 1126 z "},"ŕ":{"ha":646,"x_min":89,"x_max":689,"o":"m 263 625 l 263 522 q 435 682 364 682 q 551 647 469 682 q 689 574 633 611 l 593 435 q 444 505 507 499 q 343 480 381 511 q 263 379 306 449 l 263 -40 l 89 -1 l 89 664 l 263 625 m 296 764 l 264 821 q 352 935 286 853 q 456 1069 418 1017 q 518 1013 474 1072 q 544 939 563 953 q 296 764 407 822 z "},"Ŗ":{"ha":964,"x_min":118,"x_max":975,"o":"m 683 289 q 619 357 671 313 q 311 346 485 307 l 313 -40 l 118 0 l 118 929 q 401 975 244 964 q 597 958 557 986 q 728 832 639 921 q 851 703 817 743 q 844 558 888 658 q 694 393 800 458 q 854 317 842 331 q 880 256 872 290 q 888 199 888 222 q 885 132 888 175 q 882 74 882 89 q 880 31 882 60 q 878 -11 878 3 q 882 -47 878 -25 q 896 -81 886 -68 q 925 -107 906 -93 q 975 -131 944 -121 q 792 -95 865 -153 q 713 74 719 -37 q 710 125 713 82 q 706 188 708 168 q 699 238 704 207 q 683 289 693 269 m 660 801 q 310 824 578 879 l 311 435 q 487 463 408 433 q 607 540 565 493 q 671 638 649 586 q 689 733 693 689 q 660 801 685 778 m 497 -446 l 440 -408 q 471 -247 475 -297 q 408 -171 428 -210 q 450 -114 411 -149 q 513 -74 489 -79 q 584 -126 550 -92 q 617 -187 618 -160 q 568 -325 608 -239 q 497 -446 528 -411 z "},"ŗ":{"ha":646,"x_min":79,"x_max":689,"o":"m 263 625 l 263 522 q 435 682 364 682 q 551 647 469 682 q 689 574 633 611 l 593 435 q 444 505 507 499 q 343 480 381 511 q 263 379 306 449 l 263 -40 l 89 -1 l 89 664 l 263 625 m 168 -449 l 111 -411 q 142 -250 146 -300 q 79 -174 99 -212 q 121 -117 82 -151 q 183 -76 160 -82 q 255 -128 221 -94 q 288 -190 289 -162 q 239 -328 279 -242 q 168 -449 199 -414 z "},"Ř":{"ha":964,"x_min":118,"x_max":975,"o":"m 683 289 q 619 357 671 313 q 311 346 485 307 l 313 -40 l 118 0 l 118 929 q 401 975 244 964 q 597 958 557 986 q 728 832 639 921 q 851 703 817 743 q 844 558 888 658 q 694 393 800 458 q 854 317 842 331 q 880 256 872 290 q 888 199 888 222 q 885 132 888 175 q 882 74 882 89 q 880 31 882 60 q 878 -11 878 3 q 882 -47 878 -25 q 896 -81 886 -68 q 925 -107 906 -93 q 975 -131 944 -121 q 792 -95 865 -153 q 713 74 719 -37 q 710 125 713 82 q 706 188 708 168 q 699 238 704 207 q 683 289 693 269 m 660 801 q 310 824 578 879 l 311 435 q 487 463 408 433 q 607 540 565 493 q 671 638 649 586 q 689 733 693 689 q 660 801 685 778 m 290 1318 l 428 1156 l 610 1325 l 708 1226 l 499 1074 l 407 1074 l 238 1257 l 290 1318 z "},"ř":{"ha":646,"x_min":89,"x_max":689,"o":"m 263 625 l 263 522 q 435 682 364 682 q 551 647 469 682 q 689 574 633 611 l 593 435 q 444 505 507 499 q 343 480 381 511 q 263 379 306 449 l 263 -40 l 89 -1 l 89 664 l 263 625 m 167 971 l 304 808 l 486 978 l 585 879 l 375 726 l 283 726 l 114 910 l 167 971 z "},"Ś":{"ha":1050,"x_min":69,"x_max":1000,"o":"m 832 732 q 719 768 774 754 q 595 784 664 782 q 474 767 526 786 q 378 692 421 747 q 321 549 335 638 q 426 540 318 533 q 638 554 535 546 q 779 542 740 563 q 972 315 917 419 q 949 171 1000 265 q 760 -3 883 53 q 282 71 542 -103 q 69 258 176 142 l 111 279 q 241 213 192 236 q 365 165 290 189 q 497 139 440 140 q 714 203 629 136 q 810 386 799 271 q 710 383 811 399 q 506 354 608 367 q 350 374 403 342 q 176 549 294 418 q 138 647 139 594 q 172 754 136 700 q 261 851 208 808 q 385 922 314 894 q 528 950 457 950 q 596 927 546 950 q 734 858 646 904 q 850 799 822 813 l 832 732 m 471 986 l 439 1043 q 527 1157 461 1075 q 631 1292 593 1239 q 693 1235 649 1294 q 719 1161 738 1175 q 471 986 582 1044 z "},"ś":{"ha":771,"x_min":28,"x_max":703,"o":"m 578 618 l 563 543 q 385 568 428 574 q 278 502 317 560 q 250 392 239 444 q 314 394 253 379 q 447 426 375 410 q 540 431 519 442 q 669 299 636 381 q 677 142 703 217 q 572 14 651 68 q 382 -40 493 -40 q 212 10 290 -40 q 28 163 133 61 l 53 210 q 253 115 147 139 q 449 133 358 90 q 571 292 540 176 q 558 296 572 297 q 482 278 543 294 q 236 247 289 226 l 224 254 q 100 382 147 313 q 72 482 65 429 q 107 578 78 535 q 194 651 136 622 q 322 679 253 679 q 381 671 343 679 q 490 642 419 663 q 578 618 560 622 m 279 764 l 247 821 q 335 935 269 853 q 439 1069 401 1017 q 501 1013 457 1072 q 528 939 546 953 q 279 764 390 822 z "},"Ş":{"ha":1050,"x_min":69,"x_max":982,"o":"m 850 799 l 832 732 q 719 768 774 754 q 595 784 664 782 q 474 767 526 786 q 378 692 421 747 q 321 549 335 638 q 426 540 318 533 q 638 554 535 546 q 779 542 740 563 q 972 315 917 419 q 978 248 982 289 q 941 158 974 207 q 865 66 908 108 q 754 -6 822 24 q 611 -37 686 -35 l 590 -112 q 617 -108 601 -111 q 642 -102 633 -104 q 664 -99 651 -100 q 683 -97 676 -97 q 697 -97 690 -96 q 709 -100 704 -97 q 717 -107 714 -103 q 733 -165 731 -128 q 728 -239 736 -201 q 694 -306 719 -276 q 628 -340 668 -336 q 591 -340 615 -342 q 520 -325 567 -337 q 429 -292 474 -312 l 444 -267 q 471 -271 453 -268 q 496 -274 489 -274 q 517 -274 503 -275 q 550 -269 532 -274 q 599 -222 579 -264 q 597 -164 618 -181 q 565 -160 593 -161 q 508 -158 536 -158 l 482 -158 l 506 -29 q 69 258 290 18 l 111 279 q 241 213 192 236 q 365 165 290 189 q 497 139 440 140 q 714 203 629 136 q 810 386 799 271 q 710 383 811 399 q 506 354 608 367 q 350 374 403 342 q 176 549 294 418 q 138 647 139 594 q 172 754 136 700 q 261 851 208 808 q 385 922 314 894 q 528 950 457 950 q 596 927 546 950 q 734 858 646 904 q 850 799 822 813 z "},"ş":{"ha":771,"x_min":28,"x_max":703,"o":"m 578 618 l 563 543 q 385 568 428 574 q 278 502 317 560 q 250 392 239 444 q 314 394 253 379 q 447 426 375 410 q 540 431 519 442 q 669 300 635 381 q 678 146 703 219 q 577 17 654 72 q 393 -40 500 -37 l 372 -112 q 399 -108 383 -111 q 424 -102 415 -104 q 446 -99 433 -100 q 465 -97 458 -97 q 479 -97 472 -96 q 491 -100 486 -97 q 499 -107 496 -103 q 515 -165 513 -128 q 510 -239 518 -201 q 476 -306 501 -276 q 410 -340 450 -336 q 373 -340 397 -342 q 302 -325 349 -337 q 211 -292 256 -312 l 226 -267 q 253 -271 235 -268 q 278 -274 271 -274 q 299 -274 285 -275 q 332 -269 314 -274 q 381 -222 361 -264 q 379 -164 400 -181 q 347 -160 375 -161 q 292 -158 318 -158 l 264 -158 l 288 -25 q 167 40 225 -4 q 28 163 110 85 l 53 210 q 253 115 147 139 q 449 133 358 90 q 571 292 540 176 q 558 296 572 297 q 482 278 543 294 q 236 247 289 226 l 224 254 q 100 382 147 313 q 72 482 65 429 q 107 578 78 535 q 194 651 136 622 q 322 679 253 679 q 381 671 343 679 q 490 642 419 663 q 578 618 560 622 z "},"Š":{"ha":1050,"x_min":69,"x_max":1000,"o":"m 832 732 q 719 768 774 754 q 595 784 664 782 q 474 767 526 786 q 378 692 421 747 q 321 549 335 638 q 426 540 318 533 q 638 554 535 546 q 779 542 740 563 q 972 315 917 419 q 949 171 1000 265 q 760 -3 883 53 q 282 71 542 -103 q 69 258 176 142 l 111 279 q 241 213 192 236 q 365 165 290 189 q 497 139 440 140 q 714 203 629 136 q 810 386 799 271 q 710 383 811 399 q 506 354 608 367 q 350 374 403 342 q 176 549 294 418 q 138 647 139 594 q 172 754 136 700 q 261 851 208 808 q 385 922 314 894 q 528 950 457 950 q 596 927 546 950 q 734 858 646 904 q 850 799 822 813 l 832 732 m 365 1253 l 503 1090 l 685 1260 l 783 1161 l 574 1008 l 482 1008 l 313 1192 l 365 1253 z "},"š":{"ha":771,"x_min":28,"x_max":703,"o":"m 578 618 l 563 543 q 385 568 428 574 q 278 502 317 560 q 250 392 239 444 q 314 394 253 379 q 447 426 375 410 q 540 431 519 442 q 669 299 636 381 q 677 142 703 217 q 572 14 651 68 q 382 -40 493 -40 q 212 10 290 -40 q 28 163 133 61 l 53 210 q 253 115 147 139 q 449 133 358 90 q 571 292 540 176 q 558 296 572 297 q 482 278 543 294 q 236 247 289 226 l 224 254 q 100 382 147 313 q 72 482 65 429 q 107 578 78 535 q 194 651 136 622 q 322 679 253 679 q 381 671 343 679 q 490 642 419 663 q 578 618 560 622 m 206 971 l 343 808 l 525 978 l 624 879 l 414 726 l 322 726 l 153 910 l 206 971 z "},"Ţ":{"ha":899,"x_min":0,"x_max":899,"o":"m 521 -31 l 497 -112 q 524 -108 508 -111 q 549 -102 540 -104 q 571 -99 558 -100 q 590 -97 583 -97 q 604 -97 597 -96 q 616 -100 611 -97 q 624 -107 621 -103 q 640 -165 638 -128 q 635 -239 643 -201 q 601 -306 626 -276 q 535 -340 575 -336 q 498 -340 522 -342 q 427 -325 474 -337 q 336 -292 381 -312 l 351 -267 q 378 -271 360 -268 q 403 -274 396 -274 q 424 -274 410 -275 q 457 -269 439 -274 q 506 -222 486 -264 q 504 -164 525 -181 q 472 -160 500 -161 q 417 -158 443 -158 l 389 -158 l 415 -8 l 372 0 l 372 801 l 111 801 l 0 926 l 788 926 l 899 801 l 564 801 l 567 -40 l 521 -31 z "},"ţ":{"ha":593,"x_min":32,"x_max":578,"o":"m 343 -21 l 317 -112 q 344 -108 328 -111 q 369 -102 360 -104 q 390 -99 378 -100 q 410 -97 403 -97 q 424 -97 417 -96 q 435 -100 431 -97 q 443 -107 440 -103 q 460 -165 457 -128 q 454 -239 463 -201 q 420 -306 446 -276 q 354 -340 394 -336 q 317 -340 342 -342 q 247 -325 293 -337 q 156 -292 200 -312 l 171 -267 q 197 -271 179 -268 q 222 -274 215 -274 q 244 -274 229 -275 q 276 -269 258 -274 q 325 -222 306 -264 q 324 -164 344 -181 q 291 -160 319 -161 q 236 -158 263 -158 l 208 -158 l 243 36 q 173 105 200 68 q 146 169 146 142 l 146 567 l 74 567 l 32 664 l 146 664 l 146 814 l 317 775 l 317 664 l 486 664 l 528 567 l 317 567 l 317 390 q 317 344 317 375 q 316 269 317 307 q 320 199 315 232 q 332 138 325 165 q 356 93 339 110 q 396 71 372 76 q 456 78 419 65 q 540 122 493 92 l 578 79 q 443 -24 497 6 q 343 -21 407 -44 z "},"Ť":{"ha":899,"x_min":0,"x_max":899,"o":"m 111 801 l 0 926 l 788 926 l 899 801 l 564 801 l 567 -40 l 372 0 l 372 801 l 111 801 m 289 1228 l 426 1065 l 608 1235 l 707 1136 l 497 983 l 406 983 l 236 1167 l 289 1228 z "},"ť":{"ha":593,"x_min":32,"x_max":578,"o":"m 74 567 l 32 664 l 146 664 l 146 814 l 317 775 l 317 664 l 486 664 l 528 567 l 317 567 l 317 390 q 317 344 317 375 q 316 269 317 307 q 320 199 315 232 q 332 138 325 165 q 356 93 339 110 q 396 71 372 76 q 456 78 419 65 q 540 122 493 92 l 578 79 q 443 -24 497 6 q 328 -16 401 -47 q 201 72 256 15 q 146 169 146 128 l 146 567 l 74 567 m 432 715 l 375 753 q 406 914 410 864 q 343 990 363 951 q 385 1047 346 1013 q 447 1088 424 1082 q 519 1035 485 1069 q 551 974 553 1001 q 503 836 543 922 q 432 715 463 750 z "},"Ū":{"ha":925,"x_min":63,"x_max":876,"o":"m 667 986 l 263 986 l 232 1067 l 635 1067 l 667 986 m 683 926 l 876 869 l 876 219 q 754 49 876 140 q 494 -42 632 -42 q 292 42 413 -42 q 69 238 171 125 q 67 260 68 239 q 65 314 65 281 q 63 392 64 347 q 63 485 63 436 q 63 585 63 533 q 63 685 63 638 q 64 778 64 733 q 65 854 64 822 q 65 906 65 886 l 65 926 q 113 911 65 925 q 208 883 161 897 l 257 869 q 258 164 251 172 q 405 101 315 103 q 574 147 494 99 q 683 272 653 196 l 683 926 z "},"ū":{"ha":822,"x_min":85,"x_max":749,"o":"m 610 754 l 206 754 l 175 835 l 578 835 l 610 754 m 575 663 l 749 624 l 749 -42 l 575 -3 l 575 67 q 369 -40 464 -47 q 211 63 325 -37 q 90 201 97 163 q 85 663 85 238 l 257 624 q 264 117 250 146 q 348 92 292 78 q 473 171 404 106 q 575 314 542 236 l 575 663 z "},"Ů":{"ha":925,"x_min":63,"x_max":876,"o":"m 488 1229 q 409 1218 449 1253 q 367 1136 369 1183 q 404 1060 364 1089 q 453 1056 429 1049 q 492 1087 476 1064 q 517 1136 508 1110 q 517 1189 525 1163 q 488 1229 510 1215 m 328 1042 q 276 1119 288 1074 q 281 1202 265 1164 q 326 1274 297 1240 q 392 1315 354 1307 q 467 1308 431 1324 q 572 1243 533 1274 q 610 1175 603 1217 q 604 1094 618 1133 q 562 1022 590 1054 q 491 981 533 989 q 401 994 449 974 q 328 1042 356 1018 m 683 926 l 876 869 l 876 219 q 754 49 876 140 q 494 -42 632 -42 q 292 42 413 -42 q 69 238 171 125 q 67 260 68 239 q 65 314 65 281 q 63 392 64 347 q 63 485 63 436 q 63 585 63 533 q 63 685 63 638 q 64 778 64 733 q 65 854 64 822 q 65 906 65 886 l 65 926 q 113 911 65 925 q 208 883 161 897 l 257 869 q 258 164 251 172 q 405 101 315 103 q 574 147 494 99 q 683 272 653 196 l 683 926 z "},"ů":{"ha":822,"x_min":85,"x_max":749,"o":"m 449 1007 q 370 996 410 1031 q 328 914 331 961 q 365 838 325 867 q 414 834 390 826 q 453 865 438 842 q 478 914 469 888 q 478 967 486 940 q 449 1007 471 993 m 289 819 q 238 897 249 851 q 242 980 226 942 q 287 1051 258 1018 q 353 1093 315 1085 q 428 1086 392 1101 q 533 1021 494 1051 q 572 953 564 994 q 565 872 579 911 q 523 799 551 832 q 452 759 494 767 q 363 772 410 751 q 289 819 317 796 m 575 663 l 749 624 l 749 -42 l 575 -3 l 575 67 q 369 -40 464 -47 q 211 63 325 -37 q 90 201 97 163 q 85 663 85 238 l 257 624 q 264 117 250 146 q 348 92 292 78 q 473 171 404 106 q 575 314 542 236 l 575 663 z "},"Ű":{"ha":925,"x_min":63,"x_max":876,"o":"m 586 988 l 517 1007 q 522 1119 521 1049 q 528 1240 522 1189 q 624 1213 529 1267 q 688 1167 681 1181 q 671 1127 676 1142 q 658 1097 665 1113 q 647 1076 650 1082 q 636 1058 644 1071 q 624 1040 628 1044 q 608 1017 621 1036 q 586 988 594 999 m 349 988 l 279 1007 q 284 1119 283 1049 q 290 1240 285 1189 q 386 1213 292 1267 q 450 1167 443 1181 q 433 1127 439 1142 q 420 1097 428 1113 q 410 1076 413 1082 q 399 1058 407 1071 q 387 1040 390 1044 q 370 1017 383 1036 q 349 988 357 999 m 683 926 l 876 869 l 876 219 q 754 49 876 140 q 494 -42 632 -42 q 292 42 413 -42 q 69 238 171 125 q 67 260 68 239 q 65 314 65 281 q 63 392 64 347 q 63 485 63 436 q 63 585 63 533 q 63 685 63 638 q 64 778 64 733 q 65 854 64 822 q 65 906 65 886 l 65 926 q 113 911 65 925 q 208 883 161 897 l 257 869 q 258 164 251 172 q 405 101 315 103 q 574 147 494 99 q 683 272 653 196 l 683 926 z "},"ű":{"ha":822,"x_min":85,"x_max":749,"o":"m 532 761 l 463 781 q 467 892 467 822 q 474 1014 468 963 q 569 986 475 1040 q 633 940 626 954 q 617 901 622 915 q 603 871 611 886 q 593 850 596 856 q 582 831 590 844 q 570 814 574 818 q 553 791 567 810 q 532 761 540 772 m 294 761 l 225 781 q 230 892 229 822 q 236 1014 231 963 q 332 986 238 1040 q 396 940 389 954 q 379 901 385 915 q 366 871 374 886 q 356 850 358 856 q 344 831 353 844 q 333 814 336 818 q 316 791 329 810 q 294 761 303 772 m 575 663 l 749 624 l 749 -42 l 575 -3 l 575 67 q 369 -40 464 -47 q 211 63 325 -37 q 90 201 97 163 q 85 663 85 238 l 257 624 q 264 117 250 146 q 348 92 292 78 q 473 171 404 106 q 575 314 542 236 l 575 663 z "},"Ų":{"ha":925,"x_min":63,"x_max":876,"o":"m 683 926 l 876 869 l 876 219 q 763 56 876 144 q 517 -40 650 -32 q 459 -105 483 -74 q 422 -164 435 -136 q 411 -211 408 -192 q 435 -239 414 -231 q 590 -175 483 -258 l 614 -199 q 661 -247 638 -222 l 685 -271 q 560 -340 597 -326 q 479 -340 524 -353 q 394 -294 446 -331 q 313 -224 342 -258 q 364 -1 243 -139 q 69 238 218 75 q 67 260 68 239 q 65 314 65 281 q 63 392 64 347 q 63 485 63 436 q 63 585 63 533 q 63 685 63 638 q 64 778 64 733 q 65 854 64 822 q 65 906 65 886 l 65 926 q 113 911 65 925 q 208 883 161 897 l 257 869 q 258 164 251 172 q 405 101 315 103 q 574 147 494 99 q 683 272 653 196 l 683 926 z "},"ų":{"ha":822,"x_min":85,"x_max":872,"o":"m 699 -31 l 735 -40 q 612 -160 646 -107 q 622 -239 578 -214 q 778 -175 671 -258 l 801 -199 q 849 -247 825 -222 l 872 -271 q 748 -340 785 -326 q 667 -340 711 -353 q 581 -294 633 -331 q 500 -224 529 -258 q 473 -167 476 -194 q 493 -98 469 -140 q 575 1 517 -56 l 575 67 q 369 -40 464 -47 q 211 63 325 -37 q 90 201 97 163 q 85 663 85 238 l 257 624 q 264 117 250 146 q 348 92 292 78 q 473 171 404 106 q 575 314 542 236 l 575 663 l 749 624 l 749 -42 l 699 -31 z "},"Ÿ":{"ha":821,"x_min":0,"x_max":833,"o":"m 174 886 l 413 510 l 640 925 l 833 885 l 533 339 l 536 -40 l 342 0 l 342 382 l 0 926 l 174 886 m 519 1024 q 429 1111 461 1050 q 465 1161 431 1131 q 519 1196 499 1192 q 608 1110 583 1167 q 519 1024 590 1060 m 274 1024 q 183 1111 215 1050 q 219 1161 185 1131 q 274 1196 253 1192 q 363 1110 338 1167 q 274 1024 344 1060 z "},"Ź":{"ha":1160,"x_min":72,"x_max":1081,"o":"m 183 801 l 72 926 l 906 926 l 1017 801 l 381 125 l 969 125 l 1081 0 l 225 0 l 115 122 l 113 124 l 114 125 l 738 801 l 183 801 m 544 986 l 513 1043 q 601 1157 535 1075 q 704 1292 667 1239 q 767 1235 722 1294 q 793 1161 811 1175 q 544 986 656 1044 z "},"ź":{"ha":672,"x_min":7,"x_max":658,"o":"m 614 561 l 378 261 l 553 178 q 642 72 625 142 q 625 -73 658 1 q 535 -214 592 -147 q 403 -318 479 -281 q 260 -344 326 -356 q 142 -290 217 -337 q 10 -185 67 -242 l 42 -151 q 119 -196 88 -182 q 269 -208 203 -225 q 379 -138 335 -190 q 447 -27 424 -86 q 466 86 469 32 q 431 163 463 140 q 197 269 379 197 l 196 269 l 186 274 l 411 563 l 49 563 l 7 664 l 572 664 l 614 563 l 607 563 l 614 561 m 240 764 l 208 821 q 297 935 231 853 q 400 1069 363 1017 q 463 1013 418 1072 q 489 939 507 953 q 240 764 351 822 z "},"Ż":{"ha":1160,"x_min":72,"x_max":1081,"o":"m 183 801 l 72 926 l 906 926 l 1017 801 l 381 125 l 969 125 l 1081 0 l 225 0 l 115 122 l 113 124 l 114 125 l 738 801 l 183 801 m 581 988 q 475 1089 510 1021 q 517 1146 478 1111 q 579 1186 556 1181 q 683 1088 650 1154 q 581 988 660 1028 z "},"ż":{"ha":672,"x_min":7,"x_max":658,"o":"m 614 561 l 378 261 l 553 178 q 642 72 625 142 q 625 -73 658 1 q 535 -214 592 -147 q 403 -318 479 -281 q 260 -344 326 -356 q 142 -290 217 -337 q 10 -185 67 -242 l 42 -151 q 119 -196 88 -182 q 269 -208 203 -225 q 379 -138 335 -190 q 447 -27 424 -86 q 466 86 469 32 q 431 163 463 140 q 197 269 379 197 l 196 269 l 186 274 l 411 563 l 49 563 l 7 664 l 572 664 l 614 563 l 607 563 l 614 561 m 297 789 q 192 890 226 822 q 233 947 194 913 q 296 988 272 982 q 400 889 367 956 q 297 789 376 829 z "},"Ž":{"ha":1160,"x_min":72,"x_max":1081,"o":"m 183 801 l 72 926 l 906 926 l 1017 801 l 381 125 l 969 125 l 1081 0 l 225 0 l 115 122 l 113 124 l 114 125 l 738 801 l 183 801 m 392 1228 l 529 1065 l 711 1235 l 810 1136 l 600 983 l 508 983 l 339 1167 l 392 1228 z "},"ž":{"ha":679,"x_min":14,"x_max":665,"o":"m 621 561 l 385 261 l 560 178 q 649 72 632 142 q 632 -73 665 1 q 542 -214 599 -147 q 410 -318 486 -281 q 267 -344 333 -356 q 149 -290 224 -337 q 17 -185 74 -242 l 49 -151 q 126 -196 94 -182 q 276 -208 210 -225 q 386 -138 342 -190 q 453 -27 431 -86 q 473 86 476 32 q 438 163 469 140 q 204 269 386 197 l 203 269 l 193 274 l 418 563 l 56 563 l 14 664 l 579 664 l 621 563 l 614 563 l 621 561 m 140 971 l 278 808 l 460 978 l 558 879 l 349 726 l 257 726 l 88 910 l 140 971 z "},"ƒ":{"ha":729,"x_min":-22,"x_max":658,"o":"m 154 331 l 113 428 l 190 428 q 228 761 214 688 q 270 899 242 844 q 333 976 299 954 q 403 997 368 997 q 474 978 439 997 q 581 869 504 960 q 658 760 658 778 q 614 603 658 718 q 501 428 569 488 l 567 428 l 608 331 l 324 331 q 282 -131 297 -28 q 182 -233 271 -211 q -22 -203 93 -256 q 142 -96 128 -203 q 182 331 158 49 l 154 331 m 343 613 q 331 432 338 558 q 433 508 385 453 q 506 629 481 564 q 535 760 531 694 q 510 868 540 826 q 431 860 478 913 q 346 640 365 790 q 343 613 344 626 z "},"Ș":{"ha":1050,"x_min":69,"x_max":1000,"o":"m 832 732 q 719 768 774 754 q 595 784 664 782 q 474 767 526 786 q 378 692 421 747 q 321 549 335 638 q 426 540 318 533 q 638 554 535 546 q 779 542 740 563 q 972 315 917 419 q 949 171 1000 265 q 760 -3 883 53 q 282 71 542 -103 q 69 258 176 142 l 111 279 q 241 213 192 236 q 365 165 290 189 q 497 139 440 140 q 714 203 629 136 q 810 386 799 271 q 710 383 811 399 q 506 354 608 367 q 350 374 403 342 q 176 549 294 418 q 138 647 139 594 q 172 754 136 700 q 261 851 208 808 q 385 922 314 894 q 528 950 457 950 q 596 927 546 950 q 734 858 646 904 q 850 799 822 813 l 832 732 m 571 -450 l 514 -412 q 544 -251 549 -301 q 482 -175 501 -214 q 524 -118 485 -153 q 586 -78 563 -83 q 658 -130 624 -96 q 690 -192 692 -164 q 642 -329 682 -243 q 571 -450 601 -415 z "},"ș":{"ha":771,"x_min":28,"x_max":703,"o":"m 578 618 l 563 543 q 385 568 428 574 q 278 502 317 560 q 250 392 239 444 q 314 394 253 379 q 447 426 375 410 q 540 431 519 442 q 669 299 636 381 q 677 142 703 217 q 572 14 651 68 q 382 -40 493 -40 q 212 10 290 -40 q 28 163 133 61 l 53 210 q 253 115 147 139 q 449 133 358 90 q 571 292 540 176 q 558 296 572 297 q 482 278 543 294 q 236 247 289 226 l 224 254 q 100 382 147 313 q 72 482 65 429 q 107 578 78 535 q 194 651 136 622 q 322 679 253 679 q 381 671 343 679 q 490 642 419 663 q 578 618 560 622 m 376 -443 l 319 -406 q 350 -244 354 -294 q 288 -168 307 -207 q 329 -111 290 -146 q 392 -71 368 -76 q 463 -123 429 -89 q 496 -185 497 -157 q 447 -322 488 -236 q 376 -443 407 -408 z "},"Ț":{"ha":899,"x_min":0,"x_max":899,"o":"m 111 801 l 0 926 l 788 926 l 899 801 l 564 801 l 567 -40 l 372 0 l 372 801 l 111 801 m 450 -453 l 393 -415 q 424 -254 428 -304 q 361 -178 381 -217 q 403 -121 364 -156 q 465 -81 442 -86 q 537 -133 503 -99 q 569 -194 571 -167 q 521 -332 561 -246 q 450 -453 481 -418 z "},"ț":{"ha":593,"x_min":32,"x_max":578,"o":"m 74 567 l 32 664 l 146 664 l 146 814 l 317 775 l 317 664 l 486 664 l 528 567 l 317 567 l 317 390 q 317 344 317 375 q 316 269 317 307 q 320 199 315 232 q 332 138 325 165 q 356 93 339 110 q 396 71 372 76 q 456 78 419 65 q 540 122 493 92 l 578 79 q 443 -24 497 6 q 328 -16 401 -47 q 201 72 256 15 q 146 169 146 128 l 146 567 l 74 567 m 342 -449 l 285 -411 q 315 -250 319 -300 q 253 -174 272 -212 q 294 -117 256 -151 q 357 -76 333 -82 q 428 -128 394 -94 q 461 -190 463 -162 q 413 -328 453 -242 q 342 -449 372 -414 z "},"ʼ":{"ha":417,"x_min":143,"x_max":353,"o":"m 232 751 l 175 789 q 206 950 210 900 q 143 1026 163 988 q 185 1083 146 1049 q 247 1124 224 1118 q 319 1072 285 1106 q 351 1010 353 1038 q 303 872 343 958 q 232 751 263 786 z "},"ˆ":{"ha":492,"x_min":-12,"x_max":488,"o":"m 49 765 q 15 794 40 767 q -12 828 -11 822 q 115 941 -12 833 q 247 1047 242 1049 q 372 950 257 1044 q 486 849 488 856 q 436 801 486 842 q 381 763 386 760 q 335 799 372 763 q 257 876 297 835 q 215 918 217 917 q 135 842 214 917 q 49 765 56 768 z "},"ˇ":{"ha":486,"x_min":24,"x_max":494,"o":"m 76 971 l 214 808 l 396 978 l 494 879 l 285 726 l 193 726 l 24 910 l 76 971 z "},"ˉ":{"ha":524,"x_min":50,"x_max":485,"o":"m 81 754 l 50 835 l 453 835 l 485 754 l 81 754 z "},"˘":{"ha":490,"x_min":24,"x_max":494,"o":"m 24 943 l 61 986 q 88 951 71 972 q 142 894 104 929 q 203 857 179 858 q 279 891 231 856 q 363 963 328 926 l 397 999 l 494 913 q 476 895 488 906 q 433 858 465 885 q 369 810 400 831 q 300 774 339 790 q 232 757 261 757 q 151 803 203 757 q 61 897 99 850 l 24 943 z "},"˙":{"ha":217,"x_min":8,"x_max":217,"o":"m 114 789 q 8 890 43 822 q 50 947 11 913 q 113 988 89 982 q 217 889 183 956 q 114 789 193 829 z "},"˚":{"ha":361,"x_min":7,"x_max":360,"o":"m 229 1007 q 151 996 190 1031 q 108 914 111 961 q 146 838 106 867 q 194 834 171 826 q 234 865 218 842 q 258 914 250 888 q 259 967 267 940 q 229 1007 251 993 m 314 1021 q 352 953 344 994 q 346 872 360 911 q 303 799 332 832 q 233 759 275 767 q 143 772 190 751 q 69 819 97 796 q 18 897 29 851 q 23 980 7 942 q 67 1051 39 1018 q 134 1093 96 1085 q 208 1086 172 1101 q 314 1021 275 1051 z "},"˛":{"ha":365,"x_min":35,"x_max":439,"o":"m 189 68 l 318 4 q 187 -145 226 -79 q 189 -239 147 -211 q 344 -175 238 -258 l 368 -199 q 415 -247 392 -222 l 439 -271 q 315 -340 351 -326 q 233 -340 278 -353 q 148 -294 200 -331 q 67 -224 96 -258 q 38 -160 42 -193 q 70 -67 35 -126 q 189 68 106 -7 z "},"˜":{"ha":575,"x_min":-3,"x_max":589,"o":"m 186 996 q 272 931 206 993 q 353 868 339 868 q 426 930 371 868 q 485 992 482 992 q 539 941 492 990 q 588 885 586 892 q 557 847 589 879 q 478 781 525 814 q 400 749 431 749 q 307 810 379 749 q 226 871 235 871 q 147 811 201 869 q 89 751 93 753 q 38 810 79 754 q -3 878 -3 867 q 81 944 0 889 q 186 996 161 999 z "},"˝":{"ha":519,"x_min":76,"x_max":485,"o":"m 383 761 l 314 781 q 319 892 318 822 q 325 1014 319 963 q 421 986 326 1040 q 485 940 478 954 q 468 901 474 915 q 455 871 463 886 q 444 850 447 856 q 433 831 442 844 q 422 814 425 818 q 405 791 418 810 q 383 761 392 772 m 146 761 l 76 781 q 81 892 81 822 q 88 1014 82 963 q 183 986 89 1040 q 247 940 240 954 q 231 901 236 915 q 217 871 225 886 q 207 850 210 856 q 196 831 204 844 q 184 814 188 818 q 167 791 181 810 q 146 761 154 772 z "},"π":{"ha":1056,"x_min":65,"x_max":964,"o":"m 176 540 l 65 665 l 853 665 l 964 540 l 833 540 l 833 -40 l 674 -1 l 674 540 l 417 540 q 476 374 461 461 q 481 215 492 286 q 447 85 469 144 q 399 -8 425 25 q 353 -40 372 -40 q 274 -12 326 -40 q 210 35 222 15 q 230 63 214 40 q 252 95 246 86 q 271 126 258 104 q 294 171 283 147 q 317 225 306 194 q 340 367 339 283 q 306 540 340 450 l 176 540 z "},"ँ":{"ha":0,"x_min":-528,"x_max":10,"o":"m -528 1122 l -493 1157 q -453 1119 -478 1142 q -376 1058 -428 1096 q -301 1019 -325 1019 q -206 1058 -262 1019 q -111 1133 -149 1096 l -72 1172 l 10 1086 q -6 1069 4 1079 q -50 1032 -17 1058 q -116 985 -83 1006 q -195 949 -149 965 q -285 932 -242 932 q -384 980 -324 932 q -486 1075 -444 1028 l -528 1122 m -276 1104 q -387 1213 -351 1139 q -344 1273 -385 1236 q -279 1315 -303 1310 q -169 1211 -203 1282 q -276 1104 -192 1149 z "},"ं":{"ha":0,"x_min":0,"x_max":218,"o":"m 111 963 q 0 1071 36 997 q 44 1131 3 1094 q 108 1174 85 1168 q 218 1069 185 1140 q 111 963 196 1007 z "},"ः":{"ha":397,"x_min":164,"x_max":372,"o":"m 269 447 q 164 549 199 481 q 206 606 167 571 q 268 646 244 640 q 372 547 339 614 q 269 447 349 488 m 269 25 q 164 126 199 58 q 206 183 167 149 q 268 224 244 218 q 372 125 339 192 q 269 25 349 65 z "},"ऄ":{"ha":1097,"x_min":26,"x_max":1117,"o":"m 954 860 l 1117 860 l 1117 725 l 1025 725 l 1025 -78 l 853 0 l 853 371 q 819 362 836 365 q 785 359 803 358 q 756 360 768 360 q 724 367 743 361 q 697 375 706 372 q 668 387 688 378 q 642 399 649 396 q 615 413 636 401 q 592 425 594 424 l 585 419 q 626 392 618 397 q 665 363 635 386 q 708 324 694 340 q 739 281 721 308 q 767 225 757 254 q 747 117 785 174 q 642 24 708 60 q 502 -27 576 -12 q 374 -8 428 -42 q 26 399 253 65 l 61 424 q 88 388 64 421 q 123 342 113 354 q 162 295 133 329 q 208 245 190 261 q 256 201 225 229 q 310 161 286 174 q 365 134 333 149 q 425 117 397 119 q 486 121 453 115 q 550 143 519 126 q 619 253 626 188 q 533 389 611 319 q 376 351 460 356 l 301 481 q 521 546 443 496 q 574 657 599 596 q 506 726 551 711 q 402 718 460 740 q 309 676 344 696 q 236 632 274 657 l 151 753 l 178 772 q 221 799 206 790 q 268 827 236 808 q 323 853 300 846 q 375 865 346 860 q 429 865 404 871 q 475 842 454 858 q 661 675 599 738 q 692 560 707 625 q 613 440 676 494 q 853 521 750 418 l 853 725 l 724 725 l 671 860 l 893 860 q 807 960 839 939 q 697 986 785 974 q 592 1007 608 999 q 492 1115 543 1032 l 581 1189 q 601 1158 589 1178 q 624 1126 614 1138 q 643 1111 633 1114 q 744 1091 650 1108 q 858 1057 839 1074 q 909 969 874 1043 q 954 860 944 894 z "},"अ":{"ha":1097,"x_min":26,"x_max":1117,"o":"m 724 725 l 671 860 l 1117 860 l 1117 725 l 1025 725 l 1025 -78 l 853 0 l 853 371 q 819 362 836 365 q 785 359 803 358 q 756 360 768 360 q 724 367 743 361 q 697 375 706 372 q 668 387 688 378 q 642 399 649 396 q 615 413 636 401 q 592 425 594 424 l 585 419 q 626 392 618 397 q 665 363 635 386 q 708 324 694 340 q 739 281 721 308 q 767 225 757 254 q 747 117 785 174 q 642 24 708 60 q 502 -27 576 -12 q 374 -8 428 -42 q 26 399 253 65 l 61 424 q 88 388 64 421 q 123 342 113 354 q 162 295 133 329 q 208 245 190 261 q 256 201 225 229 q 310 161 286 174 q 365 134 333 149 q 425 117 397 119 q 486 121 453 115 q 550 143 519 126 q 619 253 626 188 q 533 389 611 319 q 376 351 460 356 l 301 481 q 521 546 443 496 q 574 657 599 596 q 506 726 551 711 q 402 718 460 740 q 309 676 344 696 q 236 632 274 657 l 151 753 l 178 772 q 221 799 206 790 q 268 827 236 808 q 323 853 300 846 q 375 865 346 860 q 429 865 404 871 q 475 842 454 858 q 661 675 599 738 q 692 560 707 625 q 613 440 676 494 q 853 521 750 418 l 853 725 l 724 725 z "},"आ":{"ha":1457,"x_min":43,"x_max":1476,"o":"m 740 726 l 688 860 l 1476 860 l 1476 726 l 1386 726 l 1386 -72 l 1214 6 l 1214 726 l 1042 726 l 1042 -72 l 869 6 l 869 376 q 836 367 853 371 q 802 365 819 364 q 772 366 785 365 q 741 372 760 367 q 713 381 722 378 q 685 392 704 383 q 659 404 665 401 q 632 418 653 407 q 608 431 611 429 l 601 425 q 643 397 635 403 q 681 369 651 392 q 724 330 711 346 q 756 287 738 314 q 783 231 774 260 q 763 122 801 179 q 659 29 725 65 q 519 -22 593 -7 q 390 -3 444 -36 q 43 404 269 71 l 78 429 q 105 393 81 426 q 140 347 129 360 q 178 301 150 335 q 224 251 207 267 q 272 207 242 235 q 326 167 303 179 q 382 140 350 154 q 442 123 414 125 q 503 126 469 121 q 567 149 536 132 q 635 259 643 193 q 550 394 628 325 q 393 357 476 361 l 318 486 q 538 551 460 501 q 590 663 615 601 q 522 731 568 717 q 419 724 476 746 q 326 682 361 701 q 253 638 290 663 l 168 758 l 194 778 q 238 805 222 796 q 285 833 253 814 q 340 858 317 851 q 392 871 363 865 q 446 870 421 876 q 492 847 471 864 q 678 681 615 743 q 708 565 724 631 q 629 446 693 500 q 869 526 767 424 l 869 726 l 740 726 z "},"इ":{"ha":821,"x_min":-7,"x_max":829,"o":"m -7 726 l -7 860 l 829 860 l 829 726 l 621 726 l 625 533 l 315 533 q 261 479 282 533 q 264 385 236 417 q 326 372 285 361 q 416 401 346 378 q 538 437 486 424 q 599 444 589 450 q 790 278 692 376 q 802 248 800 268 q 797 202 804 228 q 776 148 790 176 q 737 92 763 119 q 680 42 711 65 q 605 4 649 19 q 513 -14 561 -11 q 749 -194 678 -149 l 694 -253 q 425 -17 560 -129 q 378 -21 417 -17 q 321 -25 339 -25 q 273 -25 303 -25 q 225 -19 243 -25 q 196 -1 207 -12 q 115 128 115 68 q 149 176 115 144 q 215 217 182 208 q 357 113 243 203 q 528 131 440 96 q 658 222 617 167 q 665 311 700 276 q 593 319 643 333 q 493 275 543 304 q 391 230 443 246 q 314 233 339 214 q 113 410 167 351 q 96 499 88 446 q 140 599 104 551 q 211 650 175 647 l 467 665 l 467 726 l -7 726 z "},"ई":{"ha":826,"x_min":-7,"x_max":829,"o":"m -7 726 l -7 860 l 507 860 q 370 955 431 894 q 310 1058 310 1015 q 389 1183 310 1124 q 536 1242 468 1242 q 742 1115 574 1242 l 719 1082 q 561 1144 608 1144 q 497 1104 528 1144 q 467 1026 467 1064 q 469 1005 467 1015 q 481 982 472 994 q 497 960 490 969 q 519 936 503 951 q 543 913 535 921 q 574 887 551 906 q 604 860 596 868 l 829 860 l 829 726 l 621 726 l 625 533 l 315 533 q 261 479 282 533 q 264 385 236 417 q 326 372 285 361 q 416 401 346 378 q 538 437 486 424 q 599 444 589 450 q 790 278 692 376 q 802 248 800 268 q 797 202 804 228 q 776 148 790 176 q 737 92 763 119 q 680 42 711 65 q 605 4 649 19 q 513 -14 561 -11 q 749 -194 678 -149 l 694 -253 q 425 -17 560 -129 q 378 -21 417 -17 q 321 -25 339 -25 q 273 -25 303 -25 q 225 -19 243 -25 q 196 -1 207 -12 q 115 128 115 68 q 149 176 115 144 q 215 217 182 208 q 357 113 243 203 q 528 131 440 96 q 658 222 617 167 q 665 311 700 276 q 593 319 643 333 q 493 275 543 304 q 391 230 443 246 q 314 233 339 214 q 113 410 167 351 q 96 499 88 446 q 140 599 104 551 q 211 650 175 647 l 467 665 l 467 726 l -7 726 z "},"उ":{"ha":768,"x_min":-7,"x_max":776,"o":"m -7 726 l -7 860 l 776 860 l 776 726 l 428 726 q 530 635 483 686 q 574 550 576 583 q 518 438 565 481 q 654 329 590 388 q 729 225 718 271 q 697 117 740 174 q 585 26 653 61 q 440 -22 517 -8 q 311 -3 364 -36 q 280 19 294 7 q 249 47 265 31 q 220 76 232 64 q 190 114 208 89 q 163 152 172 139 q 132 199 153 165 q 102 246 111 232 q 68 301 93 260 q 33 357 43 342 l 71 382 q 116 316 81 368 q 169 240 151 264 q 226 179 188 217 q 299 130 265 142 q 380 119 332 118 q 479 149 428 121 q 556 224 540 181 q 549 313 572 268 q 471 403 525 357 q 332 347 415 371 l 247 465 q 288 482 260 471 q 333 500 315 493 q 374 520 351 507 q 409 546 397 533 q 428 577 421 558 q 430 617 436 596 q 404 666 424 638 q 349 726 385 694 l -7 726 z "},"ऊ":{"ha":1086,"x_min":-11,"x_max":1093,"o":"m 574 550 q 518 438 565 481 l 525 433 q 640 513 575 475 q 750 549 706 550 q 921 425 814 547 q 972 262 985 358 q 871 113 960 165 l 771 197 q 882 342 871 257 q 840 436 890 408 q 682 397 775 472 q 632 350 657 378 q 729 225 718 274 q 697 117 740 174 q 585 26 653 61 q 440 -22 517 -8 q 311 -3 364 -36 q 280 19 294 7 q 249 47 265 31 q 220 76 232 64 q 190 114 208 89 q 163 152 172 139 q 132 199 153 165 q 102 246 111 232 q 68 301 93 260 q 33 357 43 342 l 71 382 q 116 316 81 368 q 169 240 151 264 q 226 179 188 217 q 299 130 265 142 q 380 119 332 118 q 479 149 428 121 q 556 224 540 181 q 549 313 572 268 q 471 403 525 357 q 332 347 415 371 l 247 465 q 288 482 260 471 q 333 500 315 493 q 374 520 351 507 q 409 546 397 533 q 428 577 421 558 q 430 617 436 596 q 404 666 424 638 q 349 726 385 694 l -11 726 l -11 860 l 1093 860 l 1093 726 l 428 726 q 530 635 483 686 q 574 550 576 583 z "},"ऋ":{"ha":1185,"x_min":-15,"x_max":1311,"o":"m -15 726 l -15 860 l 1193 860 l 1193 726 l 678 726 l 678 481 q 818 532 764 478 q 794 567 804 544 q 788 597 783 590 q 847 654 801 626 q 913 679 893 682 q 983 624 935 676 q 1008 546 1031 571 l 956 486 l 1024 404 l 1129 292 q 915 142 958 229 q 932 54 886 83 q 1090 71 989 18 q 1182 133 1136 94 l 1311 56 q 1188 -35 1256 -3 q 1074 -68 1121 -68 q 996 -56 1028 -68 q 895 21 946 -26 q 821 101 844 68 q 800 151 806 125 q 803 215 794 178 q 857 297 811 253 q 985 385 903 342 l 915 460 q 678 411 836 358 l 678 -76 l 506 1 l 506 243 q 239 74 418 172 l 132 197 q 506 396 400 307 l 506 397 q 115 440 358 467 l 63 613 q 272 597 142 622 q 506 521 401 571 l 506 726 l -15 726 z "},"ऌ":{"ha":1024,"x_min":-14,"x_max":1038,"o":"m -14 726 l -14 860 l 1038 860 l 1038 726 l 846 726 l 846 458 q 949 360 924 400 q 966 284 972 321 q 933 217 960 247 q 869 156 906 188 q 794 99 832 125 q 728 42 756 72 q 690 -17 700 11 q 700 -81 679 -46 q 742 -115 715 -106 q 803 -110 769 -124 q 863 -60 836 -97 l 982 -153 q 718 -199 829 -292 q 565 -21 650 -143 q 551 46 543 11 q 590 110 560 81 q 661 172 621 140 q 742 231 701 204 q 812 289 783 258 q 847 345 840 319 q 826 401 854 371 q 688 426 760 461 q 559 315 617 392 q 486 169 501 239 l 375 257 q 435 383 386 310 q 307 442 365 433 q 217 422 249 450 q 171 349 185 393 q 171 249 157 306 q 222 146 185 193 q 381 -32 306 38 l 343 -79 q 124 153 232 18 q 7 351 15 289 q 53 453 1 394 q 171 550 104 513 q 275 575 238 588 q 463 422 333 556 q 672 556 561 550 l 674 556 l 674 726 l -14 726 z "},"ऍ":{"ha":767,"x_min":-14,"x_max":775,"o":"m -14 726 l -14 860 l 775 860 l 775 726 l 683 726 l 683 342 q 640 269 683 314 q 544 192 596 224 l 417 293 q 478 333 444 306 q 511 390 511 361 l 511 726 l 249 726 q 247 628 249 694 q 245 521 246 563 q 246 428 244 479 q 252 344 247 378 q 267 294 257 311 q 471 115 297 243 q 545 25 524 76 q 556 -73 567 -26 q 511 -151 546 -119 l 379 -51 q 418 -9 406 -39 q 416 65 431 21 q 351 151 401 110 q 245 236 313 183 q 135 324 178 289 q 89 363 92 358 q 81 726 88 364 l -14 726 m 132 1108 l 167 1143 q 207 1105 182 1128 q 283 1044 232 1082 q 358 1006 335 1006 q 454 1044 397 1006 q 550 1119 511 1082 l 588 1158 l 669 1072 q 653 1055 664 1065 q 610 1018 643 1044 q 544 972 576 992 q 465 935 511 951 q 375 918 418 918 q 276 966 336 918 q 174 1061 215 1014 l 132 1108 z "},"ए":{"ha":750,"x_min":-10,"x_max":779,"o":"m -10 726 l -10 860 l 779 860 l 779 726 l 688 726 l 688 342 q 644 269 688 314 q 549 192 600 224 l 421 293 q 482 333 449 306 q 515 390 515 361 l 515 726 l 253 726 q 251 628 253 694 q 249 521 250 563 q 250 428 249 479 q 256 344 251 378 q 271 294 261 311 q 475 115 301 243 q 549 25 528 76 q 560 -73 571 -26 q 515 -151 550 -119 l 383 -51 q 422 -9 410 -39 q 420 65 435 21 q 356 151 406 110 q 249 236 317 183 q 139 324 182 289 q 93 363 96 358 q 85 726 92 364 l -10 726 z "},"ऐ":{"ha":746,"x_min":-24,"x_max":765,"o":"m 574 860 l 765 860 l 765 726 l 674 726 l 674 342 q 630 269 674 314 q 535 192 586 224 l 407 293 q 468 333 435 306 q 501 390 501 361 l 501 726 l 239 726 q 238 628 239 694 q 235 521 236 563 q 236 428 235 479 q 242 344 238 378 q 257 294 247 311 q 461 115 288 243 q 535 25 514 76 q 547 -73 557 -26 q 501 -151 536 -119 l 369 -51 q 408 -9 396 -39 q 406 65 421 21 q 342 151 392 110 q 235 236 303 183 q 125 324 168 289 q 79 363 82 358 q 71 726 78 364 l -24 726 l -24 860 l 514 860 q 344 1021 425 979 q 88 1006 254 1069 l -11 1117 q 151 1149 60 1139 q 282 1153 242 1160 q 340 1126 310 1146 q 407 1066 371 1106 q 464 1001 443 1026 q 526 923 485 976 q 574 860 567 869 z "},"ऑ":{"ha":1450,"x_min":43,"x_max":1522,"o":"m 985 1108 l 1019 1143 q 1060 1105 1035 1128 q 1136 1044 1085 1082 q 1211 1006 1188 1006 q 1307 1044 1250 1006 q 1403 1119 1364 1082 l 1440 1158 l 1522 1072 q 1506 1055 1517 1065 q 1463 1018 1496 1044 q 1397 972 1429 992 q 1317 935 1364 951 q 1228 918 1271 918 q 1128 966 1189 918 q 1026 1061 1068 1014 l 985 1108 m 740 726 l 688 860 l 1476 860 l 1476 726 l 1386 726 l 1386 -72 l 1214 6 l 1214 726 l 1042 726 l 1042 -72 l 869 6 l 869 376 q 836 367 853 371 q 802 365 819 364 q 772 366 785 365 q 741 372 760 367 q 713 381 722 378 q 685 392 704 383 q 659 404 665 401 q 632 418 653 407 q 608 431 611 429 l 601 425 q 643 397 635 403 q 681 369 651 392 q 724 330 711 346 q 756 287 738 314 q 783 231 774 260 q 763 122 801 179 q 659 29 725 65 q 519 -22 593 -7 q 390 -3 444 -36 q 43 404 269 71 l 78 429 q 105 393 81 426 q 140 347 129 360 q 178 301 150 335 q 224 251 207 267 q 272 207 242 235 q 326 167 303 179 q 382 140 350 154 q 442 123 414 125 q 503 126 469 121 q 567 149 536 132 q 635 259 643 193 q 550 394 628 325 q 393 357 476 361 l 318 486 q 538 551 460 501 q 590 663 615 601 q 522 731 568 717 q 419 724 476 746 q 326 682 361 701 q 253 638 290 663 l 168 758 l 194 778 q 238 805 222 796 q 285 833 253 814 q 340 858 317 851 q 392 871 363 865 q 446 870 421 876 q 492 847 471 864 q 678 681 615 743 q 708 565 724 631 q 629 446 693 500 q 869 526 767 424 l 869 726 l 740 726 z "},"ओ":{"ha":1450,"x_min":43,"x_max":1476,"o":"m 1328 860 l 1476 860 l 1476 726 l 1386 726 l 1386 -72 l 1214 6 l 1214 726 l 1042 726 l 1042 -72 l 869 6 l 869 376 q 836 367 853 371 q 802 365 819 364 q 772 366 785 365 q 741 372 760 367 q 713 381 722 378 q 685 392 704 383 q 659 404 665 401 q 632 418 653 407 q 608 431 611 429 l 601 425 q 643 397 635 403 q 681 369 651 392 q 724 330 711 346 q 756 287 738 314 q 783 231 774 260 q 763 122 801 179 q 659 29 725 65 q 519 -22 593 -7 q 390 -3 444 -36 q 43 404 269 71 l 78 429 q 105 393 81 426 q 140 347 129 360 q 178 301 150 335 q 224 251 207 267 q 272 207 242 235 q 326 167 303 179 q 382 140 350 154 q 442 123 414 125 q 503 126 469 121 q 567 149 536 132 q 635 259 643 193 q 550 394 628 325 q 393 357 476 361 l 318 486 q 538 551 460 501 q 590 663 615 601 q 522 731 568 717 q 419 724 476 746 q 326 682 361 701 q 253 638 290 663 l 168 758 l 194 778 q 238 805 222 796 q 285 833 253 814 q 340 858 317 851 q 392 871 363 865 q 446 870 421 876 q 492 847 471 864 q 678 681 615 743 q 708 565 724 631 q 629 446 693 500 q 869 526 767 424 l 869 726 l 740 726 l 688 860 l 1268 860 q 1099 1021 1179 979 q 842 1006 1008 1069 l 743 1117 q 905 1149 814 1139 q 1036 1153 996 1160 q 1094 1126 1064 1146 q 1161 1066 1125 1106 q 1218 1001 1197 1026 q 1280 923 1239 976 q 1328 860 1321 869 z "},"औ":{"ha":1446,"x_min":43,"x_max":1476,"o":"m 1361 860 l 1476 860 l 1476 726 l 1386 726 l 1386 -72 l 1214 6 l 1214 726 l 1042 726 l 1042 -72 l 869 6 l 869 376 q 836 367 853 371 q 802 365 819 364 q 772 366 785 365 q 741 372 760 367 q 713 381 722 378 q 685 392 704 383 q 659 404 665 401 q 632 418 653 407 q 608 431 611 429 l 601 425 q 643 397 635 403 q 681 369 651 392 q 724 330 711 346 q 756 287 738 314 q 783 231 774 260 q 763 122 801 179 q 659 29 725 65 q 519 -22 593 -7 q 390 -3 444 -36 q 43 404 269 71 l 78 429 q 105 393 81 426 q 140 347 129 360 q 178 301 150 335 q 224 251 207 267 q 272 207 242 235 q 326 167 303 179 q 382 140 350 154 q 442 123 414 125 q 503 126 469 121 q 567 149 536 132 q 635 259 643 193 q 550 394 628 325 q 393 357 476 361 l 318 486 q 538 551 460 501 q 590 663 615 601 q 522 731 568 717 q 419 724 476 746 q 326 682 361 701 q 253 638 290 663 l 168 758 l 194 778 q 238 805 222 796 q 285 833 253 814 q 340 858 317 851 q 392 871 363 865 q 446 870 421 876 q 492 847 471 864 q 678 681 615 743 q 708 565 724 631 q 629 446 693 500 q 869 526 767 424 l 869 726 l 740 726 l 688 860 l 1256 860 q 1089 978 1154 965 q 929 931 1024 990 l 850 1014 q 1063 1067 993 1082 q 1095 1055 1078 1064 q 1133 1031 1113 1046 q 1168 1004 1153 1017 q 1206 969 1183 992 q 1241 936 1229 947 q 1277 899 1253 925 q 1307 868 1301 874 q 1192 1031 1274 938 q 1061 1135 1110 1125 q 815 1081 971 1153 l 724 1176 q 1090 1224 1001 1281 q 1124 1199 1107 1213 q 1153 1175 1140 1186 q 1181 1145 1165 1164 q 1206 1115 1197 1126 q 1232 1079 1215 1104 q 1256 1044 1249 1054 q 1281 1002 1263 1033 q 1305 960 1299 971 q 1333 910 1311 949 q 1361 860 1354 872 z "},"क":{"ha":1188,"x_min":-37,"x_max":1196,"o":"m -37 726 l -37 860 l 1196 860 l 1196 726 l 694 726 l 694 571 q 892 638 775 642 q 1016 547 931 636 q 1146 393 1101 458 q 1116 223 1193 321 q 921 85 1039 125 l 790 204 q 986 324 940 257 q 1020 410 1018 369 q 999 470 1022 450 q 938 496 976 490 q 849 478 899 501 q 694 313 731 424 l 694 -78 l 521 0 l 521 194 q 351 97 438 97 q 49 364 186 97 q 84 497 19 419 q 240 619 149 575 q 372 638 332 664 q 521 536 442 586 l 521 726 l -37 726 m 183 278 q 231 249 199 260 q 308 237 263 238 q 412 271 354 236 q 521 375 469 306 l 521 463 q 329 486 415 515 q 195 386 243 457 q 183 278 147 315 z "},"ख":{"ha":1201,"x_min":-21,"x_max":1211,"o":"m -21 860 l 1211 860 l 1211 726 l 1106 726 l 1106 -78 l 933 0 l 933 147 q 772 -17 867 46 q 567 -79 678 -79 q 376 -46 464 -79 q 232 40 289 -12 q 133 158 175 92 q 73 286 92 224 q 51 404 54 349 q 115 528 82 489 q 161 526 128 543 q 219 485 194 510 q 233 461 228 476 q 242 421 238 446 q 253 379 247 396 q 340 436 308 397 q 376 525 371 475 q 374 625 382 575 q 349 726 367 675 l -21 726 l -21 860 m 775 97 q 481 361 617 103 q 274 199 422 244 q 364 80 293 136 q 551 24 435 24 q 775 97 686 24 m 615 278 q 660 250 631 261 q 733 236 690 239 q 830 262 776 233 q 933 349 883 290 l 933 474 q 751 482 832 514 q 626 382 669 450 q 615 278 582 314 m 806 638 q 933 550 843 610 l 933 726 l 440 726 q 513 492 517 608 q 668 615 572 565 q 806 638 764 665 z "},"ग":{"ha":907,"x_min":-7,"x_max":913,"o":"m -7 726 l -7 860 l 913 860 l 913 726 l 799 726 l 799 -78 l 626 0 l 626 726 l 288 726 q 412 519 378 629 q 426 323 446 408 q 346 181 407 238 q 196 125 285 125 q 122 178 172 125 q 61 257 72 231 q 65 360 47 290 q 117 442 82 429 q 156 421 121 443 q 201 390 192 399 q 210 381 207 386 q 215 369 213 376 q 219 358 218 361 q 224 341 221 354 q 228 322 226 328 q 284 528 289 413 q 215 726 279 643 l -7 726 z "},"घ":{"ha":983,"x_min":-15,"x_max":994,"o":"m -15 726 l -15 860 l 994 860 l 994 726 l 876 726 l 876 -76 l 704 1 l 704 158 q 599 87 657 115 q 491 48 542 58 q 397 42 440 38 q 329 69 353 47 q 146 247 188 197 q 151 332 117 282 q 254 429 185 382 q 156 499 194 457 q 123 604 117 542 q 208 726 129 667 l -15 726 m 451 506 l 554 399 q 338 306 429 376 q 307 176 246 235 q 392 159 336 146 q 508 207 449 172 q 624 299 568 242 q 704 414 679 356 l 704 726 l 447 726 q 311 649 364 694 q 253 553 258 603 q 310 463 247 504 q 451 506 401 510 z "},"ङ":{"ha":1061,"x_min":-6,"x_max":1081,"o":"m -6 726 l -6 860 l 1081 860 l 1081 726 l 624 726 l 624 540 l 317 540 q 264 486 285 540 q 265 385 239 422 q 328 369 283 358 q 424 398 340 372 q 565 437 507 424 q 631 443 622 450 q 800 243 718 369 q 810 208 808 229 q 802 161 811 186 q 776 110 793 136 q 731 59 760 83 q 667 15 703 35 q 580 -16 631 -4 q 471 -28 529 -28 q 333 2 403 -28 q 215 69 264 32 q 120 158 167 107 q 53 238 74 210 q 18 289 33 265 l 46 315 q 98 260 69 288 q 178 189 126 232 q 294 119 229 146 q 419 93 358 93 q 582 131 506 93 q 681 215 658 169 q 675 301 704 261 q 601 310 653 324 q 499 268 550 296 q 394 226 447 240 q 315 231 340 211 q 114 407 165 354 q 98 496 89 443 q 142 597 107 549 q 214 647 178 644 l 468 663 l 468 726 l -6 726 m 888 372 q 782 474 817 406 q 824 531 785 496 q 886 571 863 565 q 990 472 957 539 q 888 372 967 413 z "},"च":{"ha":1050,"x_min":-97,"x_max":1075,"o":"m 122 443 l -11 558 l 431 558 l 567 443 q 365 310 400 385 q 390 239 343 261 q 564 269 456 211 q 783 472 678 332 l 783 726 l -97 726 l -97 860 l 1075 860 l 1075 726 l 956 726 l 956 -78 l 783 0 l 783 226 q 643 126 717 160 q 513 94 569 93 q 421 124 456 96 q 229 306 310 213 q 250 443 182 358 l 122 443 z "},"छ":{"ha":1081,"x_min":-11,"x_max":1093,"o":"m 897 610 q 828 576 872 636 q 763 397 769 497 q 781 296 760 339 q 901 472 867 388 q 897 610 936 557 m 475 488 l 574 388 q 476 341 521 367 q 394 284 431 315 q 352 222 358 253 q 369 158 346 190 q 478 115 411 110 q 613 160 544 121 q 747 263 681 199 q 649 383 672 343 q 641 453 632 404 q 669 555 650 503 q 725 656 689 607 q 800 726 761 706 l 504 726 q 397 670 440 700 q 328 606 353 640 q 313 531 304 571 q 365 447 322 490 q 475 488 432 482 m -11 726 l -11 860 l 1093 860 l 1093 726 l 872 726 q 947 644 903 703 q 1011 551 992 586 q 1030 435 1040 500 q 982 305 1019 369 q 886 176 944 240 l 1044 15 l 1000 -28 l 853 143 q 692 24 776 71 q 532 -30 608 -22 q 407 10 456 -37 q 204 246 315 101 q 213 322 181 276 q 307 413 244 368 q 247 457 275 433 q 196 515 219 481 q 167 582 172 549 q 183 653 161 615 q 257 726 204 692 l -11 726 z "},"ज":{"ha":1154,"x_min":-8,"x_max":1164,"o":"m 872 0 l 872 424 l 668 424 q 734 355 706 390 q 769 300 763 319 q 744 196 786 249 q 633 113 701 143 q 490 73 564 83 q 369 96 415 63 q 49 500 281 157 l 85 522 q 233 351 192 393 q 499 238 385 204 q 535 252 517 243 q 573 278 554 261 q 601 315 592 294 q 608 363 611 335 q 583 424 604 392 l 483 424 l 332 557 l 872 557 l 872 726 l -8 726 l -8 860 l 1164 860 l 1164 726 l 1044 726 l 1044 -78 l 872 0 z "},"झ":{"ha":1061,"x_min":-8,"x_max":1074,"o":"m 796 1 l 796 393 q 568 390 697 354 q 706 267 626 343 q 720 221 719 253 q 705 150 721 189 q 660 75 689 111 q 578 13 631 39 q 460 -18 525 -14 q 694 -199 622 -151 l 640 -257 q 372 -21 493 -121 q 325 -25 364 -21 q 268 -29 286 -29 q 220 -29 250 -29 q 172 -23 190 -29 q 143 -6 154 -17 q 63 124 63 64 q 96 172 63 140 q 163 213 129 204 q 304 108 190 199 q 467 126 386 92 q 581 213 547 160 q 581 300 615 265 q 513 308 558 322 q 424 267 468 294 q 332 224 379 239 q 260 229 285 210 q 60 406 110 351 q 43 494 35 442 q 87 595 51 547 q 158 646 122 643 l 385 661 l 385 726 l -8 726 l -8 860 l 1074 860 l 1074 726 l 968 726 l 968 -76 l 796 1 m 515 432 q 686 456 608 414 q 796 560 764 497 l 796 726 l 539 726 l 543 529 l 261 529 q 208 478 229 529 q 211 381 183 415 q 274 368 231 357 q 356 394 294 374 q 460 427 417 415 q 514 433 504 439 q 515 432 514 432 z "},"ञ":{"ha":1119,"x_min":-72,"x_max":1125,"o":"m 847 1 l 847 335 q 665 376 761 293 q 668 194 724 269 q 483 103 613 119 q 350 113 414 94 q 226 176 286 131 q 123 266 167 221 q 21 382 79 311 l 67 418 q 268 252 161 301 q 453 224 375 203 q 561 321 532 244 q 537 431 585 383 q 419 442 489 479 l 301 379 l 190 482 q 417 579 360 583 q 477 556 443 578 q 535 511 511 533 q 597 450 560 489 q 847 504 799 410 l 847 726 l -72 726 l -72 860 l 1125 860 l 1125 726 l 1019 726 l 1019 -76 l 847 1 z "},"ट":{"ha":833,"x_min":-11,"x_max":847,"o":"m -11 726 l -11 860 l 847 860 l 847 726 l 639 726 l 639 529 l 369 529 q 267 440 304 529 q 254 239 225 340 q 401 110 289 121 q 406 110 403 110 q 476 115 443 107 q 538 147 508 122 q 583 188 568 172 q 631 244 599 203 q 671 294 663 285 l 789 190 q 726 109 751 139 q 663 46 701 79 q 579 -5 625 13 q 476 -28 533 -22 q 317 32 397 -35 q 226 106 257 81 q 153 176 196 132 q 83 260 111 219 q 62 360 56 299 q 90 482 68 422 q 151 586 113 542 q 229 635 190 631 l 485 650 l 485 726 l -11 726 z "},"ठ":{"ha":867,"x_min":-11,"x_max":875,"o":"m -11 726 l -11 860 l 875 860 l 875 726 l 639 726 l 639 567 q 769 441 724 508 q 817 311 814 374 q 794 189 819 249 q 722 84 769 129 q 610 8 674 39 q 476 -28 546 -22 q 317 32 397 -35 q 226 106 257 81 q 153 176 196 132 q 83 260 111 219 q 62 360 56 299 q 90 482 68 422 q 151 586 113 542 q 229 635 190 631 l 485 650 l 485 726 l -11 726 m 413 108 q 553 136 488 103 q 656 227 618 169 q 690 367 693 285 q 633 529 688 449 l 374 529 q 260 428 301 529 q 256 223 219 328 q 413 108 293 118 z "},"ड":{"ha":894,"x_min":-14,"x_max":901,"o":"m -14 726 l -14 860 l 901 860 l 901 726 l 643 726 l 643 540 l 336 540 q 283 486 304 540 q 285 385 258 422 q 347 369 303 358 q 443 398 360 372 q 584 437 526 424 q 650 443 642 450 q 819 243 738 369 q 829 208 828 229 q 822 161 831 186 q 796 110 813 136 q 751 59 779 83 q 686 15 722 35 q 599 -16 650 -4 q 490 -28 549 -28 q 353 2 422 -28 q 235 69 283 32 q 140 158 186 107 q 73 238 93 210 q 38 289 53 265 l 65 315 q 117 260 89 288 q 197 189 146 232 q 313 119 249 146 q 439 93 378 93 q 601 131 525 93 q 701 215 678 169 q 694 301 724 261 q 621 310 672 324 q 518 268 569 296 q 413 226 467 240 q 335 231 360 211 q 133 407 185 354 q 117 496 108 443 q 162 597 126 549 q 233 647 197 644 l 488 663 l 488 726 l -14 726 z "},"ढ":{"ha":857,"x_min":-11,"x_max":861,"o":"m -11 726 l -11 860 l 861 860 l 861 726 l 639 726 l 639 531 l 374 531 q 298 489 332 531 q 252 388 264 447 q 245 267 240 328 q 287 160 250 206 q 386 111 324 115 q 472 118 433 107 q 396 225 415 181 q 416 323 376 269 q 506 410 456 376 q 576 443 556 443 q 694 351 601 443 q 794 235 788 258 q 765 149 803 200 q 668 49 728 97 q 491 -27 582 -21 q 317 32 400 -33 q 226 106 257 81 q 153 176 196 132 q 83 260 111 219 q 62 360 56 299 q 90 482 68 422 q 151 586 113 542 q 229 635 190 631 l 485 650 l 485 726 l -11 726 m 517 136 q 623 227 574 161 q 649 317 672 293 q 588 317 629 335 q 521 250 547 300 q 517 136 494 200 z "},"ण":{"ha":1085,"x_min":-3,"x_max":1089,"o":"m -3 726 l -3 860 l 1089 860 l 1089 726 l 989 726 l 989 -76 l 817 1 l 817 726 l 701 726 l 701 311 q 606 177 701 256 q 415 99 511 99 q 89 340 317 99 q 77 492 82 347 q 72 726 72 636 l -3 726 m 244 285 q 340 249 286 247 q 449 290 394 250 q 529 390 504 329 l 529 726 l 242 726 l 244 285 z "},"त":{"ha":868,"x_min":-64,"x_max":888,"o":"m 608 1 l 608 426 l 360 431 q 227 381 276 432 q 185 249 178 331 q 264 86 193 167 q 383 -37 324 19 l 335 -78 q 225 19 258 -11 q 135 106 192 50 q 51 201 78 161 q 21 271 25 240 q 33 340 17 293 q 78 438 49 388 q 157 525 107 488 q 261 563 207 563 l 608 560 l 608 726 l -64 726 l -64 860 l 888 860 l 888 726 l 781 726 l 781 -76 l 608 1 z "},"थ":{"ha":918,"x_min":33,"x_max":933,"o":"m 533 726 l 479 860 l 933 860 l 933 726 l 835 726 l 835 -76 l 663 1 l 663 199 q 436 100 564 100 q 315 142 386 100 q 186 237 244 183 q 84 338 128 290 q 36 400 40 386 q 75 428 33 407 q 172 479 117 450 q 250 526 228 508 q 99 603 163 553 q 36 710 36 653 q 65 789 36 751 q 135 845 94 826 q 221 871 176 864 q 296 857 265 878 q 426 749 364 815 q 503 646 489 683 q 499 565 517 607 q 432 481 481 524 q 344 410 383 439 q 242 342 306 382 q 194 311 210 321 q 362 236 269 240 q 534 283 454 232 q 663 421 614 333 l 663 726 l 533 726 m 290 567 q 340 600 306 567 q 376 647 374 633 q 347 753 386 711 q 250 764 308 794 q 183 701 199 738 q 183 636 168 665 q 227 587 197 607 q 290 567 257 567 z "},"द":{"ha":840,"x_min":-11,"x_max":860,"o":"m 806 -165 l 647 33 q 476 -28 574 -18 q 317 32 397 -35 q 226 106 257 81 q 153 176 196 132 q 83 260 111 219 q 62 360 56 299 q 90 482 68 422 q 151 586 113 542 q 229 635 190 631 l 485 650 l 485 726 l -11 726 l -11 860 l 847 860 l 847 726 l 639 726 l 639 529 l 374 529 q 298 488 332 529 q 253 386 264 446 q 248 265 242 326 q 293 160 254 204 q 397 110 332 115 q 550 157 481 103 q 499 249 492 233 q 596 344 525 301 q 642 362 619 360 q 683 354 664 364 q 719 331 703 344 q 754 294 736 317 q 794 219 786 257 q 774 144 801 181 l 700 71 l 860 -128 l 806 -165 z "},"ध":{"ha":961,"x_min":4,"x_max":968,"o":"m 679 3 l 679 158 q 575 87 632 115 q 467 48 518 58 q 372 42 415 38 q 306 69 329 47 q 122 247 164 197 q 128 335 92 283 q 240 436 165 388 q 138 515 199 464 q 49 596 78 565 q 30 696 4 643 q 109 790 56 749 q 220 854 163 831 q 297 868 278 878 q 463 739 400 817 q 475 667 490 707 q 424 594 460 628 q 333 539 389 560 q 224 522 276 518 q 290 464 249 493 q 428 506 375 510 l 531 399 q 314 306 406 376 q 283 176 222 235 q 367 159 311 146 q 483 206 424 172 q 597 297 542 240 q 679 411 653 353 l 679 726 l 575 726 l 521 860 l 968 860 l 968 726 l 851 726 l 851 -75 l 679 3 m 356 746 q 308 755 340 761 q 245 733 276 749 q 192 686 214 718 q 174 617 171 654 q 275 644 225 617 q 347 702 325 671 q 356 746 369 733 z "},"न":{"ha":904,"x_min":-69,"x_max":926,"o":"m 647 1 l 647 429 l 431 432 q 466 260 493 329 q 372 159 439 192 q 272 154 306 126 q 97 304 104 297 q 49 451 36 363 q 132 563 61 540 q 647 563 138 564 l 647 726 l -69 726 l -69 860 l 926 860 l 926 726 l 819 726 l 819 -76 l 647 1 m 326 433 q 174 374 190 435 q 207 294 163 332 q 300 281 256 254 q 351 433 353 311 l 326 433 z "},"प":{"ha":843,"x_min":-4,"x_max":856,"o":"m -4 726 l -4 860 l 856 860 l 856 726 l 749 726 l 749 -76 l 576 1 l 576 174 q 413 99 483 99 q 367 106 390 99 q 317 132 343 114 q 271 165 290 150 q 222 209 251 179 q 177 253 192 239 q 131 302 163 268 q 92 344 100 336 q 83 726 83 353 l -4 726 m 257 289 q 419 272 317 231 q 576 406 522 314 l 576 726 l 254 726 l 257 289 z "},"फ":{"ha":1225,"x_min":-4,"x_max":1231,"o":"m -4 726 l -4 860 l 1231 860 l 1231 726 l 749 726 l 749 535 q 890 592 822 593 q 1024 505 929 590 q 1157 361 1118 419 q 1145 168 1203 290 q 1003 -7 1088 46 l 867 94 q 994 233 940 132 q 1019 404 1051 343 q 865 428 986 465 q 749 347 807 408 l 749 -76 l 576 1 l 576 185 q 413 99 485 99 q 367 106 390 99 q 317 132 343 114 q 271 165 290 150 q 222 209 251 179 q 177 253 192 239 q 131 302 163 268 q 92 344 100 336 q 83 726 83 353 l -4 726 m 257 289 q 419 272 317 231 q 576 406 522 314 l 576 726 l 254 726 l 257 289 z "},"ब":{"ha":817,"x_min":-11,"x_max":825,"o":"m 547 1 l 547 196 q 378 99 464 99 q 75 365 213 99 q 110 499 46 421 q 267 621 175 576 q 399 639 358 665 q 547 538 468 588 l 547 726 l -11 726 l -11 860 l 825 860 l 825 726 l 721 726 l 721 -76 l 547 1 m 210 279 q 256 249 225 261 q 338 239 286 236 q 439 272 389 242 l 267 438 q 203 351 219 397 q 210 279 186 306 m 479 303 q 547 376 519 338 l 547 464 q 310 467 432 536 l 479 303 z "},"भ":{"ha":965,"x_min":33,"x_max":971,"o":"m 694 0 l 694 239 l 478 239 q 459 119 478 168 q 413 51 440 71 q 354 24 386 31 q 299 22 322 18 q 261 36 275 26 q 114 165 171 97 q 96 208 100 182 q 100 265 92 235 q 130 323 108 296 q 197 366 151 350 q 306 379 243 382 l 306 472 q 242 479 251 468 q 144 567 200 521 q 58 642 88 614 q 34 702 33 664 q 57 775 35 740 q 113 838 79 810 q 185 869 146 867 q 260 843 224 871 q 322 791 281 825 q 385 739 364 757 q 435 695 407 721 q 481 649 463 669 l 478 533 l 478 375 l 694 376 l 694 726 l 494 726 l 442 860 l 971 860 l 971 726 l 867 726 l 867 -78 l 694 0 m 306 600 q 297 733 306 725 q 223 742 265 767 q 167 674 181 717 q 172 607 154 631 q 306 600 203 583 m 304 244 q 235 235 261 250 q 208 199 208 219 q 218 160 207 178 q 250 147 231 150 q 287 169 269 143 q 304 244 304 196 z "},"म":{"ha":954,"x_min":-10,"x_max":976,"o":"m -10 726 l -10 860 l 976 860 l 976 726 l 872 726 l 872 -78 l 700 0 l 700 239 l 413 239 q 394 119 413 168 q 348 51 375 71 q 289 24 321 31 q 233 22 257 18 q 196 36 210 26 q 49 165 106 97 q 31 208 35 182 q 35 265 26 235 q 65 323 43 296 q 132 366 86 350 q 240 379 178 382 l 240 726 l -10 726 m 413 375 l 700 376 l 700 726 l 413 726 l 413 375 m 239 244 q 169 235 196 250 q 142 199 143 219 q 153 160 142 178 q 185 147 165 150 q 222 169 204 143 q 239 244 239 196 z "},"य":{"ha":943,"x_min":-10,"x_max":949,"o":"m 671 1 l 671 232 q 447 99 556 99 q 314 140 389 99 q 180 234 239 181 q 79 333 121 288 q 33 394 38 379 q 54 421 32 401 q 113 469 76 440 q 168 514 150 497 q 260 635 249 586 q 228 726 272 683 l -10 726 l -10 860 l 949 860 l 949 726 l 843 726 l 843 -76 l 671 1 m 193 321 q 374 240 281 231 q 544 312 467 249 q 671 471 621 375 l 671 726 l 319 726 q 410 592 403 657 q 407 560 411 576 q 397 529 403 543 q 376 497 390 515 q 351 465 361 478 q 317 431 340 453 q 280 397 293 408 q 237 360 267 386 q 193 321 207 333 z "},"र":{"ha":601,"x_min":-12,"x_max":619,"o":"m -12 726 l -12 860 l 619 860 l 619 726 l 436 726 q 510 527 501 628 q 463 340 519 426 q 290 211 407 254 q 578 -28 392 64 l 539 -78 q 428 -12 475 -42 q 317 67 382 18 q 205 162 251 115 q 114 272 158 208 q 46 403 69 336 q 110 529 76 490 q 156 528 122 544 q 215 486 189 511 q 233 437 225 476 q 249 378 240 397 q 335 435 304 396 q 371 525 365 475 q 369 625 376 575 q 342 726 361 675 l -12 726 z "},"ऱ":{"ha":622,"x_min":-6,"x_max":626,"o":"m -6 726 l -6 860 l 626 860 l 626 726 l 443 726 q 517 527 508 628 q 470 340 526 426 q 297 211 414 254 q 585 -28 399 64 l 546 -78 q 435 -12 482 -42 q 324 67 389 18 q 212 162 258 115 q 121 272 165 208 q 53 403 76 336 q 117 529 83 490 q 163 528 129 544 q 222 486 196 511 q 240 437 232 476 q 256 378 247 397 q 342 435 311 396 q 378 525 372 475 q 376 625 383 575 q 349 726 368 675 l -6 726 m 154 -111 q 43 -3 79 -76 q 87 58 46 21 q 151 100 128 94 q 261 -4 228 67 q 154 -111 239 -67 z "},"ल":{"ha":1006,"x_min":-12,"x_max":1011,"o":"m 731 1 l 731 429 q 602 322 669 392 q 496 183 535 251 l 381 278 q 438 375 386 314 q 221 396 296 469 q 220 197 163 332 q 396 -32 278 63 l 358 -79 q 139 153 247 18 q 22 351 31 289 q 68 453 17 394 q 186 550 119 513 q 290 575 253 588 q 481 419 354 553 q 606 514 538 474 q 731 563 674 554 l 731 726 l -12 726 l -12 860 l 1011 860 l 1011 726 l 903 726 l 903 -76 l 731 1 z "},"ळ":{"ha":1169,"x_min":-18,"x_max":1175,"o":"m -18 726 l -18 860 l 1175 860 l 1175 726 l 900 726 l 900 546 q 1059 387 978 479 q 1144 265 1140 294 q 1102 155 1151 222 q 987 42 1053 88 q 885 8 921 -3 q 860 19 881 6 q 808 58 840 32 q 746 108 775 85 q 676 166 717 132 q 618 214 635 200 q 376 -12 403 -1 q 270 52 353 -21 q 113 211 188 125 q 35 325 39 297 q 77 436 28 368 q 192 550 126 504 q 294 582 258 596 q 371 537 325 571 q 480 449 417 503 q 563 381 543 396 q 751 561 704 519 l 751 726 l -18 726 m 761 190 q 921 169 843 121 q 989 279 981 207 q 921 411 1001 365 l 881 429 q 840 428 861 435 q 794 400 818 421 q 754 362 771 379 q 710 313 738 344 q 672 269 683 281 q 761 190 717 229 m 504 326 q 464 362 482 346 q 433 388 446 378 q 418 400 419 399 q 260 424 336 469 q 192 314 200 388 q 263 178 181 226 q 299 161 279 168 q 333 166 313 156 q 378 199 353 176 q 424 242 403 221 q 469 290 444 263 q 504 326 494 317 z "},"व":{"ha":818,"x_min":-10,"x_max":826,"o":"m 549 1 l 549 196 q 379 99 465 99 q 76 365 214 99 q 112 499 47 421 q 268 621 176 576 q 400 639 360 665 q 549 538 469 588 l 549 726 l -10 726 l -10 860 l 826 860 l 826 726 l 722 726 l 722 -76 l 549 1 m 211 279 q 258 250 226 261 q 336 238 290 239 q 440 272 382 238 q 549 376 497 307 l 549 464 q 357 488 443 517 q 223 388 271 458 q 211 279 175 317 z "},"श":{"ha":1006,"x_min":19,"x_max":1026,"o":"m 651 -53 l 597 -110 q 328 125 461 15 q 288 122 318 125 q 243 118 258 119 q 201 117 228 117 q 158 119 174 117 q 125 126 142 121 q 99 140 108 132 q 19 269 19 219 q 52 318 19 286 q 119 360 85 350 q 263 253 149 344 q 419 382 371 301 q 206 517 335 408 q 76 685 76 626 q 109 768 76 726 q 186 835 142 810 q 278 871 231 860 q 356 861 325 882 q 498 744 425 819 q 585 631 571 668 q 572 357 629 506 q 392 147 515 208 q 651 -53 594 -17 m 624 726 l 569 860 l 1026 860 l 1026 726 l 925 726 l 925 -76 l 753 1 l 753 726 l 624 726 m 436 429 q 469 610 469 499 q 389 754 469 740 q 268 711 328 765 q 225 597 207 656 q 244 564 231 579 q 342 483 282 525 q 436 429 403 440 z "},"ष":{"ha":861,"x_min":-12,"x_max":874,"o":"m -12 726 l -12 860 l 874 860 l 874 726 l 767 726 l 767 -76 l 594 1 l 594 199 q 382 118 478 118 q 350 122 367 118 q 315 136 333 126 q 282 155 297 146 q 247 181 267 164 q 213 210 226 199 q 178 244 200 222 q 147 278 157 267 q 114 313 136 289 q 83 344 92 336 q 75 726 75 353 l -12 726 m 251 311 q 395 278 303 261 q 556 360 488 294 l 246 650 l 251 311 m 263 726 l 594 415 l 594 726 l 263 726 z "},"स":{"ha":1001,"x_min":-4,"x_max":1007,"o":"m 760 1 l 760 281 q 611 238 671 238 q 432 325 560 238 q 281 231 374 260 q 394 107 306 183 q 565 -26 482 31 l 526 -78 q 256 108 333 43 q 33 403 89 247 q 97 531 65 493 q 143 529 110 546 q 203 488 176 513 q 215 463 210 479 q 224 420 219 447 q 235 374 229 393 q 322 432 290 392 q 358 523 353 472 q 355 624 363 574 q 329 726 347 675 l -4 726 l -4 860 l 1007 860 l 1007 726 l 932 726 l 932 -76 l 760 1 m 424 726 q 495 542 483 635 q 465 374 507 450 q 556 353 507 356 q 664 380 606 351 q 760 471 722 408 l 760 726 l 424 726 z "},"ह":{"ha":761,"x_min":-21,"x_max":771,"o":"m -21 726 l -21 860 l 771 860 l 771 726 l 625 726 l 625 529 l 318 529 q 233 493 264 529 q 208 410 203 457 q 256 338 214 364 q 467 429 401 432 q 620 325 517 428 q 725 192 724 222 q 674 67 728 126 q 569 -11 619 8 l 468 93 q 572 176 535 122 q 574 275 610 231 q 517 294 554 294 q 432 269 479 293 q 343 215 385 246 q 274 142 301 183 q 247 65 246 101 q 326 -78 250 0 q 511 -228 401 -156 l 471 -276 q 377 -210 399 -225 q 293 -147 356 -194 q 206 -74 231 -99 q 144 -9 181 -49 q 92 65 107 31 q 76 131 78 99 q 208 304 75 203 q 117 393 153 354 q 100 482 92 429 q 144 583 108 535 q 215 632 179 631 l 471 647 l 471 726 l -21 726 z "},"़":{"ha":0,"x_min":-592,"x_max":-374,"o":"m -481 -292 q -592 -183 -556 -257 q -548 -123 -589 -160 q -483 -81 -507 -86 q -374 -185 -407 -114 q -481 -292 -396 -247 z "},"ऽ":{"ha":758,"x_min":53,"x_max":768,"o":"m 53 188 l 81 214 q 305 97 181 111 q 486 172 429 83 q 505 260 515 215 q 467 343 494 306 q 392 418 439 381 q 305 483 346 456 q 226 536 264 510 q 178 575 189 563 q 154 695 140 632 q 217 809 168 758 q 314 860 267 860 l 768 860 l 768 726 l 476 726 q 306 642 321 726 q 385 526 300 610 q 567 365 471 443 q 669 279 664 286 q 666 175 693 249 q 571 37 639 101 q 428 -28 503 -28 q 365 -19 397 -28 q 306 0 333 -11 q 247 30 278 11 q 195 64 217 49 q 147 102 174 79 q 107 136 119 125 q 74 167 94 147 q 53 188 54 186 z "},"ा":{"ha":374,"x_min":-7,"x_max":378,"o":"m -7 726 l -7 860 l 378 860 l 378 726 l 271 726 l 271 -78 l 99 0 l 99 726 l -7 726 z "},"ि":{"ha":374,"x_min":-4,"x_max":846,"o":"m -4 726 l -4 860 l 90 860 q 35 949 53 900 q 31 1035 18 997 q 128 1138 47 1079 q 250 1194 210 1197 q 496 1069 300 1192 q 846 833 692 947 l 757 835 q 264 1026 418 1051 q 190 956 193 1014 q 235 860 188 907 l 381 860 l 381 726 l 274 726 l 274 -79 l 101 -1 l 101 726 l -4 726 z "},"ी":{"ha":314,"x_min":-439,"x_max":324,"o":"m -204 839 l -312 840 q -403 948 -368 890 q -415 1044 -439 1006 q -309 1153 -378 1106 q -167 1200 -240 1200 q -120 1182 -146 1200 q -62 1127 -94 1164 q -2 1053 -31 1090 q 70 958 26 1017 q 146 860 114 900 l 324 860 l 324 726 l 217 726 l 217 -76 l 44 1 l 44 726 l -61 726 l -61 860 l 72 860 l -24 971 q -115 1049 -71 1024 q -192 1072 -160 1074 q -248 1055 -224 1069 q -284 1019 -272 1040 q -293 979 -296 997 q -204 839 -289 928 z "},"ु":{"ha":6,"x_min":-621,"x_max":97,"o":"m -231 19 q -112 -42 -187 18 q 18 -167 -37 -103 q 40 -349 97 -265 q -151 -456 -17 -433 q -285 -450 -221 -467 q -409 -390 -349 -433 q -515 -301 -469 -346 q -621 -187 -561 -257 l -576 -151 q -369 -310 -478 -264 q -183 -334 -261 -357 q -79 -235 -106 -311 q -112 -126 -57 -174 q -221 -112 -167 -78 l -340 -183 l -454 -83 q -231 19 -292 21 z "},"ू":{"ha":0,"x_min":-493,"x_max":240,"o":"m -256 -439 q -458 -267 -303 -429 q -493 -185 -493 -231 q -465 -100 -493 -140 q -394 -27 -436 -60 q -297 22 -351 6 q -193 29 -242 38 q -17 -87 -149 21 q 240 -321 114 -196 l 215 -350 q 134 -287 182 -325 q 60 -230 86 -250 q -5 -182 33 -210 q -65 -141 -43 -154 q -117 -112 -87 -128 q -168 -94 -147 -97 q -213 -90 -189 -90 q -258 -98 -237 -89 q -300 -124 -279 -107 q -342 -193 -337 -153 q -325 -261 -347 -233 q -267 -303 -303 -289 q -187 -296 -232 -318 l -118 -262 l -32 -365 q -159 -422 -87 -399 q -256 -439 -231 -446 z "},"ृ":{"ha":0,"x_min":-554,"x_max":0,"o":"m -279 22 l -128 -78 q -392 -182 -349 -104 q -368 -261 -415 -228 q -235 -275 -311 -300 q -156 -222 -192 -260 l 0 -312 q -128 -391 -56 -369 q -253 -405 -200 -412 q -331 -375 -306 -397 q -499 -203 -450 -269 q -503 -76 -554 -128 q -279 22 -453 -25 z "},"ॄ":{"ha":0,"x_min":-443,"x_max":53,"o":"m -156 -253 l -89 -357 q -258 -440 -179 -378 q -271 -553 -336 -501 q -97 -503 -196 -610 l 53 -590 q -72 -662 -4 -649 q -194 -658 -139 -676 q -306 -600 -250 -639 q -360 -547 -336 -579 q -395 -474 -383 -514 q -387 -392 -407 -435 q -312 -314 -368 -349 q -401 -230 -368 -275 q -438 -137 -433 -185 q -389 -45 -443 -89 q -222 26 -335 -1 l -94 -78 q -174 -106 -131 -86 q -255 -153 -217 -125 q -295 -215 -293 -182 q -251 -283 -297 -249 q -156 -253 -201 -264 z "},"ॅ":{"ha":0,"x_min":-357,"x_max":181,"o":"m -357 1108 l -322 1143 q -282 1105 -307 1128 q -206 1044 -257 1082 q -131 1006 -154 1006 q -35 1044 -92 1006 q 61 1119 22 1082 l 99 1158 l 181 1072 q 165 1055 175 1065 q 121 1018 154 1044 q 55 972 88 992 q -24 935 22 951 q -114 918 -71 918 q -214 966 -153 918 q -317 1061 -275 1014 l -357 1108 z "},"ॆ":{"ha":0,"x_min":-635,"x_max":-171,"o":"m -171 857 l -231 856 q -319 960 -290 942 q -430 986 -342 974 q -535 1007 -518 999 q -635 1115 -583 1032 l -546 1189 q -525 1158 -537 1178 q -503 1126 -512 1138 q -483 1111 -493 1114 q -382 1091 -476 1108 q -268 1057 -287 1074 q -216 967 -253 1043 q -171 857 -179 890 z "},"े":{"ha":0,"x_min":-758,"x_max":-171,"o":"m -171 857 l -231 856 q -311 949 -262 900 q -403 1021 -360 999 q -660 1006 -493 1069 l -758 1117 q -597 1149 -687 1139 q -465 1153 -506 1160 q -406 1125 -437 1146 q -339 1065 -375 1104 q -281 999 -303 1025 q -219 920 -260 974 q -171 857 -179 867 z "},"ै":{"ha":0,"x_min":-776,"x_max":-135,"o":"m -135 853 l -236 851 q -408 977 -342 963 q -571 931 -474 992 l -650 1014 q -437 1067 -507 1082 q -405 1055 -422 1064 q -367 1031 -387 1046 q -332 1004 -347 1017 q -294 969 -317 992 q -259 936 -271 947 q -223 899 -247 925 q -193 868 -199 874 q -308 1031 -226 938 q -439 1135 -390 1125 q -685 1081 -529 1153 l -776 1176 q -410 1224 -499 1281 q -374 1198 -390 1211 q -340 1166 -357 1185 q -310 1135 -322 1147 q -280 1097 -297 1122 q -253 1058 -262 1071 q -225 1012 -244 1046 q -198 965 -206 978 q -167 910 -190 951 q -135 853 -143 868 z "},"ॉ":{"ha":372,"x_min":-87,"x_max":450,"o":"m -87 1108 l -53 1143 q -12 1105 -37 1128 q 64 1044 13 1082 q 139 1006 115 1006 q 235 1044 178 1006 q 331 1119 292 1082 l 368 1158 l 450 1072 q 434 1055 444 1065 q 390 1018 424 1044 q 324 972 357 992 q 245 935 292 951 q 156 918 199 918 q 56 966 117 918 q -46 1061 -4 1014 l -87 1108 m -7 726 l -7 860 l 378 860 l 378 726 l 271 726 l 271 -78 l 99 0 l 99 726 l -7 726 z "},"ो":{"ha":368,"x_min":-364,"x_max":378,"o":"m 221 860 l 378 860 l 378 726 l 271 726 l 271 -78 l 99 0 l 99 726 l -7 726 l -7 860 l 161 860 q -8 1021 72 979 q -265 1006 -99 1069 l -364 1117 q -202 1149 -293 1139 q -71 1153 -111 1160 q -12 1126 -43 1146 q 54 1066 18 1106 q 111 1001 90 1026 q 173 923 132 976 q 221 860 214 869 z "},"ौ":{"ha":372,"x_min":-404,"x_max":378,"o":"m 233 860 l 378 860 l 378 726 l 271 726 l 271 -78 l 99 0 l 99 726 l -7 726 l -7 860 l 128 860 q -39 978 26 965 q -199 931 -104 990 l -278 1014 q -65 1067 -135 1082 q -33 1055 -50 1064 q 5 1031 -15 1046 q 40 1004 25 1017 q 78 969 56 992 q 113 936 101 947 q 149 899 125 925 q 179 868 174 874 q 64 1031 146 938 q -67 1135 -18 1125 q -312 1081 -157 1153 l -404 1176 q -37 1224 -126 1281 q -4 1199 -21 1213 q 25 1175 13 1186 q 53 1145 38 1164 q 78 1115 69 1126 q 104 1079 88 1104 q 128 1044 121 1054 q 153 1002 135 1033 q 177 960 171 971 q 205 910 183 949 q 233 860 226 872 z "},"्":{"ha":0,"x_min":-369,"x_max":65,"o":"m -369 -136 q -326 -97 -365 -122 q -271 -67 -286 -71 q -101 -174 -260 -64 q 65 -296 57 -285 q 42 -314 64 -300 q 14 -331 21 -328 q -86 -281 10 -328 q -272 -188 -182 -233 q -369 -136 -362 -143 z "},"ॐ":{"ha":1526,"x_min":38,"x_max":1472,"o":"m 742 665 q 757 577 772 638 q 689 461 742 517 q 785 464 740 450 q 854 498 829 478 q 926 563 879 518 q 964 599 938 574 q 1005 638 990 625 q 1042 668 1019 651 q 1083 692 1064 685 q 1124 697 1103 699 q 1285 593 1161 696 q 1461 435 1410 490 q 1469 396 1467 422 q 1457 330 1472 369 q 1419 253 1442 290 q 1353 181 1397 215 q 1256 132 1310 147 q 1153 150 1215 121 q 994 249 1092 179 l 1019 278 q 1227 272 1139 231 q 1319 389 1315 314 q 1269 522 1322 464 q 1210 549 1240 546 q 1155 540 1181 553 q 1101 505 1129 528 q 1049 458 1072 482 q 998 410 1026 435 q 947 372 969 385 q 884 363 924 364 q 781 382 844 363 q 663 436 718 401 l 646 424 q 715 376 690 394 q 774 317 740 357 q 824 231 807 276 q 808 144 839 190 q 722 65 778 99 q 600 5 667 31 q 476 -22 533 -21 q 385 -6 419 -24 q 238 117 313 43 q 38 332 163 190 l 67 367 q 254 201 190 246 q 547 150 426 82 q 617 213 592 175 q 640 301 643 251 q 593 392 636 350 q 410 351 508 350 l 335 481 q 467 499 410 481 q 555 545 525 517 q 598 606 585 574 q 604 671 611 639 q 575 726 597 703 q 483 758 538 768 q 380 713 429 747 q 285 625 331 678 l 150 718 q 322 842 226 793 q 460 868 418 892 q 742 665 622 775 m 603 881 l 638 915 q 678 877 653 900 q 754 816 703 854 q 829 778 806 778 q 925 816 868 778 q 1019 892 982 854 l 1058 931 l 1140 844 q 1124 827 1135 838 q 1081 790 1114 817 q 1015 744 1047 764 q 935 707 982 724 q 846 690 889 690 q 747 738 807 690 q 644 833 686 786 l 603 881 m 851 876 q 740 985 776 911 q 784 1045 743 1008 q 849 1088 825 1082 q 958 983 925 1054 q 851 876 936 921 z "},"क़":{"ha":1183,"x_min":-42,"x_max":1192,"o":"m -42 726 l -42 860 l 1192 860 l 1192 726 l 690 726 l 690 571 q 888 638 771 642 q 1012 547 926 636 q 1142 393 1097 458 q 1112 223 1189 321 q 917 85 1035 125 l 786 204 q 982 324 936 257 q 1016 410 1014 369 q 995 470 1018 450 q 933 496 972 490 q 844 478 894 501 q 690 313 726 424 l 690 -78 l 517 0 l 517 194 q 347 97 433 97 q 44 364 182 97 q 80 497 15 419 q 236 619 144 575 q 368 638 328 664 q 517 536 438 586 l 517 726 l -42 726 m 179 278 q 226 249 194 260 q 304 237 258 238 q 408 271 350 236 q 517 375 465 306 l 517 463 q 325 486 411 515 q 191 386 239 457 q 179 278 143 315 m 332 -178 q 221 -69 257 -143 q 265 -9 224 -46 q 329 33 306 28 q 439 -71 406 0 q 332 -178 417 -133 z "},"ख़":{"ha":1215,"x_min":-10,"x_max":1222,"o":"m -10 860 l 1222 860 l 1222 726 l 1117 726 l 1117 -78 l 944 0 l 944 147 q 783 -17 878 46 q 578 -79 689 -79 q 388 -46 475 -79 q 243 40 300 -12 q 144 158 186 92 q 84 286 103 224 q 63 404 65 349 q 126 528 93 489 q 172 526 139 543 q 231 485 206 510 q 244 461 239 476 q 253 421 249 446 q 264 379 258 396 q 351 436 319 397 q 388 525 382 475 q 385 625 393 575 q 360 726 378 675 l -10 726 l -10 860 m 786 97 q 492 361 628 103 q 285 199 433 244 q 375 80 304 136 q 563 24 446 24 q 786 97 697 24 m 626 278 q 672 250 642 261 q 744 236 701 239 q 841 262 788 233 q 944 349 894 290 l 944 474 q 762 482 843 514 q 637 382 681 450 q 626 278 593 314 m 817 638 q 944 550 854 610 l 944 726 l 451 726 q 524 492 528 608 q 679 615 583 565 q 817 638 775 665 m 201 -215 q 90 -107 126 -181 q 134 -47 93 -83 q 199 -4 175 -10 q 308 -108 275 -37 q 201 -215 286 -171 z "},"ग़":{"ha":906,"x_min":-7,"x_max":913,"o":"m -7 726 l -7 860 l 913 860 l 913 726 l 799 726 l 799 -78 l 626 0 l 626 726 l 288 726 q 412 519 378 629 q 426 323 446 408 q 346 181 407 238 q 196 125 285 125 q 122 178 172 125 q 61 257 72 231 q 65 360 47 290 q 117 442 82 429 q 156 421 121 443 q 201 390 192 399 q 210 381 207 386 q 215 369 213 376 q 219 358 218 361 q 224 341 221 354 q 228 322 226 328 q 284 528 289 413 q 215 726 279 643 l -7 726 m 197 -187 q 86 -79 122 -153 q 130 -19 89 -56 q 194 24 171 18 q 304 -81 271 -10 q 197 -187 282 -143 z "},"ज़":{"ha":1115,"x_min":-8,"x_max":1164,"o":"m 872 0 l 872 424 l 668 424 q 734 355 706 390 q 769 300 763 319 q 744 196 786 249 q 633 113 701 143 q 490 73 564 83 q 369 96 415 63 q 49 500 281 157 l 85 522 q 233 351 192 393 q 499 238 385 204 q 535 252 517 243 q 573 278 554 261 q 601 315 592 294 q 608 363 611 335 q 583 424 604 392 l 483 424 l 332 557 l 872 557 l 872 726 l -8 726 l -8 860 l 1164 860 l 1164 726 l 1044 726 l 1044 -78 l 872 0 m 182 -76 q 71 32 107 -42 q 115 92 74 56 q 179 135 156 129 q 289 31 256 101 q 182 -76 267 -32 z "},"ड़":{"ha":833,"x_min":-33,"x_max":882,"o":"m -33 726 l -33 860 l 882 860 l 882 726 l 624 726 l 624 540 l 317 540 q 264 486 285 540 q 265 385 239 422 q 328 369 283 358 q 424 398 340 372 q 565 437 507 424 q 631 443 622 450 q 800 243 718 369 q 810 208 808 229 q 802 161 811 186 q 776 110 793 136 q 731 59 760 83 q 667 15 703 35 q 580 -16 631 -4 q 471 -28 529 -28 q 333 2 403 -28 q 215 69 264 32 q 120 158 167 107 q 53 238 74 210 q 18 289 33 265 l 46 315 q 98 260 69 288 q 178 189 126 232 q 294 119 229 146 q 419 93 358 93 q 582 131 506 93 q 681 215 658 169 q 675 301 704 261 q 601 310 653 324 q 499 268 550 296 q 394 226 447 240 q 315 231 340 211 q 114 407 165 354 q 98 496 89 443 q 142 597 107 549 q 214 647 178 644 l 468 663 l 468 726 l -33 726 m 183 -206 q 72 -97 108 -171 q 116 -37 75 -74 q 181 6 157 0 q 290 -99 257 -28 q 183 -206 268 -161 z "},"ढ़":{"ha":843,"x_min":-11,"x_max":861,"o":"m -11 726 l -11 860 l 861 860 l 861 726 l 639 726 l 639 531 l 374 531 q 298 489 332 531 q 252 388 264 447 q 245 267 240 328 q 287 160 250 206 q 386 111 324 115 q 472 118 433 107 q 396 225 415 181 q 416 323 376 269 q 506 410 456 376 q 576 443 556 443 q 694 351 601 443 q 794 235 788 258 q 765 149 803 200 q 668 49 728 97 q 491 -27 582 -21 q 317 32 400 -33 q 226 106 257 81 q 153 176 196 132 q 83 260 111 219 q 62 360 56 299 q 90 482 68 422 q 151 586 113 542 q 229 635 190 631 l 485 650 l 485 726 l -11 726 m 517 136 q 623 227 574 161 q 649 317 672 293 q 588 317 629 335 q 521 250 547 300 q 517 136 494 200 m 200 -194 q 89 -86 125 -160 q 133 -26 92 -62 q 197 17 174 11 q 307 -87 274 -17 q 200 -194 285 -150 z "},"फ़":{"ha":1200,"x_min":-11,"x_max":1224,"o":"m -11 726 l -11 860 l 1224 860 l 1224 726 l 742 726 l 742 535 q 883 592 815 593 q 1017 505 922 590 q 1150 361 1111 419 q 1138 168 1196 290 q 996 -7 1081 46 l 860 94 q 988 233 933 132 q 1013 404 1044 343 q 858 428 979 465 q 742 347 800 408 l 742 -76 l 569 1 l 569 185 q 406 99 478 99 q 360 106 383 99 q 310 132 336 114 q 264 165 283 150 q 215 209 244 179 q 170 253 185 239 q 124 302 156 268 q 85 344 93 336 q 76 726 76 353 l -11 726 m 250 289 q 413 272 310 231 q 569 406 515 314 l 569 726 l 247 726 l 250 289 m 286 -187 q 175 -79 211 -153 q 219 -19 178 -56 q 283 24 260 18 q 393 -81 360 -10 q 286 -187 371 -143 z "},"ॠ":{"ha":1265,"x_min":-15,"x_max":1282,"o":"m 1069 240 l 1144 163 q 997 76 1058 129 q 993 -19 935 22 q 1062 -27 1018 -43 q 1147 47 1106 -11 l 1278 0 q 1076 -107 1185 -112 q 897 18 967 -101 q 950 178 850 104 q 887 217 910 200 q 850 258 864 235 q 846 303 836 281 q 890 355 856 325 q 986 419 924 385 l 949 460 q 706 414 869 357 l 706 -76 l 533 1 l 533 243 q 267 74 446 172 l 160 197 q 533 396 428 307 l 533 397 q 143 440 386 467 l 90 613 q 299 597 169 622 q 533 521 429 571 l 533 726 l -15 726 l -15 860 l 1282 860 l 1282 726 l 706 726 l 706 482 q 851 532 792 475 q 827 567 838 544 q 821 597 817 590 q 881 654 835 626 q 946 679 926 682 q 1016 624 968 676 q 1042 546 1064 571 l 989 486 l 1050 411 l 1097 358 q 1013 319 1038 332 q 965 285 988 306 q 949 246 942 265 q 986 201 956 226 q 1069 240 1024 221 z "},"ॡ":{"ha":1029,"x_min":-14,"x_max":1057,"o":"m -14 726 l -14 860 l 1038 860 l 1038 726 l 846 726 l 846 458 q 949 360 924 400 q 960 281 972 319 q 914 215 949 243 q 840 155 879 186 q 772 99 801 124 q 742 42 743 74 q 782 -21 740 10 q 867 4 818 -6 l 928 -85 q 774 -154 846 -101 q 763 -250 703 -207 q 921 -207 831 -299 l 1057 -282 q 731 -290 919 -414 q 666 -226 692 -265 q 649 -136 640 -187 q 724 -47 658 -85 q 654 15 688 -22 q 615 92 619 56 q 630 156 610 129 q 679 210 650 183 q 742 258 708 238 q 797 305 775 279 q 823 353 818 331 q 801 408 828 376 q 708 436 761 454 q 605 371 654 418 q 521 265 556 324 q 486 169 486 207 l 375 257 q 435 383 386 310 q 307 442 365 433 q 217 422 249 450 q 171 349 185 393 q 171 249 157 306 q 222 146 185 193 q 381 -32 306 38 l 343 -79 q 124 153 232 18 q 7 351 15 289 q 53 453 1 394 q 171 550 104 513 q 275 575 238 588 q 463 422 333 556 q 672 556 561 550 l 674 556 l 674 726 l -14 726 z "},"ॢ":{"ha":0,"x_min":-625,"x_max":56,"o":"m -26 -392 l 56 -453 q -125 -482 -50 -543 q -231 -367 -174 -444 q -237 -310 -251 -337 q -189 -262 -222 -282 q -122 -219 -156 -242 q -73 -180 -89 -197 q -78 -139 -57 -162 q -187 -151 -122 -96 q -269 -278 -251 -207 l -364 -221 q -331 -154 -356 -192 q -494 -171 -462 -94 q -474 -312 -518 -229 q -408 -387 -446 -362 l -429 -418 q -558 -305 -503 -382 q -619 -176 -612 -228 q -551 -76 -625 -133 q -436 -32 -476 -19 q -310 -126 -397 -43 q -164 -44 -243 -46 q -66 -91 -137 -43 q 25 -171 6 -139 q 33 -232 47 -204 q -17 -277 18 -260 q -86 -315 -51 -294 q -138 -354 -121 -335 q -137 -406 -156 -374 q -90 -429 -125 -431 q -26 -392 -54 -428 z "},"ॣ":{"ha":0,"x_min":-625,"x_max":64,"o":"m -57 -357 l -10 -425 q -140 -496 -108 -443 q -135 -539 -160 -529 q -12 -485 -96 -553 l 64 -540 q -115 -589 -8 -610 q -225 -521 -197 -574 q -190 -418 -250 -467 l -231 -367 q -237 -310 -251 -337 q -189 -262 -222 -282 q -122 -219 -156 -242 q -73 -180 -89 -197 q -78 -139 -57 -162 q -187 -151 -122 -96 q -269 -278 -251 -207 l -364 -221 q -331 -154 -356 -192 q -494 -171 -462 -94 q -474 -312 -518 -229 q -408 -387 -446 -362 l -429 -418 q -558 -305 -503 -382 q -619 -176 -612 -228 q -551 -76 -625 -133 q -436 -32 -476 -19 q -310 -126 -397 -43 q -164 -44 -243 -46 q -66 -91 -137 -43 q 25 -171 6 -139 q 34 -229 46 -207 q -10 -272 22 -251 q -75 -308 -42 -293 q -130 -345 -108 -324 q -144 -390 -151 -367 q -57 -357 -108 -372 z "},"।":{"ha":564,"x_min":279,"x_max":451,"o":"m 451 851 l 451 -79 l 279 -1 l 279 929 l 451 851 z "},"॥":{"ha":899,"x_min":279,"x_max":800,"o":"m 800 851 l 800 -79 l 628 -1 l 628 929 l 800 851 m 451 851 l 451 -79 l 279 -1 l 279 929 l 451 851 z "},"०":{"ha":818,"x_min":15,"x_max":738,"o":"m 519 643 q 418 656 472 671 q 321 588 364 642 q 251 474 278 535 q 231 351 225 414 q 283 253 238 288 q 456 270 368 186 q 558 470 543 354 q 519 643 574 586 m 649 647 q 722 517 706 603 q 712 348 738 432 q 630 194 686 264 q 487 110 574 124 q 294 154 400 97 q 165 242 225 196 q 89 535 15 357 q 254 743 138 654 q 413 800 356 819 q 424 794 418 797 q 570 699 511 735 q 649 647 629 663 z "},"१":{"ha":601,"x_min":54,"x_max":569,"o":"m 511 -151 l 379 -51 q 406 -25 393 -44 q 420 29 419 -6 q 394 100 421 64 q 285 213 365 140 q 138 340 204 285 q 71 401 72 396 q 117 431 72 407 q 214 485 161 456 q 285 528 267 514 q 85 632 133 576 q 59 709 54 667 q 95 785 64 751 q 169 843 126 818 q 260 869 213 868 q 344 847 307 869 q 550 654 493 743 q 566 614 563 635 q 562 572 569 593 q 546 531 554 550 q 516 490 538 513 q 480 453 494 468 q 435 415 465 438 q 391 382 406 393 q 344 351 376 371 q 303 326 311 331 q 268 304 296 321 q 497 111 442 160 q 550 41 535 79 q 563 -28 565 3 q 549 -88 560 -60 q 527 -132 538 -117 q 511 -151 517 -147 m 325 567 q 372 592 340 564 q 413 646 404 619 q 392 736 418 708 q 328 759 365 764 q 257 731 292 754 q 219 690 232 713 q 207 643 206 667 q 238 599 208 619 q 325 567 268 578 z "},"२":{"ha":763,"x_min":56,"x_max":804,"o":"m 590 654 q 638 528 638 607 q 592 376 639 450 q 463 274 544 303 q 804 -15 733 38 l 747 -69 q 556 105 699 -19 q 383 257 414 229 l 381 257 l 379 258 q 251 256 326 253 q 153 286 176 260 l 144 294 q 131 311 138 303 q 114 333 124 319 q 97 360 104 347 q 85 390 90 374 q 82 419 81 406 q 117 466 82 436 q 186 504 151 496 q 322 394 203 493 q 482 576 469 469 q 431 697 492 654 q 272 699 361 746 q 171 607 218 669 l 56 754 l 83 772 q 125 801 110 792 q 172 828 140 810 q 227 854 204 847 q 279 867 250 861 q 333 866 308 872 q 379 843 358 860 q 590 654 519 725 z "},"३":{"ha":717,"x_min":42,"x_max":699,"o":"m 551 675 q 581 560 599 624 q 494 444 564 497 q 654 307 588 379 q 626 163 699 257 q 429 25 554 68 q 688 -178 617 -131 l 633 -236 q 365 0 486 -100 q 315 -5 350 -1 q 257 -10 281 -8 q 205 -12 233 -12 q 156 -8 176 -12 q 124 8 135 -3 q 76 73 107 22 q 44 163 44 124 q 78 211 44 179 q 144 251 111 243 q 285 146 181 232 q 410 185 357 151 q 476 274 464 218 q 429 404 489 331 q 260 363 351 367 l 192 508 q 449 650 414 574 q 415 714 468 694 q 243 693 346 740 q 138 621 188 667 l 42 753 l 69 772 q 111 799 96 790 q 158 827 126 808 q 213 853 190 846 q 265 865 236 860 q 319 865 294 871 q 365 842 344 858 q 551 675 489 738 z "},"४":{"ha":671,"x_min":14,"x_max":618,"o":"m 50 229 q 72 330 24 267 q 235 503 121 393 q 244 510 240 507 q 251 518 247 514 q 14 785 54 694 l 69 846 q 296 563 114 722 q 507 844 468 735 l 618 739 q 571 640 607 693 q 501 554 535 588 q 410 465 468 521 q 586 306 569 329 q 578 193 607 274 q 488 44 550 113 q 364 -25 425 -25 q 206 86 340 -25 q 50 229 72 197 m 282 115 q 363 128 315 90 q 419 263 425 175 q 354 414 415 336 q 289 349 314 376 q 242 288 264 322 q 217 227 219 254 q 229 171 214 200 q 282 115 244 142 z "},"५":{"ha":764,"x_min":36,"x_max":803,"o":"m 803 44 l 749 7 l 596 197 q 519 134 554 158 q 443 92 485 110 q 358 81 401 75 q 272 118 315 88 q 76 289 163 196 q 42 399 36 328 q 83 551 47 471 q 190 717 119 631 q 346 872 260 803 l 486 769 q 232 457 299 633 q 226 260 183 328 q 372 243 269 192 q 490 333 426 272 q 442 421 435 406 q 539 517 468 474 q 585 534 563 532 q 626 526 607 536 q 663 503 646 517 q 697 467 679 489 q 737 391 729 429 q 717 317 744 353 l 643 243 l 803 44 z "},"६":{"ha":782,"x_min":58,"x_max":826,"o":"m 99 585 q 106 697 58 626 q 264 819 153 767 q 492 864 375 872 l 554 726 q 362 706 453 743 q 246 613 271 669 q 264 497 221 556 q 376 547 326 540 l 469 442 q 260 279 299 378 q 285 168 232 210 q 453 157 346 118 q 528 196 490 171 q 465 303 457 288 q 563 399 492 356 q 608 416 586 414 q 650 408 631 418 q 686 385 669 399 q 721 349 703 371 q 760 273 753 311 q 740 199 768 235 l 667 125 l 826 -74 l 772 -111 l 610 92 q 436 17 518 29 q 296 54 354 4 q 108 265 188 163 q 118 353 83 297 q 219 464 153 410 q 99 585 188 493 z "},"७":{"ha":889,"x_min":18,"x_max":871,"o":"m 88 726 q 203 409 153 525 q 308 233 253 293 q 419 190 363 174 q 547 293 476 206 q 413 467 474 372 q 351 618 351 561 q 411 740 351 674 q 546 843 471 807 q 660 856 621 879 q 779 749 725 815 q 849 639 833 682 q 848 480 871 575 q 771 296 825 385 q 651 133 717 207 q 515 26 585 58 q 397 21 444 -7 q 255 147 319 68 q 145 328 190 226 q 72 514 100 431 q 18 701 44 597 l 88 726 m 636 424 q 710 675 753 614 q 618 681 683 714 q 517 572 547 644 q 588 349 468 453 q 636 424 615 390 z "},"८":{"ha":681,"x_min":31,"x_max":671,"o":"m 542 310 l 671 154 q 522 47 599 88 q 376 0 446 6 q 260 40 306 -6 q 57 276 168 132 q 97 440 31 311 q 251 692 163 568 q 392 865 340 817 l 551 747 q 406 581 492 696 q 265 342 321 467 q 246 169 208 217 q 373 167 285 124 q 542 310 461 211 z "},"९":{"ha":625,"x_min":-6,"x_max":678,"o":"m 371 661 q 250 664 314 708 q 183 538 189 621 q 276 351 179 433 q 399 424 358 364 q 431 552 440 483 q 371 661 421 621 m 585 582 q 597 525 594 564 q 588 438 599 486 q 553 349 576 390 q 485 281 531 307 q 381 261 440 256 q 540 89 428 219 q 576 -165 678 -71 l 404 -65 q 436 -24 428 -54 q 431 51 444 6 q 379 142 417 96 q 261 272 378 143 q 75 488 144 400 q 1 611 6 576 q 61 776 -6 681 q 218 871 128 871 q 400 756 247 871 q 585 582 553 640 z "},"॰":{"ha":483,"x_min":63,"x_max":415,"o":"m 285 460 q 206 449 246 483 q 164 367 167 414 q 201 290 161 319 q 250 287 226 279 q 290 317 274 294 q 314 367 306 340 q 315 419 322 393 q 285 460 307 446 m 369 474 q 408 406 400 447 q 401 324 415 364 q 359 252 388 285 q 288 212 331 219 q 199 225 246 204 q 125 272 153 249 q 74 349 85 304 q 78 433 63 394 q 123 504 94 471 q 190 546 151 538 q 264 539 228 554 q 369 474 331 504 z "},"ॲ":{"ha":1097,"x_min":26,"x_max":1203,"o":"m 724 725 l 671 860 l 1117 860 l 1117 725 l 1025 725 l 1025 -78 l 853 0 l 853 371 q 819 362 836 365 q 785 359 803 358 q 756 360 768 360 q 724 367 743 361 q 697 375 706 372 q 668 387 688 378 q 642 399 649 396 q 615 413 636 401 q 592 425 594 424 l 585 419 q 626 392 618 397 q 665 363 635 386 q 708 324 694 340 q 739 281 721 308 q 767 225 757 254 q 747 117 785 174 q 642 24 708 60 q 502 -27 576 -12 q 374 -8 428 -42 q 26 399 253 65 l 61 424 q 88 388 64 421 q 123 342 113 354 q 162 295 133 329 q 208 245 190 261 q 256 201 225 229 q 310 161 286 174 q 365 134 333 149 q 425 117 397 119 q 486 121 453 115 q 550 143 519 126 q 619 253 626 188 q 533 389 611 319 q 376 351 460 356 l 301 481 q 521 546 443 496 q 574 657 599 596 q 506 726 551 711 q 402 718 460 740 q 309 676 344 696 q 236 632 274 657 l 151 753 l 178 772 q 221 799 206 790 q 268 827 236 808 q 323 853 300 846 q 375 865 346 860 q 429 865 404 871 q 475 842 454 858 q 661 675 599 738 q 692 560 707 625 q 613 440 676 494 q 853 521 750 418 l 853 725 l 724 725 m 665 1108 l 700 1143 q 740 1105 715 1128 q 817 1044 765 1082 q 892 1006 868 1006 q 988 1044 931 1006 q 1083 1119 1044 1082 l 1121 1158 l 1203 1072 q 1187 1055 1197 1065 q 1143 1018 1176 1044 q 1077 972 1110 992 q 998 935 1044 951 q 908 918 951 918 q 809 966 869 918 q 707 1061 749 1014 l 665 1108 z "},"​":{"ha":0,"x_min":0,"x_max":0,"o":""},"‌":{"ha":0,"x_min":-32,"x_max":33,"o":"m 33 -319 l -32 -319 l -32 1126 l 33 1126 l 33 -319 z "},"‍":{"ha":0,"x_min":-176,"x_max":179,"o":"m 179 824 l 133 778 l 33 882 l 33 -319 l -32 -319 l -32 882 l -128 781 l -174 826 l -44 956 l -176 1088 l -131 1133 l 1 1001 l 135 1133 l 179 1089 l 46 956 l 179 824 z "},"–":{"ha":783,"x_min":42,"x_max":742,"o":"m 85 385 l 42 497 l 699 497 l 742 385 l 85 385 z "},"—":{"ha":1257,"x_min":42,"x_max":1215,"o":"m 85 385 l 42 497 l 1172 497 l 1215 385 l 85 385 z "},"‘":{"ha":356,"x_min":7,"x_max":217,"o":"m 128 1124 l 185 1086 q 154 925 150 975 q 217 849 197 888 q 175 792 214 826 q 113 751 136 757 q 41 803 75 769 q 8 865 7 838 q 57 1003 17 917 q 128 1124 97 1089 z "},"’":{"ha":356,"x_min":139,"x_max":349,"o":"m 228 751 l 171 789 q 201 950 206 900 q 139 1026 158 988 q 181 1083 142 1049 q 243 1124 219 1118 q 315 1072 281 1106 q 347 1010 349 1038 q 299 872 339 958 q 228 751 258 786 z "},"‚":{"ha":481,"x_min":92,"x_max":301,"o":"m 181 -204 l 124 -167 q 154 -6 158 -56 q 92 71 111 32 q 133 128 94 93 q 196 168 172 163 q 267 116 233 150 q 300 54 301 82 q 251 -83 292 3 q 181 -204 211 -169 z "},"“":{"ha":625,"x_min":7,"x_max":486,"o":"m 397 1124 l 454 1086 q 424 925 419 975 q 486 849 467 888 q 444 792 483 826 q 382 751 406 757 q 310 803 344 769 q 278 865 276 838 q 326 1003 286 917 q 397 1124 367 1089 m 128 1124 l 185 1086 q 154 925 150 975 q 217 849 197 888 q 175 792 214 826 q 113 751 136 757 q 41 803 75 769 q 8 865 7 838 q 57 1003 17 917 q 128 1124 97 1089 z "},"”":{"ha":625,"x_min":139,"x_max":618,"o":"m 228 751 l 171 789 q 201 950 206 900 q 139 1026 158 988 q 181 1083 142 1049 q 243 1124 219 1118 q 315 1072 281 1106 q 347 1010 349 1038 q 299 872 339 958 q 228 751 258 786 m 497 751 l 440 789 q 471 950 475 900 q 408 1026 428 988 q 450 1083 411 1049 q 513 1124 489 1118 q 584 1072 550 1106 q 617 1010 618 1038 q 568 872 608 958 q 497 751 528 786 z "},"„":{"ha":733,"x_min":94,"x_max":574,"o":"m 183 -199 l 126 -161 q 157 0 161 -50 q 94 76 114 38 q 136 133 97 99 q 199 174 175 168 q 270 122 236 156 q 303 60 304 88 q 254 -78 294 8 q 183 -199 214 -164 m 453 -199 l 396 -161 q 426 0 431 -50 q 364 76 383 38 q 406 133 367 99 q 468 174 444 168 q 540 122 506 156 q 572 60 574 88 q 524 -78 564 8 q 453 -199 483 -164 z "},"†":{"ha":749,"x_min":129,"x_max":682,"o":"m 171 396 l 129 497 l 324 497 l 324 792 l 483 753 l 483 497 l 640 497 l 682 396 l 483 396 l 483 -276 l 324 -237 l 324 396 l 171 396 z "},"‡":{"ha":749,"x_min":129,"x_max":682,"o":"m 483 753 l 483 497 l 640 497 l 682 396 l 483 396 l 483 97 l 640 97 l 682 -4 l 483 -4 l 483 -276 l 324 -237 l 324 -4 l 171 -4 l 129 97 l 324 97 l 324 396 l 171 396 l 129 497 l 324 497 l 324 792 l 483 753 z "},"•":{"ha":433,"x_min":56,"x_max":378,"o":"m 219 243 q 56 401 107 297 q 121 490 61 436 q 217 551 181 543 q 378 399 331 501 q 219 243 346 310 z "},"…":{"ha":1104,"x_min":92,"x_max":1042,"o":"m 939 -31 q 833 71 868 3 q 875 128 836 93 q 938 168 914 163 q 1042 69 1008 136 q 939 -31 1018 10 m 571 -31 q 465 71 500 3 q 507 128 468 93 q 569 168 546 163 q 674 69 640 136 q 571 -31 650 10 m 197 -31 q 92 71 126 3 q 133 128 94 93 q 196 168 172 163 q 300 69 267 136 q 197 -31 276 10 z "},"‰":{"ha":1754,"x_min":7,"x_max":1740,"o":"m 990 947 l 365 -42 l 240 1 l 760 829 q 474 858 629 797 q 519 756 513 817 q 503 639 526 694 q 438 538 481 583 q 335 482 394 492 q 207 503 275 472 q 96 575 150 532 q 26 669 46 615 q 17 774 7 724 q 53 872 26 824 q 123 947 81 919 q 210 986 165 975 q 303 972 256 997 l 329 958 q 547 901 442 910 q 729 918 651 893 q 863 993 807 943 l 990 947 m 1111 357 q 1169 256 1157 318 q 1159 135 1181 193 q 1095 27 1138 76 q 990 -33 1053 -22 q 858 -14 928 -44 q 747 58 801 15 q 678 153 697 99 q 668 257 658 207 q 705 355 678 307 q 774 431 732 403 q 862 469 817 458 q 954 456 907 481 q 1111 357 1053 406 m 1671 357 q 1728 256 1717 318 q 1719 135 1740 193 q 1655 27 1697 76 q 1550 -33 1613 -22 q 1418 -14 1488 -44 q 1307 58 1361 15 q 1238 153 1257 99 q 1228 257 1218 207 q 1265 355 1238 307 q 1334 431 1292 403 q 1422 469 1376 458 q 1514 456 1467 481 q 1671 357 1613 406 m 344 872 q 217 853 283 913 q 144 712 151 793 q 197 582 138 631 q 326 601 263 543 q 397 740 390 660 q 344 872 403 821 m 1556 356 q 1428 336 1494 396 q 1356 195 1363 276 q 1408 65 1349 114 q 1538 85 1474 26 q 1608 224 1601 143 q 1556 356 1614 304 m 996 356 q 869 336 935 396 q 796 195 803 276 q 849 65 789 114 q 978 85 914 26 q 1048 224 1042 143 q 996 356 1054 304 z "},"‹":{"ha":540,"x_min":28,"x_max":457,"o":"m 28 396 l 329 679 l 457 585 l 204 364 l 447 165 l 382 93 l 28 396 z "},"›":{"ha":540,"x_min":83,"x_max":513,"o":"m 93 165 l 336 364 l 83 585 l 211 679 l 513 396 l 158 93 l 93 165 z "},"⁄":{"ha":747,"x_min":25,"x_max":724,"o":"m 724 944 l 150 -42 l 25 1 l 596 990 l 724 944 z "},"₨":{"ha":1593,"x_min":57,"x_max":1529,"o":"m 622 289 q 558 357 610 313 q 250 346 424 307 l 251 -40 l 57 0 l 57 929 q 340 975 183 964 q 536 958 496 986 q 667 832 578 921 q 790 703 756 743 q 783 558 826 658 q 633 393 739 458 q 793 317 781 331 q 819 256 811 290 q 826 199 826 222 q 824 132 826 175 q 821 74 821 89 q 819 31 821 60 q 817 -11 817 3 q 821 -47 817 -25 q 835 -81 825 -68 q 864 -107 844 -93 q 914 -131 883 -121 q 731 -95 804 -153 q 651 74 658 -37 q 649 125 651 82 q 645 188 647 168 q 638 238 643 207 q 622 289 632 269 m 599 801 q 249 824 517 879 l 250 435 q 426 463 347 433 q 546 540 504 493 q 610 638 588 586 q 628 733 632 689 q 599 801 624 778 m 1404 618 l 1389 543 q 1211 568 1254 574 q 1104 502 1143 560 q 1076 392 1065 444 q 1140 394 1079 379 q 1274 426 1201 410 q 1367 431 1346 442 q 1496 299 1463 381 q 1503 142 1529 217 q 1399 14 1478 68 q 1208 -40 1319 -40 q 1038 10 1117 -40 q 854 163 960 61 l 879 210 q 1079 115 974 139 q 1276 133 1185 90 q 1397 292 1367 176 q 1385 296 1399 297 q 1308 278 1369 294 q 1063 247 1115 226 l 1050 254 q 926 382 974 313 q 898 482 892 429 q 933 578 904 535 q 1021 651 963 622 q 1149 679 1079 679 q 1208 671 1169 679 q 1316 642 1246 663 q 1404 618 1386 622 z "},"€":{"ha":814,"x_min":40,"x_max":757,"o":"m 82 481 l 40 582 l 189 582 q 355 848 242 746 q 556 908 468 950 q 757 806 690 843 q 753 801 756 804 q 746 790 751 797 q 735 774 740 782 q 725 760 731 767 q 717 749 719 753 l 713 744 q 557 783 614 792 q 450 721 499 775 q 368 582 401 667 l 628 582 l 669 481 l 336 481 q 324 401 328 442 l 642 401 l 683 300 l 321 300 q 404 106 331 156 q 515 78 446 74 q 650 131 585 83 q 703 74 651 129 q 756 17 756 18 q 615 -33 700 -21 q 463 -21 531 -46 q 370 33 429 -7 q 274 115 311 74 q 174 300 200 194 l 96 300 l 54 401 l 161 401 q 165 481 161 442 l 82 481 z "},"₹":{"ha":971,"x_min":94,"x_max":836,"o":"m 136 726 l 94 828 l 781 828 l 822 726 l 594 726 l 631 633 l 794 633 l 836 532 l 661 532 q 626 340 683 418 q 386 211 568 261 q 674 -28 488 64 l 635 -78 q 506 0 554 -32 q 392 84 458 32 q 267 202 325 136 q 156 354 210 268 q 163 406 149 371 q 196 465 176 442 q 242 473 213 481 q 293 443 271 465 q 338 354 310 425 q 542 532 544 371 l 150 532 l 108 633 l 524 633 q 490 726 517 657 l 136 726 z "},"₺":{"ha":696,"x_min":44,"x_max":668,"o":"m 86 567 l 44 664 l 158 664 l 158 814 l 315 775 l 315 664 l 499 664 l 540 567 l 315 567 l 315 479 l 499 479 l 540 382 l 315 382 q 317 302 315 333 q 324 227 318 271 q 342 161 331 183 q 378 122 354 139 q 434 110 401 104 q 517 145 467 117 q 631 229 567 174 l 668 186 q 568 67 643 138 q 456 -24 493 -3 q 341 -16 414 -47 q 213 72 268 15 q 158 169 158 128 l 158 382 l 86 382 l 44 479 l 158 479 l 158 567 l 86 567 z "},"₽":{"ha":922,"x_min":4,"x_max":872,"o":"m 310 832 l 311 389 q 489 409 411 378 q 607 494 567 440 q 667 610 647 549 q 683 725 688 672 q 657 803 679 778 q 310 832 583 885 m 118 239 l 118 929 q 401 975 244 964 q 597 958 557 986 q 728 832 639 921 q 851 703 817 743 q 863 619 872 678 q 814 495 853 560 q 706 376 775 431 q 538 303 636 321 q 311 324 439 286 l 311 239 l 592 239 l 633 138 l 313 138 l 313 -40 l 118 0 l 118 138 l 46 138 l 4 239 l 118 239 z "}}}
